{
	"patcher" : 	{
		"fileversion" : 1,
		"rect" : [ 60.0, 57.0, 1353.0, 937.0 ],
		"bglocked" : 0,
		"defrect" : [ 60.0, 57.0, 1353.0, 937.0 ],
		"openrect" : [ 0.0, 0.0, 0.0, 0.0 ],
		"openinpresentation" : 0,
		"default_fontsize" : 12.0,
		"default_fontface" : 0,
		"default_fontname" : "Arial",
		"gridonopen" : 0,
		"gridsize" : [ 15.0, 15.0 ],
		"gridsnaponopen" : 0,
		"toolbarvisible" : 1,
		"boxanimatetime" : 200,
		"imprint" : 0,
		"boxes" : [ 			{
				"box" : 				{
					"maxclass" : "message",
					"text" : "zlclear",
					"outlettype" : [ "" ],
					"hidden" : 1,
					"patching_rect" : [ 966.0, 569.0, 45.0, 18.0 ],
					"fontname" : "Arial",
					"id" : "obj-4",
					"numinlets" : 2,
					"fontsize" : 12.0,
					"numoutlets" : 1
				}

			}
, 			{
				"box" : 				{
					"maxclass" : "newobj",
					"text" : "t apply",
					"outlettype" : [ "apply" ],
					"hidden" : 1,
					"patching_rect" : [ 798.0, 914.0, 46.0, 20.0 ],
					"fontname" : "Arial",
					"id" : "obj-360",
					"numinlets" : 1,
					"fontsize" : 12.0,
					"numoutlets" : 1
				}

			}
, 			{
				"box" : 				{
					"maxclass" : "newobj",
					"text" : "readybang #1",
					"outlettype" : [ "bang" ],
					"hidden" : 1,
					"patching_rect" : [ 659.0, 907.0, 84.0, 20.0 ],
					"fontname" : "Arial",
					"id" : "obj-357",
					"numinlets" : 1,
					"fontsize" : 12.0,
					"numoutlets" : 1
				}

			}
, 			{
				"box" : 				{
					"maxclass" : "newobj",
					"text" : "t l b",
					"outlettype" : [ "", "bang" ],
					"hidden" : 1,
					"patching_rect" : [ 539.0, 875.0, 138.5, 20.0 ],
					"fontname" : "Arial",
					"id" : "obj-354",
					"numinlets" : 1,
					"fontsize" : 12.0,
					"numoutlets" : 2
				}

			}
, 			{
				"box" : 				{
					"maxclass" : "newobj",
					"text" : "s serversend",
					"hidden" : 1,
					"patching_rect" : [ 539.0, 913.0, 79.0, 20.0 ],
					"fontname" : "Arial",
					"id" : "obj-273",
					"numinlets" : 1,
					"fontsize" : 12.0,
					"numoutlets" : 0
				}

			}
, 			{
				"box" : 				{
					"maxclass" : "newobj",
					"text" : "prepend /setfilter #1 #2 force",
					"outlettype" : [ "" ],
					"hidden" : 1,
					"patching_rect" : [ 490.0, 840.0, 163.0, 20.0 ],
					"fontname" : "Arial",
					"id" : "obj-272",
					"numinlets" : 1,
					"fontsize" : 12.0,
					"numoutlets" : 1
				}

			}
, 			{
				"box" : 				{
					"maxclass" : "newobj",
					"text" : "prepend append",
					"outlettype" : [ "" ],
					"hidden" : 1,
					"patching_rect" : [ 329.0, 820.0, 98.0, 20.0 ],
					"fontname" : "Arial",
					"id" : "obj-271",
					"numinlets" : 1,
					"fontsize" : 12.0,
					"numoutlets" : 1
				}

			}
, 			{
				"box" : 				{
					"maxclass" : "message",
					"outlettype" : [ "" ],
					"hidden" : 1,
					"patching_rect" : [ 490.0, 674.0, 139.0, 18.0 ],
					"fontname" : "Arial",
					"id" : "obj-270",
					"numinlets" : 2,
					"fontsize" : 12.0,
					"numoutlets" : 1
				}

			}
, 			{
				"box" : 				{
					"maxclass" : "newobj",
					"text" : "t b l set",
					"outlettype" : [ "bang", "", "set" ],
					"hidden" : 1,
					"patching_rect" : [ 381.0, 610.0, 103.0, 20.0 ],
					"fontname" : "Arial",
					"id" : "obj-269",
					"numinlets" : 1,
					"fontsize" : 12.0,
					"numoutlets" : 3
				}

			}
, 			{
				"box" : 				{
					"maxclass" : "newobj",
					"text" : "gate 1 0",
					"outlettype" : [ "" ],
					"hidden" : 1,
					"patching_rect" : [ 395.0, 742.0, 54.0, 20.0 ],
					"fontname" : "Arial",
					"id" : "obj-266",
					"numinlets" : 2,
					"fontsize" : 12.0,
					"numoutlets" : 1
				}

			}
, 			{
				"box" : 				{
					"maxclass" : "newobj",
					"text" : "unpack",
					"outlettype" : [ "int", "int" ],
					"hidden" : 1,
					"patching_rect" : [ 396.0, 711.0, 49.0, 20.0 ],
					"fontname" : "Arial",
					"id" : "obj-265",
					"numinlets" : 1,
					"fontsize" : 12.0,
					"numoutlets" : 2
				}

			}
, 			{
				"box" : 				{
					"maxclass" : "newobj",
					"text" : "listfunnel",
					"outlettype" : [ "list" ],
					"hidden" : 1,
					"patching_rect" : [ 396.0, 678.0, 58.0, 20.0 ],
					"fontname" : "Arial",
					"id" : "obj-264",
					"numinlets" : 1,
					"fontsize" : 12.0,
					"numoutlets" : 1
				}

			}
, 			{
				"box" : 				{
					"maxclass" : "newobj",
					"text" : "zl reg",
					"outlettype" : [ "", "" ],
					"hidden" : 1,
					"patching_rect" : [ 114.0, 548.0, 56.0, 20.0 ],
					"fontname" : "Arial",
					"id" : "obj-263",
					"numinlets" : 2,
					"fontsize" : 12.0,
					"numoutlets" : 2
				}

			}
, 			{
				"box" : 				{
					"maxclass" : "comment",
					"text" : "Apply",
					"hidden" : 1,
					"patching_rect" : [ 135.0, 521.0, 76.0, 20.0 ],
					"fontname" : "Arial",
					"id" : "obj-262",
					"numinlets" : 1,
					"fontsize" : 12.0,
					"numoutlets" : 0
				}

			}
, 			{
				"box" : 				{
					"maxclass" : "button",
					"outlettype" : [ "bang" ],
					"hidden" : 1,
					"patching_rect" : [ 114.0, 520.0, 20.0, 20.0 ],
					"id" : "obj-261",
					"numinlets" : 1,
					"numoutlets" : 1
				}

			}
, 			{
				"box" : 				{
					"maxclass" : "umenu",
					"outlettype" : [ "int", "", "" ],
					"hidden" : 1,
					"items" : [  ],
					"patching_rect" : [ 267.0, 788.0, 100.0, 20.0 ],
					"fontname" : "Arial",
					"id" : "obj-184",
					"numinlets" : 1,
					"types" : [  ],
					"fontsize" : 12.0,
					"numoutlets" : 3
				}

			}
, 			{
				"box" : 				{
					"maxclass" : "newobj",
					"text" : "t synchro",
					"outlettype" : [ "synchro" ],
					"hidden" : 1,
					"patching_rect" : [ 893.0, 752.0, 59.0, 20.0 ],
					"fontname" : "Arial",
					"id" : "obj-351",
					"numinlets" : 1,
					"fontsize" : 12.0,
					"numoutlets" : 1
				}

			}
, 			{
				"box" : 				{
					"maxclass" : "comment",
					"text" : "Synchronise",
					"hidden" : 1,
					"patching_rect" : [ 808.0, 403.0, 76.0, 20.0 ],
					"fontname" : "Arial",
					"id" : "obj-180",
					"numinlets" : 1,
					"fontsize" : 12.0,
					"numoutlets" : 0
				}

			}
, 			{
				"box" : 				{
					"maxclass" : "newobj",
					"text" : "zl stream",
					"outlettype" : [ "", "" ],
					"hidden" : 1,
					"patching_rect" : [ 815.0, 705.0, 59.0, 20.0 ],
					"fontname" : "Arial",
					"id" : "obj-177",
					"numinlets" : 2,
					"fontsize" : 12.0,
					"numoutlets" : 2
				}

			}
, 			{
				"box" : 				{
					"maxclass" : "newobj",
					"text" : "unpack",
					"outlettype" : [ "int", "int" ],
					"hidden" : 1,
					"patching_rect" : [ 785.0, 679.0, 49.0, 20.0 ],
					"fontname" : "Arial",
					"id" : "obj-160",
					"numinlets" : 1,
					"fontsize" : 12.0,
					"numoutlets" : 2
				}

			}
, 			{
				"box" : 				{
					"maxclass" : "newobj",
					"text" : "pack",
					"outlettype" : [ "" ],
					"hidden" : 1,
					"patching_rect" : [ 785.0, 654.0, 36.0, 20.0 ],
					"fontname" : "Arial",
					"id" : "obj-159",
					"numinlets" : 2,
					"fontsize" : 12.0,
					"numoutlets" : 1
				}

			}
, 			{
				"box" : 				{
					"maxclass" : "newobj",
					"text" : "t b 1",
					"outlettype" : [ "bang", "int" ],
					"hidden" : 1,
					"patching_rect" : [ 823.0, 608.0, 34.0, 20.0 ],
					"fontname" : "Arial",
					"id" : "obj-157",
					"numinlets" : 1,
					"fontsize" : 12.0,
					"numoutlets" : 2
				}

			}
, 			{
				"box" : 				{
					"maxclass" : "newobj",
					"text" : "zl reg",
					"outlettype" : [ "", "" ],
					"hidden" : 1,
					"patching_rect" : [ 872.0, 608.0, 40.0, 20.0 ],
					"fontname" : "Arial",
					"id" : "obj-156",
					"numinlets" : 2,
					"fontsize" : 12.0,
					"numoutlets" : 2
				}

			}
, 			{
				"box" : 				{
					"maxclass" : "newobj",
					"text" : "zl slice 1",
					"outlettype" : [ "", "" ],
					"hidden" : 1,
					"patching_rect" : [ 785.0, 573.0, 57.0, 20.0 ],
					"fontname" : "Arial",
					"id" : "obj-152",
					"numinlets" : 2,
					"fontsize" : 12.0,
					"numoutlets" : 2
				}

			}
, 			{
				"box" : 				{
					"maxclass" : "newobj",
					"text" : "listfunnel",
					"outlettype" : [ "list" ],
					"hidden" : 1,
					"patching_rect" : [ 785.0, 545.0, 58.0, 20.0 ],
					"fontname" : "Arial",
					"id" : "obj-151",
					"numinlets" : 1,
					"fontsize" : 12.0,
					"numoutlets" : 1
				}

			}
, 			{
				"box" : 				{
					"maxclass" : "newobj",
					"text" : "t b l b",
					"outlettype" : [ "bang", "", "bang" ],
					"hidden" : 1,
					"patching_rect" : [ 785.0, 487.0, 243.0, 20.0 ],
					"fontname" : "Arial",
					"id" : "obj-150",
					"numinlets" : 1,
					"fontsize" : 12.0,
					"numoutlets" : 3
				}

			}
, 			{
				"box" : 				{
					"maxclass" : "newobj",
					"text" : "zl reg",
					"outlettype" : [ "", "" ],
					"hidden" : 1,
					"patching_rect" : [ 785.0, 517.0, 48.0, 20.0 ],
					"fontname" : "Arial",
					"id" : "obj-133",
					"numinlets" : 2,
					"fontsize" : 12.0,
					"numoutlets" : 2
				}

			}
, 			{
				"box" : 				{
					"maxclass" : "newobj",
					"text" : "t 0",
					"outlettype" : [ "int" ],
					"hidden" : 1,
					"patching_rect" : [ 894.0, 670.0, 24.0, 20.0 ],
					"fontname" : "Arial",
					"id" : "obj-91",
					"numinlets" : 1,
					"fontsize" : 12.0,
					"numoutlets" : 1
				}

			}
, 			{
				"box" : 				{
					"maxclass" : "newobj",
					"text" : "zl unique",
					"outlettype" : [ "", "" ],
					"hidden" : 1,
					"patching_rect" : [ 894.0, 643.0, 59.0, 20.0 ],
					"fontname" : "Arial",
					"id" : "obj-7",
					"numinlets" : 2,
					"fontsize" : 12.0,
					"numoutlets" : 2
				}

			}
, 			{
				"box" : 				{
					"maxclass" : "button",
					"outlettype" : [ "bang" ],
					"hidden" : 1,
					"patching_rect" : [ 785.0, 402.0, 21.0, 21.0 ],
					"id" : "obj-97",
					"numinlets" : 1,
					"numoutlets" : 1
				}

			}
, 			{
				"box" : 				{
					"maxclass" : "newobj",
					"text" : "getattributedomain #1 #2",
					"outlettype" : [ "" ],
					"hidden" : 1,
					"patching_rect" : [ 784.0, 459.0, 143.0, 20.0 ],
					"fontname" : "Arial",
					"id" : "obj-95",
					"numinlets" : 1,
					"fontsize" : 12.0,
					"numoutlets" : 1
				}

			}
, 			{
				"box" : 				{
					"maxclass" : "comment",
					"text" : "Fill boxes",
					"hidden" : 1,
					"patching_rect" : [ 336.0, 144.0, 62.0, 20.0 ],
					"fontname" : "Arial",
					"id" : "obj-51",
					"numinlets" : 1,
					"fontsize" : 12.0,
					"numoutlets" : 0
				}

			}
, 			{
				"box" : 				{
					"maxclass" : "comment",
					"text" : "Reset boxes",
					"hidden" : 1,
					"patching_rect" : [ 353.0, 397.0, 78.0, 20.0 ],
					"fontname" : "Arial",
					"id" : "obj-50",
					"numinlets" : 1,
					"fontsize" : 12.0,
					"numoutlets" : 0
				}

			}
, 			{
				"box" : 				{
					"maxclass" : "newobj",
					"text" : "p",
					"outlettype" : [ "" ],
					"hidden" : 1,
					"patching_rect" : [ 455.0, 397.0, 42.0, 20.0 ],
					"fontname" : "Arial",
					"id" : "obj-41",
					"numinlets" : 1,
					"fontsize" : 12.0,
					"numoutlets" : 1,
					"patcher" : 					{
						"fileversion" : 1,
						"rect" : [ 25.0, 69.0, 640.0, 480.0 ],
						"bglocked" : 0,
						"defrect" : [ 25.0, 69.0, 640.0, 480.0 ],
						"openrect" : [ 0.0, 0.0, 0.0, 0.0 ],
						"openinpresentation" : 0,
						"default_fontsize" : 12.0,
						"default_fontface" : 0,
						"default_fontname" : "Arial",
						"gridonopen" : 0,
						"gridsize" : [ 15.0, 15.0 ],
						"gridsnaponopen" : 0,
						"toolbarvisible" : 1,
						"boxanimatetime" : 200,
						"imprint" : 0,
						"boxes" : [ 							{
								"box" : 								{
									"maxclass" : "message",
									"text" : "set 0",
									"outlettype" : [ "" ],
									"patching_rect" : [ 50.0, 120.0, 37.0, 18.0 ],
									"fontname" : "Arial",
									"id" : "obj-2",
									"numinlets" : 2,
									"fontsize" : 12.0,
									"numoutlets" : 1
								}

							}
, 							{
								"box" : 								{
									"maxclass" : "newobj",
									"text" : "b",
									"outlettype" : [ "bang", "bang" ],
									"patching_rect" : [ 50.0, 77.0, 61.5, 20.0 ],
									"fontname" : "Arial",
									"id" : "obj-1",
									"numinlets" : 1,
									"fontsize" : 12.0,
									"numoutlets" : 2
								}

							}
, 							{
								"box" : 								{
									"maxclass" : "message",
									"text" : "size 1",
									"outlettype" : [ "" ],
									"patching_rect" : [ 93.0, 118.0, 42.0, 18.0 ],
									"fontname" : "Arial",
									"id" : "obj-209",
									"numinlets" : 2,
									"fontsize" : 12.0,
									"numoutlets" : 1
								}

							}
, 							{
								"box" : 								{
									"maxclass" : "inlet",
									"outlettype" : [ "bang" ],
									"patching_rect" : [ 50.0, 40.0, 25.0, 25.0 ],
									"id" : "obj-39",
									"numinlets" : 0,
									"numoutlets" : 1,
									"comment" : ""
								}

							}
, 							{
								"box" : 								{
									"maxclass" : "outlet",
									"patching_rect" : [ 50.0, 165.0, 25.0, 25.0 ],
									"id" : "obj-40",
									"numinlets" : 1,
									"numoutlets" : 0,
									"comment" : ""
								}

							}
 ],
						"lines" : [ 							{
								"patchline" : 								{
									"source" : [ "obj-1", 0 ],
									"destination" : [ "obj-2", 0 ],
									"hidden" : 0,
									"midpoints" : [  ]
								}

							}
, 							{
								"patchline" : 								{
									"source" : [ "obj-209", 0 ],
									"destination" : [ "obj-40", 0 ],
									"hidden" : 0,
									"midpoints" : [  ]
								}

							}
, 							{
								"patchline" : 								{
									"source" : [ "obj-2", 0 ],
									"destination" : [ "obj-40", 0 ],
									"hidden" : 0,
									"midpoints" : [  ]
								}

							}
, 							{
								"patchline" : 								{
									"source" : [ "obj-1", 1 ],
									"destination" : [ "obj-209", 0 ],
									"hidden" : 0,
									"midpoints" : [  ]
								}

							}
, 							{
								"patchline" : 								{
									"source" : [ "obj-39", 0 ],
									"destination" : [ "obj-1", 0 ],
									"hidden" : 0,
									"midpoints" : [  ]
								}

							}
 ]
					}
,
					"saved_object_attributes" : 					{
						"default_fontface" : 0,
						"fontname" : "Arial",
						"default_fontname" : "Arial",
						"default_fontsize" : 12.0,
						"fontface" : 0,
						"fontsize" : 12.0,
						"globalpatchername" : ""
					}

				}

			}
, 			{
				"box" : 				{
					"maxclass" : "button",
					"outlettype" : [ "bang" ],
					"hidden" : 1,
					"patching_rect" : [ 397.0, 144.0, 20.0, 20.0 ],
					"id" : "obj-10",
					"numinlets" : 1,
					"numoutlets" : 1
				}

			}
, 			{
				"box" : 				{
					"maxclass" : "button",
					"outlettype" : [ "bang" ],
					"hidden" : 1,
					"patching_rect" : [ 430.0, 397.0, 20.0, 20.0 ],
					"id" : "obj-8",
					"numinlets" : 1,
					"numoutlets" : 1
				}

			}
, 			{
				"box" : 				{
					"maxclass" : "newobj",
					"text" : "thispatcher",
					"outlettype" : [ "", "" ],
					"hidden" : 1,
					"patching_rect" : [ 499.0, 429.0, 69.0, 20.0 ],
					"fontname" : "Arial",
					"id" : "obj-1",
					"numinlets" : 1,
					"fontsize" : 12.0,
					"numoutlets" : 2,
					"save" : [ "#N", "thispatcher", ";", "#Q", "end", ";" ]
				}

			}
, 			{
				"box" : 				{
					"maxclass" : "newobj",
					"text" : "p fill_check_boxes",
					"outlettype" : [ "", "" ],
					"hidden" : 1,
					"patching_rect" : [ 499.0, 398.0, 217.0, 20.0 ],
					"fontname" : "Arial",
					"id" : "obj-18",
					"numinlets" : 4,
					"fontsize" : 12.0,
					"numoutlets" : 2,
					"patcher" : 					{
						"fileversion" : 1,
						"rect" : [ 93.0, 232.0, 634.0, 484.0 ],
						"bglocked" : 0,
						"defrect" : [ 93.0, 232.0, 634.0, 484.0 ],
						"openrect" : [ 0.0, 0.0, 0.0, 0.0 ],
						"openinpresentation" : 0,
						"default_fontsize" : 12.0,
						"default_fontface" : 0,
						"default_fontname" : "Arial",
						"gridonopen" : 0,
						"gridsize" : [ 15.0, 15.0 ],
						"gridsnaponopen" : 0,
						"toolbarvisible" : 1,
						"boxanimatetime" : 200,
						"imprint" : 0,
						"boxes" : [ 							{
								"box" : 								{
									"maxclass" : "newobj",
									"text" : "+ 2",
									"outlettype" : [ "int" ],
									"patching_rect" : [ 449.0, 245.0, 32.5, 20.0 ],
									"fontname" : "Arial",
									"id" : "obj-1365",
									"numinlets" : 2,
									"fontsize" : 12.0,
									"numoutlets" : 1
								}

							}
, 							{
								"box" : 								{
									"maxclass" : "newobj",
									"text" : "tosymbol",
									"outlettype" : [ "" ],
									"patching_rect" : [ 536.0, 208.0, 59.0, 20.0 ],
									"fontname" : "Arial",
									"id" : "obj-756",
									"numinlets" : 1,
									"fontsize" : 12.0,
									"numoutlets" : 1
								}

							}
, 							{
								"box" : 								{
									"maxclass" : "newobj",
									"text" : "sprintf label%d set %s",
									"outlettype" : [ "" ],
									"patching_rect" : [ 426.0, 310.0, 129.0, 20.0 ],
									"fontname" : "Arial",
									"id" : "obj-755",
									"numinlets" : 2,
									"fontsize" : 12.0,
									"numoutlets" : 1
								}

							}
, 							{
								"box" : 								{
									"maxclass" : "newobj",
									"text" : "prepend script send",
									"outlettype" : [ "" ],
									"patching_rect" : [ 426.0, 349.0, 116.0, 20.0 ],
									"fontname" : "Arial",
									"id" : "obj-754",
									"numinlets" : 1,
									"fontsize" : 12.0,
									"numoutlets" : 1
								}

							}
, 							{
								"box" : 								{
									"maxclass" : "newobj",
									"text" : "- 1",
									"outlettype" : [ "int" ],
									"patching_rect" : [ 77.0, 281.0, 32.5, 20.0 ],
									"fontname" : "Arial",
									"id" : "obj-449",
									"numinlets" : 2,
									"fontsize" : 12.0,
									"numoutlets" : 1
								}

							}
, 							{
								"box" : 								{
									"maxclass" : "newobj",
									"text" : "prepend script delete",
									"outlettype" : [ "" ],
									"patching_rect" : [ 77.0, 337.0, 123.0, 20.0 ],
									"fontname" : "Arial",
									"id" : "obj-212",
									"numinlets" : 1,
									"fontsize" : 12.0,
									"numoutlets" : 1
								}

							}
, 							{
								"box" : 								{
									"maxclass" : "newobj",
									"text" : "sprintf label%d",
									"outlettype" : [ "" ],
									"patching_rect" : [ 77.0, 309.0, 89.0, 20.0 ],
									"fontname" : "Arial",
									"id" : "obj-211",
									"numinlets" : 1,
									"fontsize" : 12.0,
									"numoutlets" : 1
								}

							}
, 							{
								"box" : 								{
									"maxclass" : "newobj",
									"text" : "uzi 0",
									"outlettype" : [ "bang", "bang", "int" ],
									"patching_rect" : [ 50.0, 253.0, 46.0, 20.0 ],
									"fontname" : "Arial",
									"id" : "obj-210",
									"numinlets" : 2,
									"fontsize" : 12.0,
									"numoutlets" : 3
								}

							}
, 							{
								"box" : 								{
									"maxclass" : "newobj",
									"text" : "prepend script newdefault",
									"outlettype" : [ "" ],
									"patching_rect" : [ 215.0, 312.0, 148.0, 20.0 ],
									"fontname" : "Arial",
									"id" : "obj-39",
									"numinlets" : 1,
									"fontsize" : 12.0,
									"numoutlets" : 1
								}

							}
, 							{
								"box" : 								{
									"maxclass" : "newobj",
									"text" : "t i i i",
									"outlettype" : [ "int", "int", "int" ],
									"patching_rect" : [ 337.0, 178.0, 131.0, 20.0 ],
									"fontname" : "Arial",
									"id" : "obj-37",
									"numinlets" : 1,
									"fontsize" : 12.0,
									"numoutlets" : 3
								}

							}
, 							{
								"box" : 								{
									"maxclass" : "newobj",
									"text" : "sprintf label%d 16 %d comment @fontsize 10",
									"outlettype" : [ "" ],
									"patching_rect" : [ 215.0, 269.0, 253.0, 20.0 ],
									"fontname" : "Arial",
									"id" : "obj-35",
									"numinlets" : 2,
									"fontsize" : 12.0,
									"numoutlets" : 1
								}

							}
, 							{
								"box" : 								{
									"maxclass" : "newobj",
									"text" : "* 15",
									"outlettype" : [ "int" ],
									"patching_rect" : [ 449.0, 220.0, 32.5, 20.0 ],
									"fontname" : "Arial",
									"id" : "obj-34",
									"numinlets" : 2,
									"fontsize" : 12.0,
									"numoutlets" : 1
								}

							}
, 							{
								"box" : 								{
									"maxclass" : "newobj",
									"text" : "zl slice 1",
									"outlettype" : [ "", "" ],
									"patching_rect" : [ 337.0, 134.0, 57.0, 20.0 ],
									"fontname" : "Arial",
									"id" : "obj-33",
									"numinlets" : 2,
									"fontsize" : 12.0,
									"numoutlets" : 2
								}

							}
, 							{
								"box" : 								{
									"maxclass" : "newobj",
									"text" : "listfunnel",
									"outlettype" : [ "list" ],
									"patching_rect" : [ 337.0, 100.0, 58.0, 20.0 ],
									"fontname" : "Arial",
									"id" : "obj-32",
									"numinlets" : 1,
									"fontsize" : 12.0,
									"numoutlets" : 1
								}

							}
, 							{
								"box" : 								{
									"maxclass" : "message",
									"text" : "size $1",
									"outlettype" : [ "" ],
									"patching_rect" : [ 252.0, 103.0, 49.0, 18.0 ],
									"fontname" : "Arial",
									"id" : "obj-15",
									"numinlets" : 2,
									"fontsize" : 12.0,
									"numoutlets" : 1
								}

							}
, 							{
								"box" : 								{
									"maxclass" : "inlet",
									"outlettype" : [ "bang" ],
									"patching_rect" : [ 50.0, 40.0, 25.0, 25.0 ],
									"id" : "obj-8",
									"numinlets" : 0,
									"numoutlets" : 1,
									"comment" : ""
								}

							}
, 							{
								"box" : 								{
									"maxclass" : "inlet",
									"outlettype" : [ "" ],
									"patching_rect" : [ 77.0, 40.0, 25.0, 25.0 ],
									"id" : "obj-10",
									"numinlets" : 0,
									"numoutlets" : 1,
									"comment" : ""
								}

							}
, 							{
								"box" : 								{
									"maxclass" : "inlet",
									"outlettype" : [ "int" ],
									"patching_rect" : [ 252.0, 40.0, 25.0, 25.0 ],
									"id" : "obj-12",
									"numinlets" : 0,
									"numoutlets" : 1,
									"comment" : ""
								}

							}
, 							{
								"box" : 								{
									"maxclass" : "inlet",
									"outlettype" : [ "" ],
									"patching_rect" : [ 337.0, 40.0, 25.0, 25.0 ],
									"id" : "obj-13",
									"numinlets" : 0,
									"numoutlets" : 1,
									"comment" : ""
								}

							}
, 							{
								"box" : 								{
									"maxclass" : "outlet",
									"patching_rect" : [ 215.333313, 430.0, 25.0, 25.0 ],
									"id" : "obj-16",
									"numinlets" : 1,
									"numoutlets" : 0,
									"comment" : ""
								}

							}
, 							{
								"box" : 								{
									"maxclass" : "outlet",
									"patching_rect" : [ 252.0, 429.0, 25.0, 25.0 ],
									"id" : "obj-17",
									"numinlets" : 1,
									"numoutlets" : 0,
									"comment" : ""
								}

							}
 ],
						"lines" : [ 							{
								"patchline" : 								{
									"source" : [ "obj-1365", 0 ],
									"destination" : [ "obj-35", 1 ],
									"hidden" : 0,
									"midpoints" : [  ]
								}

							}
, 							{
								"patchline" : 								{
									"source" : [ "obj-34", 0 ],
									"destination" : [ "obj-1365", 0 ],
									"hidden" : 0,
									"midpoints" : [  ]
								}

							}
, 							{
								"patchline" : 								{
									"source" : [ "obj-35", 0 ],
									"destination" : [ "obj-39", 0 ],
									"hidden" : 0,
									"midpoints" : [  ]
								}

							}
, 							{
								"patchline" : 								{
									"source" : [ "obj-37", 1 ],
									"destination" : [ "obj-35", 0 ],
									"hidden" : 0,
									"midpoints" : [ 402.5, 227.5, 224.5, 227.5 ]
								}

							}
, 							{
								"patchline" : 								{
									"source" : [ "obj-37", 2 ],
									"destination" : [ "obj-34", 0 ],
									"hidden" : 0,
									"midpoints" : [  ]
								}

							}
, 							{
								"patchline" : 								{
									"source" : [ "obj-755", 0 ],
									"destination" : [ "obj-754", 0 ],
									"hidden" : 0,
									"midpoints" : [  ]
								}

							}
, 							{
								"patchline" : 								{
									"source" : [ "obj-37", 0 ],
									"destination" : [ "obj-755", 0 ],
									"hidden" : 0,
									"midpoints" : [ 346.5, 249.0, 435.5, 249.0 ]
								}

							}
, 							{
								"patchline" : 								{
									"source" : [ "obj-33", 0 ],
									"destination" : [ "obj-37", 0 ],
									"hidden" : 0,
									"midpoints" : [  ]
								}

							}
, 							{
								"patchline" : 								{
									"source" : [ "obj-756", 0 ],
									"destination" : [ "obj-755", 1 ],
									"hidden" : 0,
									"midpoints" : [  ]
								}

							}
, 							{
								"patchline" : 								{
									"source" : [ "obj-33", 1 ],
									"destination" : [ "obj-756", 0 ],
									"hidden" : 0,
									"midpoints" : [ 384.5, 167.5, 545.5, 167.5 ]
								}

							}
, 							{
								"patchline" : 								{
									"source" : [ "obj-210", 2 ],
									"destination" : [ "obj-449", 0 ],
									"hidden" : 0,
									"midpoints" : [  ]
								}

							}
, 							{
								"patchline" : 								{
									"source" : [ "obj-449", 0 ],
									"destination" : [ "obj-211", 0 ],
									"hidden" : 0,
									"midpoints" : [  ]
								}

							}
, 							{
								"patchline" : 								{
									"source" : [ "obj-211", 0 ],
									"destination" : [ "obj-212", 0 ],
									"hidden" : 0,
									"midpoints" : [  ]
								}

							}
, 							{
								"patchline" : 								{
									"source" : [ "obj-32", 0 ],
									"destination" : [ "obj-33", 0 ],
									"hidden" : 0,
									"midpoints" : [  ]
								}

							}
, 							{
								"patchline" : 								{
									"source" : [ "obj-8", 0 ],
									"destination" : [ "obj-210", 0 ],
									"hidden" : 0,
									"midpoints" : [  ]
								}

							}
, 							{
								"patchline" : 								{
									"source" : [ "obj-10", 0 ],
									"destination" : [ "obj-210", 1 ],
									"hidden" : 0,
									"midpoints" : [  ]
								}

							}
, 							{
								"patchline" : 								{
									"source" : [ "obj-12", 0 ],
									"destination" : [ "obj-15", 0 ],
									"hidden" : 0,
									"midpoints" : [  ]
								}

							}
, 							{
								"patchline" : 								{
									"source" : [ "obj-13", 0 ],
									"destination" : [ "obj-32", 0 ],
									"hidden" : 0,
									"midpoints" : [  ]
								}

							}
, 							{
								"patchline" : 								{
									"source" : [ "obj-212", 0 ],
									"destination" : [ "obj-16", 0 ],
									"hidden" : 0,
									"midpoints" : [  ]
								}

							}
, 							{
								"patchline" : 								{
									"source" : [ "obj-39", 0 ],
									"destination" : [ "obj-16", 0 ],
									"hidden" : 0,
									"midpoints" : [  ]
								}

							}
, 							{
								"patchline" : 								{
									"source" : [ "obj-754", 0 ],
									"destination" : [ "obj-16", 0 ],
									"hidden" : 0,
									"midpoints" : [  ]
								}

							}
, 							{
								"patchline" : 								{
									"source" : [ "obj-15", 0 ],
									"destination" : [ "obj-17", 0 ],
									"hidden" : 0,
									"midpoints" : [  ]
								}

							}
 ]
					}
,
					"saved_object_attributes" : 					{
						"default_fontface" : 0,
						"fontname" : "Arial",
						"default_fontname" : "Arial",
						"default_fontsize" : 12.0,
						"fontface" : 0,
						"fontsize" : 12.0,
						"globalpatchername" : ""
					}

				}

			}
, 			{
				"box" : 				{
					"maxclass" : "newobj",
					"text" : "t refresh",
					"outlettype" : [ "refresh" ],
					"hidden" : 1,
					"patching_rect" : [ 1021.0, 273.0, 55.0, 20.0 ],
					"fontname" : "Arial",
					"id" : "obj-3",
					"numinlets" : 1,
					"fontsize" : 12.0,
					"numoutlets" : 1
				}

			}
, 			{
				"box" : 				{
					"maxclass" : "inlet",
					"outlettype" : [ "" ],
					"hidden" : 1,
					"patching_rect" : [ 453.0, -190.0, 25.0, 25.0 ],
					"id" : "obj-28",
					"numinlets" : 0,
					"numoutlets" : 1,
					"comment" : ""
				}

			}
, 			{
				"box" : 				{
					"maxclass" : "outlet",
					"hidden" : 1,
					"patching_rect" : [ 0.0, 642.0, 25.0, 25.0 ],
					"id" : "obj-2228",
					"numinlets" : 1,
					"numoutlets" : 0,
					"comment" : ""
				}

			}
, 			{
				"box" : 				{
					"maxclass" : "outlet",
					"hidden" : 1,
					"patching_rect" : [ 1247.0, 535.0, 25.0, 25.0 ],
					"id" : "obj-2227",
					"numinlets" : 1,
					"numoutlets" : 0,
					"comment" : ""
				}

			}
, 			{
				"box" : 				{
					"maxclass" : "newobj",
					"text" : "gate 1 1",
					"outlettype" : [ "" ],
					"hidden" : 1,
					"patching_rect" : [ 452.0, 124.0, 112.0, 20.0 ],
					"fontname" : "Arial",
					"id" : "obj-2225",
					"numinlets" : 2,
					"fontsize" : 12.0,
					"numoutlets" : 1
				}

			}
, 			{
				"box" : 				{
					"maxclass" : "newobj",
					"text" : "route refresh all none synchro apply",
					"outlettype" : [ "", "", "", "", "", "" ],
					"hidden" : 1,
					"patching_rect" : [ 452.0, -73.0, 584.0, 20.0 ],
					"fontname" : "Arial",
					"id" : "obj-2224",
					"numinlets" : 1,
					"fontsize" : 12.0,
					"numoutlets" : 6
				}

			}
, 			{
				"box" : 				{
					"maxclass" : "button",
					"outlettype" : [ "bang" ],
					"hidden" : 1,
					"patching_rect" : [ 607.0, -177.0, 20.0, 20.0 ],
					"id" : "obj-2071",
					"numinlets" : 1,
					"numoutlets" : 1
				}

			}
, 			{
				"box" : 				{
					"maxclass" : "button",
					"outlettype" : [ "bang" ],
					"hidden" : 1,
					"patching_rect" : [ 607.0, -229.0, 20.0, 20.0 ],
					"id" : "obj-2070",
					"numinlets" : 1,
					"numoutlets" : 1
				}

			}
, 			{
				"box" : 				{
					"maxclass" : "newobj",
					"text" : "p zeros",
					"outlettype" : [ "" ],
					"hidden" : 1,
					"patching_rect" : [ 607.0, -202.0, 61.0, 20.0 ],
					"fontname" : "Arial",
					"id" : "obj-2069",
					"numinlets" : 1,
					"fontsize" : 12.0,
					"numoutlets" : 1,
					"patcher" : 					{
						"fileversion" : 1,
						"rect" : [ 638.0, 433.0, 333.0, 412.0 ],
						"bglocked" : 0,
						"defrect" : [ 638.0, 433.0, 333.0, 412.0 ],
						"openrect" : [ 0.0, 0.0, 0.0, 0.0 ],
						"openinpresentation" : 0,
						"default_fontsize" : 12.0,
						"default_fontface" : 0,
						"default_fontname" : "Arial",
						"gridonopen" : 0,
						"gridsize" : [ 15.0, 15.0 ],
						"gridsnaponopen" : 0,
						"toolbarvisible" : 1,
						"boxanimatetime" : 200,
						"imprint" : 0,
						"boxes" : [ 							{
								"box" : 								{
									"maxclass" : "newobj",
									"text" : "route int bang",
									"outlettype" : [ "", "", "" ],
									"patching_rect" : [ 18.0, 49.0, 84.0, 20.0 ],
									"fontname" : "Arial",
									"id" : "obj-2",
									"numinlets" : 1,
									"fontsize" : 12.0,
									"numoutlets" : 3
								}

							}
, 							{
								"box" : 								{
									"maxclass" : "outlet",
									"patching_rect" : [ 30.0, 317.0, 25.0, 25.0 ],
									"id" : "obj-13",
									"numinlets" : 1,
									"numoutlets" : 0,
									"comment" : ""
								}

							}
, 							{
								"box" : 								{
									"maxclass" : "inlet",
									"outlettype" : [ "int" ],
									"patching_rect" : [ 71.0, 7.0, 25.0, 25.0 ],
									"id" : "obj-12",
									"numinlets" : 0,
									"numoutlets" : 1,
									"comment" : ""
								}

							}
, 							{
								"box" : 								{
									"maxclass" : "message",
									"text" : "0 0 0 0 0 0 0 0 0",
									"outlettype" : [ "" ],
									"patching_rect" : [ 63.0, 311.0, 179.0, 18.0 ],
									"fontname" : "Arial",
									"id" : "obj-7",
									"numinlets" : 2,
									"fontsize" : 12.0,
									"numoutlets" : 1
								}

							}
, 							{
								"box" : 								{
									"maxclass" : "number",
									"outlettype" : [ "int", "bang" ],
									"patching_rect" : [ 84.0, 98.0, 50.0, 20.0 ],
									"fontname" : "Arial",
									"id" : "obj-5",
									"numinlets" : 1,
									"fontsize" : 12.0,
									"numoutlets" : 2
								}

							}
, 							{
								"box" : 								{
									"maxclass" : "newobj",
									"text" : "t 0",
									"outlettype" : [ "int" ],
									"patching_rect" : [ 30.0, 207.0, 24.0, 20.0 ],
									"fontname" : "Arial",
									"id" : "obj-4",
									"numinlets" : 1,
									"fontsize" : 12.0,
									"numoutlets" : 1
								}

							}
, 							{
								"box" : 								{
									"maxclass" : "newobj",
									"text" : "uzi 0",
									"outlettype" : [ "bang", "bang", "int" ],
									"patching_rect" : [ 82.0, 166.0, 46.0, 20.0 ],
									"fontname" : "Arial",
									"id" : "obj-3",
									"numinlets" : 2,
									"fontsize" : 12.0,
									"numoutlets" : 3
								}

							}
, 							{
								"box" : 								{
									"maxclass" : "newobj",
									"text" : "t b i i b",
									"outlettype" : [ "bang", "int", "int", "bang" ],
									"patching_rect" : [ 84.0, 130.0, 100.5, 20.0 ],
									"fontname" : "Arial",
									"id" : "obj-1",
									"numinlets" : 1,
									"fontsize" : 12.0,
									"numoutlets" : 4
								}

							}
, 							{
								"box" : 								{
									"maxclass" : "message",
									"text" : "zlclear",
									"outlettype" : [ "" ],
									"patching_rect" : [ 159.0, 172.0, 49.0, 18.0 ],
									"fontname" : "Arial",
									"id" : "obj-1987",
									"numinlets" : 2,
									"fontsize" : 12.0,
									"numoutlets" : 1
								}

							}
, 							{
								"box" : 								{
									"maxclass" : "newobj",
									"text" : "zl stream",
									"outlettype" : [ "", "" ],
									"patching_rect" : [ 30.0, 235.0, 93.0, 20.0 ],
									"fontname" : "Arial",
									"id" : "obj-1982",
									"numinlets" : 2,
									"fontsize" : 12.0,
									"numoutlets" : 2
								}

							}
 ],
						"lines" : [ 							{
								"patchline" : 								{
									"source" : [ "obj-1982", 0 ],
									"destination" : [ "obj-13", 0 ],
									"hidden" : 0,
									"midpoints" : [  ]
								}

							}
, 							{
								"patchline" : 								{
									"source" : [ "obj-1982", 0 ],
									"destination" : [ "obj-7", 1 ],
									"hidden" : 0,
									"midpoints" : [  ]
								}

							}
, 							{
								"patchline" : 								{
									"source" : [ "obj-1987", 0 ],
									"destination" : [ "obj-1982", 0 ],
									"hidden" : 0,
									"midpoints" : [  ]
								}

							}
, 							{
								"patchline" : 								{
									"source" : [ "obj-1", 3 ],
									"destination" : [ "obj-1987", 0 ],
									"hidden" : 0,
									"midpoints" : [  ]
								}

							}
, 							{
								"patchline" : 								{
									"source" : [ "obj-1", 2 ],
									"destination" : [ "obj-1982", 1 ],
									"hidden" : 0,
									"midpoints" : [  ]
								}

							}
, 							{
								"patchline" : 								{
									"source" : [ "obj-1", 1 ],
									"destination" : [ "obj-3", 1 ],
									"hidden" : 0,
									"midpoints" : [  ]
								}

							}
, 							{
								"patchline" : 								{
									"source" : [ "obj-5", 0 ],
									"destination" : [ "obj-1", 0 ],
									"hidden" : 0,
									"midpoints" : [  ]
								}

							}
, 							{
								"patchline" : 								{
									"source" : [ "obj-12", 0 ],
									"destination" : [ "obj-2", 0 ],
									"hidden" : 0,
									"midpoints" : [  ]
								}

							}
, 							{
								"patchline" : 								{
									"source" : [ "obj-4", 0 ],
									"destination" : [ "obj-1982", 0 ],
									"hidden" : 0,
									"midpoints" : [  ]
								}

							}
, 							{
								"patchline" : 								{
									"source" : [ "obj-3", 2 ],
									"destination" : [ "obj-4", 0 ],
									"hidden" : 0,
									"midpoints" : [  ]
								}

							}
, 							{
								"patchline" : 								{
									"source" : [ "obj-2", 1 ],
									"destination" : [ "obj-3", 0 ],
									"hidden" : 0,
									"midpoints" : [  ]
								}

							}
, 							{
								"patchline" : 								{
									"source" : [ "obj-2", 0 ],
									"destination" : [ "obj-5", 0 ],
									"hidden" : 0,
									"midpoints" : [  ]
								}

							}
, 							{
								"patchline" : 								{
									"source" : [ "obj-1", 0 ],
									"destination" : [ "obj-3", 0 ],
									"hidden" : 0,
									"midpoints" : [  ]
								}

							}
 ]
					}
,
					"saved_object_attributes" : 					{
						"default_fontface" : 0,
						"fontname" : "Arial",
						"default_fontname" : "Arial",
						"default_fontsize" : 12.0,
						"fontface" : 0,
						"fontsize" : 12.0,
						"globalpatchername" : ""
					}

				}

			}
, 			{
				"box" : 				{
					"maxclass" : "newobj",
					"text" : "t i i",
					"outlettype" : [ "int", "int" ],
					"hidden" : 1,
					"patching_rect" : [ 607.0, 321.0, 42.5, 20.0 ],
					"fontname" : "Arial",
					"id" : "obj-1990",
					"numinlets" : 1,
					"fontsize" : 12.0,
					"numoutlets" : 2
				}

			}
, 			{
				"box" : 				{
					"maxclass" : "newobj",
					"text" : "p ones",
					"outlettype" : [ "" ],
					"hidden" : 1,
					"patching_rect" : [ 607.0, -148.0, 58.0, 20.0 ],
					"fontname" : "Arial",
					"id" : "obj-1989",
					"numinlets" : 1,
					"fontsize" : 12.0,
					"numoutlets" : 1,
					"patcher" : 					{
						"fileversion" : 1,
						"rect" : [ 638.0, 433.0, 353.0, 424.0 ],
						"bglocked" : 0,
						"defrect" : [ 638.0, 433.0, 353.0, 424.0 ],
						"openrect" : [ 0.0, 0.0, 0.0, 0.0 ],
						"openinpresentation" : 0,
						"default_fontsize" : 12.0,
						"default_fontface" : 0,
						"default_fontname" : "Arial",
						"gridonopen" : 0,
						"gridsize" : [ 15.0, 15.0 ],
						"gridsnaponopen" : 0,
						"toolbarvisible" : 1,
						"boxanimatetime" : 200,
						"imprint" : 0,
						"boxes" : [ 							{
								"box" : 								{
									"maxclass" : "newobj",
									"text" : "route int bang",
									"outlettype" : [ "", "", "" ],
									"patching_rect" : [ 20.0, 77.0, 84.0, 20.0 ],
									"fontname" : "Arial",
									"id" : "obj-14",
									"numinlets" : 1,
									"fontsize" : 12.0,
									"numoutlets" : 3
								}

							}
, 							{
								"box" : 								{
									"maxclass" : "outlet",
									"patching_rect" : [ 71.0, 346.0, 25.0, 25.0 ],
									"id" : "obj-13",
									"numinlets" : 1,
									"numoutlets" : 0,
									"comment" : ""
								}

							}
, 							{
								"box" : 								{
									"maxclass" : "inlet",
									"outlettype" : [ "int" ],
									"patching_rect" : [ 92.0, 35.0, 25.0, 25.0 ],
									"id" : "obj-12",
									"numinlets" : 0,
									"numoutlets" : 1,
									"comment" : ""
								}

							}
, 							{
								"box" : 								{
									"maxclass" : "message",
									"text" : "1 1 1 1 1 1 1 1",
									"outlettype" : [ "" ],
									"patching_rect" : [ 104.0, 340.0, 179.0, 18.0 ],
									"fontname" : "Arial",
									"id" : "obj-7",
									"numinlets" : 2,
									"fontsize" : 12.0,
									"numoutlets" : 1
								}

							}
, 							{
								"box" : 								{
									"maxclass" : "number",
									"outlettype" : [ "int", "bang" ],
									"patching_rect" : [ 125.0, 127.0, 50.0, 20.0 ],
									"fontname" : "Arial",
									"id" : "obj-5",
									"numinlets" : 1,
									"fontsize" : 12.0,
									"numoutlets" : 2
								}

							}
, 							{
								"box" : 								{
									"maxclass" : "newobj",
									"text" : "t 1",
									"outlettype" : [ "int" ],
									"patching_rect" : [ 71.0, 236.0, 24.0, 20.0 ],
									"fontname" : "Arial",
									"id" : "obj-4",
									"numinlets" : 1,
									"fontsize" : 12.0,
									"numoutlets" : 1
								}

							}
, 							{
								"box" : 								{
									"maxclass" : "newobj",
									"text" : "uzi 0",
									"outlettype" : [ "bang", "bang", "int" ],
									"patching_rect" : [ 125.0, 202.0, 46.0, 20.0 ],
									"fontname" : "Arial",
									"id" : "obj-3",
									"numinlets" : 2,
									"fontsize" : 12.0,
									"numoutlets" : 3
								}

							}
, 							{
								"box" : 								{
									"maxclass" : "newobj",
									"text" : "t b i i b",
									"outlettype" : [ "bang", "int", "int", "bang" ],
									"patching_rect" : [ 125.0, 159.0, 99.5, 20.0 ],
									"fontname" : "Arial",
									"id" : "obj-1",
									"numinlets" : 1,
									"fontsize" : 12.0,
									"numoutlets" : 4
								}

							}
, 							{
								"box" : 								{
									"maxclass" : "message",
									"text" : "zlclear",
									"outlettype" : [ "" ],
									"patching_rect" : [ 206.0, 219.0, 49.0, 18.0 ],
									"fontname" : "Arial",
									"id" : "obj-1987",
									"numinlets" : 2,
									"fontsize" : 12.0,
									"numoutlets" : 1
								}

							}
, 							{
								"box" : 								{
									"maxclass" : "newobj",
									"text" : "zl stream",
									"outlettype" : [ "", "" ],
									"patching_rect" : [ 71.0, 264.0, 127.0, 20.0 ],
									"fontname" : "Arial",
									"id" : "obj-1982",
									"numinlets" : 2,
									"fontsize" : 12.0,
									"numoutlets" : 2
								}

							}
 ],
						"lines" : [ 							{
								"patchline" : 								{
									"source" : [ "obj-1987", 0 ],
									"destination" : [ "obj-1982", 0 ],
									"hidden" : 0,
									"midpoints" : [  ]
								}

							}
, 							{
								"patchline" : 								{
									"source" : [ "obj-1", 3 ],
									"destination" : [ "obj-1987", 0 ],
									"hidden" : 0,
									"midpoints" : [  ]
								}

							}
, 							{
								"patchline" : 								{
									"source" : [ "obj-1", 2 ],
									"destination" : [ "obj-1982", 1 ],
									"hidden" : 0,
									"midpoints" : [  ]
								}

							}
, 							{
								"patchline" : 								{
									"source" : [ "obj-1", 1 ],
									"destination" : [ "obj-3", 1 ],
									"hidden" : 0,
									"midpoints" : [  ]
								}

							}
, 							{
								"patchline" : 								{
									"source" : [ "obj-4", 0 ],
									"destination" : [ "obj-1982", 0 ],
									"hidden" : 0,
									"midpoints" : [  ]
								}

							}
, 							{
								"patchline" : 								{
									"source" : [ "obj-5", 0 ],
									"destination" : [ "obj-1", 0 ],
									"hidden" : 0,
									"midpoints" : [  ]
								}

							}
, 							{
								"patchline" : 								{
									"source" : [ "obj-1982", 0 ],
									"destination" : [ "obj-7", 1 ],
									"hidden" : 0,
									"midpoints" : [  ]
								}

							}
, 							{
								"patchline" : 								{
									"source" : [ "obj-3", 2 ],
									"destination" : [ "obj-4", 0 ],
									"hidden" : 0,
									"midpoints" : [  ]
								}

							}
, 							{
								"patchline" : 								{
									"source" : [ "obj-1982", 0 ],
									"destination" : [ "obj-13", 0 ],
									"hidden" : 0,
									"midpoints" : [  ]
								}

							}
, 							{
								"patchline" : 								{
									"source" : [ "obj-12", 0 ],
									"destination" : [ "obj-14", 0 ],
									"hidden" : 0,
									"midpoints" : [  ]
								}

							}
, 							{
								"patchline" : 								{
									"source" : [ "obj-14", 0 ],
									"destination" : [ "obj-5", 0 ],
									"hidden" : 0,
									"midpoints" : [  ]
								}

							}
, 							{
								"patchline" : 								{
									"source" : [ "obj-14", 1 ],
									"destination" : [ "obj-3", 0 ],
									"hidden" : 0,
									"midpoints" : [  ]
								}

							}
 ]
					}
,
					"saved_object_attributes" : 					{
						"default_fontface" : 0,
						"fontname" : "Arial",
						"default_fontname" : "Arial",
						"default_fontsize" : 12.0,
						"fontface" : 0,
						"fontsize" : 12.0,
						"globalpatchername" : ""
					}

				}

			}
, 			{
				"box" : 				{
					"maxclass" : "newobj",
					"text" : "b",
					"outlettype" : [ "bang", "bang" ],
					"hidden" : 1,
					"patching_rect" : [ 452.0, 186.0, 65.5, 20.0 ],
					"fontname" : "Arial",
					"id" : "obj-833",
					"numinlets" : 1,
					"fontsize" : 12.0,
					"numoutlets" : 2
				}

			}
, 			{
				"box" : 				{
					"maxclass" : "newobj",
					"text" : "zl len",
					"outlettype" : [ "", "" ],
					"hidden" : 1,
					"patching_rect" : [ 565.0, 282.0, 39.0, 20.0 ],
					"fontname" : "Arial",
					"id" : "obj-14",
					"numinlets" : 2,
					"fontsize" : 12.0,
					"numoutlets" : 2
				}

			}
, 			{
				"box" : 				{
					"maxclass" : "newobj",
					"text" : "gettypedvalues #1 #2 #3",
					"outlettype" : [ "clear", "", "" ],
					"hidden" : 1,
					"patching_rect" : [ 452.0, 210.0, 264.0, 20.0 ],
					"fontname" : "Arial",
					"id" : "obj-9",
					"numinlets" : 2,
					"fontsize" : 12.0,
					"numoutlets" : 3
				}

			}
, 			{
				"box" : 				{
					"maxclass" : "radiogroup",
					"outlettype" : [ "" ],
					"patching_rect" : [ 0.0, 1.0, 18.0, 17.0 ],
					"id" : "obj-6",
					"numinlets" : 1,
					"numoutlets" : 1,
					"offset" : 15,
					"itemtype" : 1,
					"size" : 1,
					"values" : [ 0 ],
					"disabled" : [ 0 ]
				}

			}
 ],
		"lines" : [ 			{
				"patchline" : 				{
					"source" : [ "obj-9", 2 ],
					"destination" : [ "obj-14", 0 ],
					"hidden" : 1,
					"midpoints" : [  ]
				}

			}
, 			{
				"patchline" : 				{
					"source" : [ "obj-833", 0 ],
					"destination" : [ "obj-9", 0 ],
					"hidden" : 1,
					"midpoints" : [  ]
				}

			}
, 			{
				"patchline" : 				{
					"source" : [ "obj-9", 2 ],
					"destination" : [ "obj-18", 3 ],
					"hidden" : 1,
					"midpoints" : [  ]
				}

			}
, 			{
				"patchline" : 				{
					"source" : [ "obj-9", 2 ],
					"destination" : [ "obj-133", 1 ],
					"hidden" : 1,
					"midpoints" : [  ]
				}

			}
, 			{
				"patchline" : 				{
					"source" : [ "obj-9", 1 ],
					"destination" : [ "obj-3", 0 ],
					"hidden" : 1,
					"midpoints" : [  ]
				}

			}
, 			{
				"patchline" : 				{
					"source" : [ "obj-9", 0 ],
					"destination" : [ "obj-184", 0 ],
					"hidden" : 1,
					"midpoints" : [  ]
				}

			}
, 			{
				"patchline" : 				{
					"source" : [ "obj-4", 0 ],
					"destination" : [ "obj-177", 0 ],
					"hidden" : 1,
					"midpoints" : [  ]
				}

			}
, 			{
				"patchline" : 				{
					"source" : [ "obj-150", 2 ],
					"destination" : [ "obj-4", 0 ],
					"hidden" : 1,
					"midpoints" : [  ]
				}

			}
, 			{
				"patchline" : 				{
					"source" : [ "obj-150", 0 ],
					"destination" : [ "obj-133", 0 ],
					"hidden" : 1,
					"midpoints" : [  ]
				}

			}
, 			{
				"patchline" : 				{
					"source" : [ "obj-150", 1 ],
					"destination" : [ "obj-7", 1 ],
					"hidden" : 1,
					"midpoints" : [  ]
				}

			}
, 			{
				"patchline" : 				{
					"source" : [ "obj-8", 0 ],
					"destination" : [ "obj-18", 0 ],
					"hidden" : 1,
					"midpoints" : [  ]
				}

			}
, 			{
				"patchline" : 				{
					"source" : [ "obj-8", 0 ],
					"destination" : [ "obj-41", 0 ],
					"hidden" : 1,
					"midpoints" : [  ]
				}

			}
, 			{
				"patchline" : 				{
					"source" : [ "obj-833", 1 ],
					"destination" : [ "obj-41", 0 ],
					"hidden" : 1,
					"midpoints" : [  ]
				}

			}
, 			{
				"patchline" : 				{
					"source" : [ "obj-41", 0 ],
					"destination" : [ "obj-6", 0 ],
					"hidden" : 1,
					"midpoints" : [  ]
				}

			}
, 			{
				"patchline" : 				{
					"source" : [ "obj-2225", 0 ],
					"destination" : [ "obj-833", 0 ],
					"hidden" : 1,
					"midpoints" : [  ]
				}

			}
, 			{
				"patchline" : 				{
					"source" : [ "obj-833", 1 ],
					"destination" : [ "obj-18", 0 ],
					"hidden" : 1,
					"midpoints" : [  ]
				}

			}
, 			{
				"patchline" : 				{
					"source" : [ "obj-14", 0 ],
					"destination" : [ "obj-18", 1 ],
					"hidden" : 1,
					"midpoints" : [  ]
				}

			}
, 			{
				"patchline" : 				{
					"source" : [ "obj-1990", 1 ],
					"destination" : [ "obj-18", 2 ],
					"hidden" : 1,
					"midpoints" : [  ]
				}

			}
, 			{
				"patchline" : 				{
					"source" : [ "obj-18", 1 ],
					"destination" : [ "obj-6", 0 ],
					"hidden" : 1,
					"midpoints" : [  ]
				}

			}
, 			{
				"patchline" : 				{
					"source" : [ "obj-14", 0 ],
					"destination" : [ "obj-1990", 0 ],
					"hidden" : 1,
					"midpoints" : [  ]
				}

			}
, 			{
				"patchline" : 				{
					"source" : [ "obj-1990", 0 ],
					"destination" : [ "obj-1989", 0 ],
					"hidden" : 1,
					"midpoints" : [  ]
				}

			}
, 			{
				"patchline" : 				{
					"source" : [ "obj-1990", 0 ],
					"destination" : [ "obj-2069", 0 ],
					"hidden" : 1,
					"midpoints" : [  ]
				}

			}
, 			{
				"patchline" : 				{
					"source" : [ "obj-2071", 0 ],
					"destination" : [ "obj-1989", 0 ],
					"hidden" : 1,
					"midpoints" : [  ]
				}

			}
, 			{
				"patchline" : 				{
					"source" : [ "obj-2070", 0 ],
					"destination" : [ "obj-2069", 0 ],
					"hidden" : 1,
					"midpoints" : [  ]
				}

			}
, 			{
				"patchline" : 				{
					"source" : [ "obj-6", 0 ],
					"destination" : [ "obj-2228", 0 ],
					"hidden" : 1,
					"midpoints" : [  ]
				}

			}
, 			{
				"patchline" : 				{
					"source" : [ "obj-2069", 0 ],
					"destination" : [ "obj-6", 0 ],
					"hidden" : 1,
					"midpoints" : [  ]
				}

			}
, 			{
				"patchline" : 				{
					"source" : [ "obj-1989", 0 ],
					"destination" : [ "obj-6", 0 ],
					"hidden" : 1,
					"midpoints" : [  ]
				}

			}
, 			{
				"patchline" : 				{
					"source" : [ "obj-18", 0 ],
					"destination" : [ "obj-1", 0 ],
					"hidden" : 1,
					"midpoints" : [  ]
				}

			}
, 			{
				"patchline" : 				{
					"source" : [ "obj-10", 0 ],
					"destination" : [ "obj-833", 0 ],
					"hidden" : 1,
					"midpoints" : [  ]
				}

			}
, 			{
				"patchline" : 				{
					"source" : [ "obj-133", 0 ],
					"destination" : [ "obj-151", 0 ],
					"hidden" : 1,
					"midpoints" : [  ]
				}

			}
, 			{
				"patchline" : 				{
					"source" : [ "obj-151", 0 ],
					"destination" : [ "obj-152", 0 ],
					"hidden" : 1,
					"midpoints" : [  ]
				}

			}
, 			{
				"patchline" : 				{
					"source" : [ "obj-152", 1 ],
					"destination" : [ "obj-156", 1 ],
					"hidden" : 1,
					"midpoints" : [  ]
				}

			}
, 			{
				"patchline" : 				{
					"source" : [ "obj-156", 0 ],
					"destination" : [ "obj-7", 0 ],
					"hidden" : 1,
					"midpoints" : [  ]
				}

			}
, 			{
				"patchline" : 				{
					"source" : [ "obj-152", 0 ],
					"destination" : [ "obj-159", 0 ],
					"hidden" : 1,
					"midpoints" : [  ]
				}

			}
, 			{
				"patchline" : 				{
					"source" : [ "obj-157", 1 ],
					"destination" : [ "obj-159", 1 ],
					"hidden" : 1,
					"midpoints" : [  ]
				}

			}
, 			{
				"patchline" : 				{
					"source" : [ "obj-157", 0 ],
					"destination" : [ "obj-156", 0 ],
					"hidden" : 1,
					"midpoints" : [  ]
				}

			}
, 			{
				"patchline" : 				{
					"source" : [ "obj-152", 1 ],
					"destination" : [ "obj-157", 0 ],
					"hidden" : 1,
					"midpoints" : [  ]
				}

			}
, 			{
				"patchline" : 				{
					"source" : [ "obj-91", 0 ],
					"destination" : [ "obj-159", 1 ],
					"hidden" : 1,
					"midpoints" : [  ]
				}

			}
, 			{
				"patchline" : 				{
					"source" : [ "obj-7", 0 ],
					"destination" : [ "obj-91", 0 ],
					"hidden" : 1,
					"midpoints" : [  ]
				}

			}
, 			{
				"patchline" : 				{
					"source" : [ "obj-159", 0 ],
					"destination" : [ "obj-160", 0 ],
					"hidden" : 1,
					"midpoints" : [  ]
				}

			}
, 			{
				"patchline" : 				{
					"source" : [ "obj-160", 1 ],
					"destination" : [ "obj-177", 0 ],
					"hidden" : 1,
					"midpoints" : [  ]
				}

			}
, 			{
				"patchline" : 				{
					"source" : [ "obj-14", 0 ],
					"destination" : [ "obj-177", 1 ],
					"hidden" : 1,
					"midpoints" : [  ]
				}

			}
, 			{
				"patchline" : 				{
					"source" : [ "obj-351", 0 ],
					"destination" : [ "obj-2227", 0 ],
					"hidden" : 1,
					"midpoints" : [  ]
				}

			}
, 			{
				"patchline" : 				{
					"source" : [ "obj-3", 0 ],
					"destination" : [ "obj-2227", 0 ],
					"hidden" : 1,
					"midpoints" : [  ]
				}

			}
, 			{
				"patchline" : 				{
					"source" : [ "obj-261", 0 ],
					"destination" : [ "obj-263", 0 ],
					"hidden" : 1,
					"midpoints" : [  ]
				}

			}
, 			{
				"patchline" : 				{
					"source" : [ "obj-6", 0 ],
					"destination" : [ "obj-263", 1 ],
					"hidden" : 1,
					"midpoints" : [  ]
				}

			}
, 			{
				"patchline" : 				{
					"source" : [ "obj-177", 0 ],
					"destination" : [ "obj-6", 0 ],
					"hidden" : 1,
					"midpoints" : [  ]
				}

			}
, 			{
				"patchline" : 				{
					"source" : [ "obj-264", 0 ],
					"destination" : [ "obj-265", 0 ],
					"hidden" : 1,
					"midpoints" : [  ]
				}

			}
, 			{
				"patchline" : 				{
					"source" : [ "obj-265", 1 ],
					"destination" : [ "obj-266", 0 ],
					"hidden" : 1,
					"midpoints" : [  ]
				}

			}
, 			{
				"patchline" : 				{
					"source" : [ "obj-265", 0 ],
					"destination" : [ "obj-266", 1 ],
					"hidden" : 1,
					"midpoints" : [  ]
				}

			}
, 			{
				"patchline" : 				{
					"source" : [ "obj-266", 0 ],
					"destination" : [ "obj-184", 0 ],
					"hidden" : 1,
					"midpoints" : [  ]
				}

			}
, 			{
				"patchline" : 				{
					"source" : [ "obj-263", 0 ],
					"destination" : [ "obj-269", 0 ],
					"hidden" : 1,
					"midpoints" : [  ]
				}

			}
, 			{
				"patchline" : 				{
					"source" : [ "obj-269", 1 ],
					"destination" : [ "obj-264", 0 ],
					"hidden" : 1,
					"midpoints" : [  ]
				}

			}
, 			{
				"patchline" : 				{
					"source" : [ "obj-269", 2 ],
					"destination" : [ "obj-270", 0 ],
					"hidden" : 1,
					"midpoints" : [  ]
				}

			}
, 			{
				"patchline" : 				{
					"source" : [ "obj-184", 1 ],
					"destination" : [ "obj-271", 0 ],
					"hidden" : 1,
					"midpoints" : [  ]
				}

			}
, 			{
				"patchline" : 				{
					"source" : [ "obj-271", 0 ],
					"destination" : [ "obj-270", 0 ],
					"hidden" : 1,
					"midpoints" : [  ]
				}

			}
, 			{
				"patchline" : 				{
					"source" : [ "obj-269", 0 ],
					"destination" : [ "obj-270", 0 ],
					"hidden" : 1,
					"midpoints" : [ 390.5, 630.0 ]
				}

			}
, 			{
				"patchline" : 				{
					"source" : [ "obj-177", 0 ],
					"destination" : [ "obj-351", 0 ],
					"hidden" : 1,
					"midpoints" : [  ]
				}

			}
, 			{
				"patchline" : 				{
					"source" : [ "obj-354", 0 ],
					"destination" : [ "obj-273", 0 ],
					"hidden" : 1,
					"midpoints" : [  ]
				}

			}
, 			{
				"patchline" : 				{
					"source" : [ "obj-360", 0 ],
					"destination" : [ "obj-2227", 0 ],
					"hidden" : 1,
					"midpoints" : [  ]
				}

			}
, 			{
				"patchline" : 				{
					"source" : [ "obj-2224", 3 ],
					"destination" : [ "obj-97", 0 ],
					"hidden" : 1,
					"midpoints" : [  ]
				}

			}
, 			{
				"patchline" : 				{
					"source" : [ "obj-28", 0 ],
					"destination" : [ "obj-2224", 0 ],
					"hidden" : 1,
					"midpoints" : [  ]
				}

			}
, 			{
				"patchline" : 				{
					"source" : [ "obj-2224", 2 ],
					"destination" : [ "obj-2070", 0 ],
					"hidden" : 1,
					"midpoints" : [  ]
				}

			}
, 			{
				"patchline" : 				{
					"source" : [ "obj-2224", 1 ],
					"destination" : [ "obj-2071", 0 ],
					"hidden" : 1,
					"midpoints" : [  ]
				}

			}
, 			{
				"patchline" : 				{
					"source" : [ "obj-2224", 0 ],
					"destination" : [ "obj-2225", 0 ],
					"hidden" : 1,
					"midpoints" : [  ]
				}

			}
, 			{
				"patchline" : 				{
					"source" : [ "obj-2224", 4 ],
					"destination" : [ "obj-261", 0 ],
					"hidden" : 1,
					"midpoints" : [ 913.5, 94.0, 123.5, 94.0 ]
				}

			}
, 			{
				"patchline" : 				{
					"source" : [ "obj-357", 0 ],
					"destination" : [ "obj-360", 0 ],
					"hidden" : 1,
					"midpoints" : [ 668.5, 933.0, 792.0, 933.0, 792.0, 909.0, 807.5, 909.0 ]
				}

			}
, 			{
				"patchline" : 				{
					"source" : [ "obj-354", 1 ],
					"destination" : [ "obj-357", 0 ],
					"hidden" : 1,
					"midpoints" : [  ]
				}

			}
, 			{
				"patchline" : 				{
					"source" : [ "obj-95", 0 ],
					"destination" : [ "obj-150", 0 ],
					"hidden" : 1,
					"midpoints" : [  ]
				}

			}
, 			{
				"patchline" : 				{
					"source" : [ "obj-97", 0 ],
					"destination" : [ "obj-95", 0 ],
					"hidden" : 1,
					"midpoints" : [  ]
				}

			}
, 			{
				"patchline" : 				{
					"source" : [ "obj-272", 0 ],
					"destination" : [ "obj-354", 0 ],
					"hidden" : 1,
					"midpoints" : [  ]
				}

			}
, 			{
				"patchline" : 				{
					"source" : [ "obj-270", 0 ],
					"destination" : [ "obj-272", 0 ],
					"hidden" : 1,
					"midpoints" : [  ]
				}

			}
 ]
	}

}
