{
	"patcher" : 	{
		"fileversion" : 1,
		"rect" : [ 996.0, 318.0, 443.0, 588.0 ],
		"bglocked" : 0,
		"defrect" : [ 996.0, 318.0, 443.0, 588.0 ],
		"openrect" : [ 0.0, 0.0, 0.0, 0.0 ],
		"openinpresentation" : 0,
		"default_fontsize" : 12.0,
		"default_fontface" : 0,
		"default_fontname" : "Arial",
		"gridonopen" : 0,
		"gridsize" : [ 15.0, 15.0 ],
		"gridsnaponopen" : 0,
		"toolbarvisible" : 1,
		"boxanimatetime" : 200,
		"imprint" : 0,
		"boxes" : [ 			{
				"box" : 				{
					"maxclass" : "outlet",
					"patching_rect" : [ 52.0, 302.0, 25.0, 25.0 ],
					"id" : "obj-1",
					"numinlets" : 1,
					"numoutlets" : 0,
					"comment" : ""
				}

			}
, 			{
				"box" : 				{
					"maxclass" : "newobj",
					"text" : "route #2",
					"outlettype" : [ "", "" ],
					"patching_rect" : [ 52.0, 267.0, 219.0, 20.0 ],
					"fontname" : "Arial",
					"id" : "obj-14",
					"numinlets" : 1,
					"fontsize" : 12.0,
					"numoutlets" : 2
				}

			}
, 			{
				"box" : 				{
					"maxclass" : "newobj",
					"text" : "route #1",
					"outlettype" : [ "", "" ],
					"patching_rect" : [ 52.0, 239.0, 219.0, 20.0 ],
					"fontname" : "Arial",
					"id" : "obj-15",
					"numinlets" : 1,
					"fontsize" : 12.0,
					"numoutlets" : 2
				}

			}
, 			{
				"box" : 				{
					"maxclass" : "newobj",
					"text" : "r serverreceive",
					"outlettype" : [ "" ],
					"patching_rect" : [ 52.0, 185.0, 108.0, 20.0 ],
					"fontname" : "Arial",
					"id" : "obj-16",
					"numinlets" : 0,
					"fontsize" : 12.0,
					"numoutlets" : 1
				}

			}
, 			{
				"box" : 				{
					"maxclass" : "newobj",
					"text" : "route /attributedomain",
					"outlettype" : [ "", "" ],
					"patching_rect" : [ 52.0, 213.0, 128.0, 20.0 ],
					"fontname" : "Arial",
					"id" : "obj-17",
					"numinlets" : 1,
					"fontsize" : 12.0,
					"numoutlets" : 2
				}

			}
, 			{
				"box" : 				{
					"maxclass" : "newobj",
					"text" : "s serversend",
					"patching_rect" : [ 52.0, 160.0, 89.0, 20.0 ],
					"fontname" : "Arial",
					"id" : "obj-18",
					"numinlets" : 1,
					"fontsize" : 12.0,
					"numoutlets" : 0
				}

			}
, 			{
				"box" : 				{
					"maxclass" : "message",
					"text" : "/getattributedomain #1 message #2",
					"outlettype" : [ "" ],
					"patching_rect" : [ 52.0, 75.0, 200.0, 18.0 ],
					"fontname" : "Arial",
					"id" : "obj-19",
					"numinlets" : 2,
					"fontsize" : 12.0,
					"numoutlets" : 1
				}

			}
, 			{
				"box" : 				{
					"maxclass" : "inlet",
					"outlettype" : [ "" ],
					"patching_rect" : [ 52.0, 33.0, 22.0, 22.0 ],
					"id" : "obj-20",
					"numinlets" : 0,
					"numoutlets" : 1,
					"comment" : ""
				}

			}
 ],
		"lines" : [ 			{
				"patchline" : 				{
					"source" : [ "obj-14", 0 ],
					"destination" : [ "obj-1", 0 ],
					"hidden" : 0,
					"midpoints" : [  ]
				}

			}
, 			{
				"patchline" : 				{
					"source" : [ "obj-19", 0 ],
					"destination" : [ "obj-18", 0 ],
					"hidden" : 0,
					"midpoints" : [  ]
				}

			}
, 			{
				"patchline" : 				{
					"source" : [ "obj-15", 0 ],
					"destination" : [ "obj-14", 0 ],
					"hidden" : 0,
					"midpoints" : [  ]
				}

			}
, 			{
				"patchline" : 				{
					"source" : [ "obj-20", 0 ],
					"destination" : [ "obj-19", 0 ],
					"hidden" : 0,
					"midpoints" : [  ]
				}

			}
, 			{
				"patchline" : 				{
					"source" : [ "obj-17", 0 ],
					"destination" : [ "obj-15", 0 ],
					"hidden" : 0,
					"midpoints" : [  ]
				}

			}
, 			{
				"patchline" : 				{
					"source" : [ "obj-16", 0 ],
					"destination" : [ "obj-17", 0 ],
					"hidden" : 0,
					"midpoints" : [  ]
				}

			}
 ]
	}

}
