{
	"patcher" : 	{
		"fileversion" : 1,
		"rect" : [ 609.0, 199.0, 354.0, 310.0 ],
		"bglocked" : 0,
		"defrect" : [ 609.0, 199.0, 354.0, 310.0 ],
		"openrect" : [ 0.0, 0.0, 0.0, 0.0 ],
		"openinpresentation" : 0,
		"default_fontsize" : 12.0,
		"default_fontface" : 0,
		"default_fontname" : "Arial",
		"gridonopen" : 0,
		"gridsize" : [ 15.0, 15.0 ],
		"gridsnaponopen" : 0,
		"toolbarvisible" : 1,
		"boxanimatetime" : 200,
		"imprint" : 0,
		"boxes" : [ 			{
				"box" : 				{
					"maxclass" : "outlet",
					"patching_rect" : [ 199.0, 232.0, 25.0, 25.0 ],
					"numinlets" : 1,
					"id" : "obj-2",
					"numoutlets" : 0,
					"comment" : ""
				}

			}
, 			{
				"box" : 				{
					"maxclass" : "inlet",
					"patching_rect" : [ 199.0, 27.0, 25.0, 25.0 ],
					"numinlets" : 0,
					"id" : "obj-1",
					"numoutlets" : 1,
					"outlettype" : [ "" ],
					"comment" : ""
				}

			}
, 			{
				"box" : 				{
					"maxclass" : "newobj",
					"text" : "tosymbol",
					"patching_rect" : [ 199.0, 183.0, 59.0, 20.0 ],
					"numinlets" : 1,
					"id" : "obj-5",
					"fontname" : "Arial",
					"numoutlets" : 1,
					"outlettype" : [ "" ],
					"fontsize" : 12.0
				}

			}
, 			{
				"box" : 				{
					"maxclass" : "message",
					"text" : "/Volumes/Zarathoustra/Users/Gregoire/Desktop/DFR.rtf",
					"linecount" : 3,
					"patching_rect" : [ 12.0, 226.0, 132.0, 46.0 ],
					"numinlets" : 2,
					"id" : "obj-9",
					"fontname" : "Arial",
					"numoutlets" : 1,
					"outlettype" : [ "" ],
					"fontsize" : 12.0
				}

			}
, 			{
				"box" : 				{
					"maxclass" : "newobj",
					"text" : "sprintf /Volumes/%s",
					"patching_rect" : [ 199.0, 153.0, 117.0, 20.0 ],
					"numinlets" : 1,
					"id" : "obj-8",
					"fontname" : "Arial",
					"numoutlets" : 1,
					"outlettype" : [ "" ],
					"fontsize" : 12.0
				}

			}
, 			{
				"box" : 				{
					"maxclass" : "newobj",
					"text" : "tosymbol",
					"patching_rect" : [ 199.0, 124.0, 59.0, 20.0 ],
					"numinlets" : 1,
					"id" : "obj-7",
					"fontname" : "Arial",
					"numoutlets" : 1,
					"outlettype" : [ "" ],
					"fontsize" : 12.0
				}

			}
, 			{
				"box" : 				{
					"maxclass" : "newobj",
					"text" : "regexp (//) @substitute /",
					"patching_rect" : [ 199.0, 96.0, 139.0, 20.0 ],
					"numinlets" : 1,
					"id" : "obj-6",
					"fontname" : "Arial",
					"numoutlets" : 5,
					"outlettype" : [ "", "", "", "", "" ],
					"fontsize" : 12.0
				}

			}
, 			{
				"box" : 				{
					"maxclass" : "newobj",
					"text" : "regexp (:) @substitute /",
					"patching_rect" : [ 199.0, 65.0, 135.0, 20.0 ],
					"numinlets" : 1,
					"id" : "obj-4",
					"fontname" : "Arial",
					"numoutlets" : 5,
					"outlettype" : [ "", "", "", "", "" ],
					"fontsize" : 12.0
				}

			}
 ],
		"lines" : [ 			{
				"patchline" : 				{
					"source" : [ "obj-5", 0 ],
					"destination" : [ "obj-2", 0 ],
					"hidden" : 0,
					"midpoints" : [  ]
				}

			}
, 			{
				"patchline" : 				{
					"source" : [ "obj-1", 0 ],
					"destination" : [ "obj-4", 0 ],
					"hidden" : 0,
					"midpoints" : [  ]
				}

			}
, 			{
				"patchline" : 				{
					"source" : [ "obj-5", 0 ],
					"destination" : [ "obj-9", 1 ],
					"hidden" : 0,
					"midpoints" : [ 208.5, 214.0, 134.5, 214.0 ]
				}

			}
, 			{
				"patchline" : 				{
					"source" : [ "obj-8", 0 ],
					"destination" : [ "obj-5", 0 ],
					"hidden" : 0,
					"midpoints" : [  ]
				}

			}
, 			{
				"patchline" : 				{
					"source" : [ "obj-4", 0 ],
					"destination" : [ "obj-6", 0 ],
					"hidden" : 0,
					"midpoints" : [  ]
				}

			}
, 			{
				"patchline" : 				{
					"source" : [ "obj-6", 0 ],
					"destination" : [ "obj-7", 0 ],
					"hidden" : 0,
					"midpoints" : [  ]
				}

			}
, 			{
				"patchline" : 				{
					"source" : [ "obj-7", 0 ],
					"destination" : [ "obj-8", 0 ],
					"hidden" : 0,
					"midpoints" : [  ]
				}

			}
 ]
	}

}
