{
	"patcher" : 	{
		"fileversion" : 1,
		"rect" : [ 877.0, 69.0, 632.0, 785.0 ],
		"bglocked" : 0,
		"defrect" : [ 877.0, 69.0, 632.0, 785.0 ],
		"openrect" : [ 0.0, 0.0, 0.0, 0.0 ],
		"openinpresentation" : 0,
		"default_fontsize" : 12.0,
		"default_fontface" : 0,
		"default_fontname" : "Arial",
		"gridonopen" : 0,
		"gridsize" : [ 15.0, 15.0 ],
		"gridsnaponopen" : 0,
		"toolbarvisible" : 1,
		"boxanimatetime" : 200,
		"imprint" : 0,
		"boxes" : [ 			{
				"box" : 				{
					"maxclass" : "message",
					"presentation_rect" : [ 808.0, 160.0, 0.0, 0.0 ],
					"hidden" : 1,
					"numinlets" : 2,
					"patching_rect" : [ 808.0, 160.0, 284.0, 18.0 ],
					"id" : "obj-140",
					"fontname" : "Arial",
					"numoutlets" : 1,
					"outlettype" : [ "" ],
					"fontsize" : 12.0
				}

			}
, 			{
				"box" : 				{
					"maxclass" : "message",
					"presentation_rect" : [ 808.0, 136.0, 0.0, 0.0 ],
					"hidden" : 1,
					"numinlets" : 2,
					"patching_rect" : [ 808.0, 136.0, 282.0, 18.0 ],
					"id" : "obj-139",
					"fontname" : "Arial",
					"numoutlets" : 1,
					"outlettype" : [ "" ],
					"fontsize" : 12.0
				}

			}
, 			{
				"box" : 				{
					"maxclass" : "newobj",
					"text" : "prepend 0",
					"presentation_rect" : [ 1190.0, 203.0, 0.0, 0.0 ],
					"hidden" : 1,
					"numinlets" : 1,
					"patching_rect" : [ 1190.0, 203.0, 65.0, 20.0 ],
					"id" : "obj-138",
					"fontname" : "Arial",
					"numoutlets" : 1,
					"outlettype" : [ "" ],
					"fontsize" : 12.0
				}

			}
, 			{
				"box" : 				{
					"maxclass" : "newobj",
					"text" : "prepend 0",
					"presentation_rect" : [ 1134.0, 173.0, 0.0, 0.0 ],
					"hidden" : 1,
					"numinlets" : 1,
					"patching_rect" : [ 1150.0, 167.0, 65.0, 20.0 ],
					"id" : "obj-137",
					"fontname" : "Arial",
					"numoutlets" : 1,
					"outlettype" : [ "" ],
					"fontsize" : 12.0
				}

			}
, 			{
				"box" : 				{
					"maxclass" : "newobj",
					"text" : "zl slice 17",
					"presentation_rect" : [ 1121.0, 247.0, 0.0, 0.0 ],
					"hidden" : 1,
					"numinlets" : 2,
					"patching_rect" : [ 1121.0, 247.0, 63.0, 20.0 ],
					"id" : "obj-136",
					"fontname" : "Arial",
					"numoutlets" : 2,
					"outlettype" : [ "", "" ],
					"fontsize" : 12.0
				}

			}
, 			{
				"box" : 				{
					"maxclass" : "newobj",
					"text" : "zl slice 17",
					"presentation_rect" : [ 1076.0, 219.0, 0.0, 0.0 ],
					"hidden" : 1,
					"numinlets" : 2,
					"patching_rect" : [ 1076.0, 219.0, 63.0, 20.0 ],
					"id" : "obj-135",
					"fontname" : "Arial",
					"numoutlets" : 2,
					"outlettype" : [ "", "" ],
					"fontsize" : 12.0
				}

			}
, 			{
				"box" : 				{
					"maxclass" : "newobj",
					"text" : "tosymbol",
					"presentation_rect" : [ 1206.0, 856.0, 0.0, 0.0 ],
					"hidden" : 1,
					"numinlets" : 1,
					"patching_rect" : [ 374.0, 705.0, 65.0, 20.0 ],
					"id" : "obj-133",
					"fontname" : "Arial",
					"numoutlets" : 1,
					"outlettype" : [ "" ],
					"fontsize" : 12.0
				}

			}
, 			{
				"box" : 				{
					"maxclass" : "newobj",
					"text" : "tosymbol",
					"presentation_rect" : [ 890.0, 857.0, 0.0, 0.0 ],
					"hidden" : 1,
					"numinlets" : 1,
					"patching_rect" : [ 58.0, 706.0, 65.0, 20.0 ],
					"id" : "obj-134",
					"fontname" : "Arial",
					"numoutlets" : 1,
					"outlettype" : [ "" ],
					"fontsize" : 12.0
				}

			}
, 			{
				"box" : 				{
					"maxclass" : "bpatcher",
					"varname" : "orchestra.group.pat[2]",
					"presentation_rect" : [ 369.0, 399.0, 0.0, 0.0 ],
					"lockeddragscroll" : 1,
					"numinlets" : 2,
					"patching_rect" : [ 369.0, 395.0, 257.0, 358.0 ],
					"id" : "obj-98",
					"numoutlets" : 1,
					"name" : "orchestra.group.maxpat",
					"outlettype" : [ "" ],
					"args" : [  ]
				}

			}
, 			{
				"box" : 				{
					"maxclass" : "comment",
					"text" : "Slot 64",
					"presentation_rect" : [ 325.0, 728.0, 0.0, 0.0 ],
					"numinlets" : 1,
					"patching_rect" : [ 325.0, 724.0, 40.0, 17.0 ],
					"id" : "obj-99",
					"fontname" : "Arial",
					"numoutlets" : 0,
					"fontsize" : 9.0
				}

			}
, 			{
				"box" : 				{
					"maxclass" : "comment",
					"text" : "Slot 63",
					"presentation_rect" : [ 325.0, 706.0, 0.0, 0.0 ],
					"numinlets" : 1,
					"patching_rect" : [ 325.0, 702.0, 40.0, 17.0 ],
					"id" : "obj-100",
					"fontname" : "Arial",
					"numoutlets" : 0,
					"fontsize" : 9.0
				}

			}
, 			{
				"box" : 				{
					"maxclass" : "comment",
					"text" : "Slot 62",
					"presentation_rect" : [ 325.0, 684.0, 0.0, 0.0 ],
					"numinlets" : 1,
					"patching_rect" : [ 325.0, 680.0, 40.0, 17.0 ],
					"id" : "obj-101",
					"fontname" : "Arial",
					"numoutlets" : 0,
					"fontsize" : 9.0
				}

			}
, 			{
				"box" : 				{
					"maxclass" : "comment",
					"text" : "Slot 61",
					"presentation_rect" : [ 325.0, 662.0, 0.0, 0.0 ],
					"numinlets" : 1,
					"patching_rect" : [ 325.0, 658.0, 40.0, 17.0 ],
					"id" : "obj-102",
					"fontname" : "Arial",
					"numoutlets" : 0,
					"fontsize" : 9.0
				}

			}
, 			{
				"box" : 				{
					"maxclass" : "comment",
					"text" : "Slot 60",
					"presentation_rect" : [ 325.0, 641.0, 0.0, 0.0 ],
					"numinlets" : 1,
					"patching_rect" : [ 325.0, 637.0, 40.0, 17.0 ],
					"id" : "obj-103",
					"fontname" : "Arial",
					"numoutlets" : 0,
					"fontsize" : 9.0
				}

			}
, 			{
				"box" : 				{
					"maxclass" : "comment",
					"text" : "Slot 59",
					"presentation_rect" : [ 325.0, 619.0, 0.0, 0.0 ],
					"numinlets" : 1,
					"patching_rect" : [ 325.0, 615.0, 40.0, 17.0 ],
					"id" : "obj-104",
					"fontname" : "Arial",
					"numoutlets" : 0,
					"fontsize" : 9.0
				}

			}
, 			{
				"box" : 				{
					"maxclass" : "comment",
					"text" : "Slot 58",
					"presentation_rect" : [ 325.0, 597.0, 0.0, 0.0 ],
					"numinlets" : 1,
					"patching_rect" : [ 325.0, 593.0, 40.0, 17.0 ],
					"id" : "obj-105",
					"fontname" : "Arial",
					"numoutlets" : 0,
					"fontsize" : 9.0
				}

			}
, 			{
				"box" : 				{
					"maxclass" : "comment",
					"text" : "Slot 57",
					"presentation_rect" : [ 325.0, 575.0, 0.0, 0.0 ],
					"numinlets" : 1,
					"patching_rect" : [ 325.0, 571.0, 40.0, 17.0 ],
					"id" : "obj-106",
					"fontname" : "Arial",
					"numoutlets" : 0,
					"fontsize" : 9.0
				}

			}
, 			{
				"box" : 				{
					"maxclass" : "comment",
					"text" : "Slot 56",
					"presentation_rect" : [ 325.0, 553.0, 0.0, 0.0 ],
					"numinlets" : 1,
					"patching_rect" : [ 325.0, 549.0, 40.0, 17.0 ],
					"id" : "obj-107",
					"fontname" : "Arial",
					"numoutlets" : 0,
					"fontsize" : 9.0
				}

			}
, 			{
				"box" : 				{
					"maxclass" : "comment",
					"text" : "Slot 55",
					"presentation_rect" : [ 325.0, 531.0, 0.0, 0.0 ],
					"numinlets" : 1,
					"patching_rect" : [ 325.0, 527.0, 40.0, 17.0 ],
					"id" : "obj-108",
					"fontname" : "Arial",
					"numoutlets" : 0,
					"fontsize" : 9.0
				}

			}
, 			{
				"box" : 				{
					"maxclass" : "comment",
					"text" : "Slot 54",
					"presentation_rect" : [ 325.0, 509.0, 0.0, 0.0 ],
					"numinlets" : 1,
					"patching_rect" : [ 325.0, 505.0, 40.0, 17.0 ],
					"id" : "obj-109",
					"fontname" : "Arial",
					"numoutlets" : 0,
					"fontsize" : 9.0
				}

			}
, 			{
				"box" : 				{
					"maxclass" : "comment",
					"text" : "Slot 53",
					"presentation_rect" : [ 325.0, 487.0, 0.0, 0.0 ],
					"numinlets" : 1,
					"patching_rect" : [ 325.0, 483.0, 40.0, 17.0 ],
					"id" : "obj-110",
					"fontname" : "Arial",
					"numoutlets" : 0,
					"fontsize" : 9.0
				}

			}
, 			{
				"box" : 				{
					"maxclass" : "comment",
					"text" : "Slot 52",
					"presentation_rect" : [ 325.0, 466.0, 0.0, 0.0 ],
					"numinlets" : 1,
					"patching_rect" : [ 325.0, 462.0, 40.0, 17.0 ],
					"id" : "obj-111",
					"fontname" : "Arial",
					"numoutlets" : 0,
					"fontsize" : 9.0
				}

			}
, 			{
				"box" : 				{
					"maxclass" : "comment",
					"text" : "Slot 51",
					"presentation_rect" : [ 325.0, 444.0, 0.0, 0.0 ],
					"numinlets" : 1,
					"patching_rect" : [ 325.0, 440.0, 40.0, 17.0 ],
					"id" : "obj-112",
					"fontname" : "Arial",
					"numoutlets" : 0,
					"fontsize" : 9.0
				}

			}
, 			{
				"box" : 				{
					"maxclass" : "comment",
					"text" : "Slot 50",
					"presentation_rect" : [ 325.0, 422.0, 0.0, 0.0 ],
					"numinlets" : 1,
					"patching_rect" : [ 325.0, 418.0, 40.0, 17.0 ],
					"id" : "obj-113",
					"fontname" : "Arial",
					"numoutlets" : 0,
					"fontsize" : 9.0
				}

			}
, 			{
				"box" : 				{
					"maxclass" : "comment",
					"text" : "Slot 49",
					"presentation_rect" : [ 325.0, 400.0, 0.0, 0.0 ],
					"numinlets" : 1,
					"patching_rect" : [ 325.0, 396.0, 40.0, 17.0 ],
					"id" : "obj-114",
					"fontname" : "Arial",
					"numoutlets" : 0,
					"fontsize" : 9.0
				}

			}
, 			{
				"box" : 				{
					"maxclass" : "bpatcher",
					"varname" : "orchestra.group.pat[3]",
					"presentation_rect" : [ 53.0, 399.0, 0.0, 0.0 ],
					"lockeddragscroll" : 1,
					"numinlets" : 2,
					"patching_rect" : [ 53.0, 395.0, 258.0, 359.0 ],
					"id" : "obj-115",
					"numoutlets" : 1,
					"name" : "orchestra.group.maxpat",
					"outlettype" : [ "" ],
					"args" : [  ]
				}

			}
, 			{
				"box" : 				{
					"maxclass" : "comment",
					"text" : "Slot 48",
					"presentation_rect" : [ 9.0, 728.0, 0.0, 0.0 ],
					"numinlets" : 1,
					"patching_rect" : [ 9.0, 724.0, 40.0, 17.0 ],
					"id" : "obj-116",
					"fontname" : "Arial",
					"numoutlets" : 0,
					"fontsize" : 9.0
				}

			}
, 			{
				"box" : 				{
					"maxclass" : "comment",
					"text" : "Slot 47",
					"presentation_rect" : [ 9.0, 706.0, 0.0, 0.0 ],
					"numinlets" : 1,
					"patching_rect" : [ 9.0, 702.0, 40.0, 17.0 ],
					"id" : "obj-117",
					"fontname" : "Arial",
					"numoutlets" : 0,
					"fontsize" : 9.0
				}

			}
, 			{
				"box" : 				{
					"maxclass" : "comment",
					"text" : "Slot 46",
					"presentation_rect" : [ 9.0, 684.0, 0.0, 0.0 ],
					"numinlets" : 1,
					"patching_rect" : [ 9.0, 680.0, 40.0, 17.0 ],
					"id" : "obj-118",
					"fontname" : "Arial",
					"numoutlets" : 0,
					"fontsize" : 9.0
				}

			}
, 			{
				"box" : 				{
					"maxclass" : "comment",
					"text" : "Slot 45",
					"presentation_rect" : [ 9.0, 662.0, 0.0, 0.0 ],
					"numinlets" : 1,
					"patching_rect" : [ 9.0, 658.0, 40.0, 17.0 ],
					"id" : "obj-119",
					"fontname" : "Arial",
					"numoutlets" : 0,
					"fontsize" : 9.0
				}

			}
, 			{
				"box" : 				{
					"maxclass" : "comment",
					"text" : "Slot 44",
					"presentation_rect" : [ 9.0, 641.0, 0.0, 0.0 ],
					"numinlets" : 1,
					"patching_rect" : [ 9.0, 637.0, 40.0, 17.0 ],
					"id" : "obj-120",
					"fontname" : "Arial",
					"numoutlets" : 0,
					"fontsize" : 9.0
				}

			}
, 			{
				"box" : 				{
					"maxclass" : "comment",
					"text" : "Slot 43",
					"presentation_rect" : [ 9.0, 619.0, 0.0, 0.0 ],
					"numinlets" : 1,
					"patching_rect" : [ 9.0, 615.0, 40.0, 17.0 ],
					"id" : "obj-121",
					"fontname" : "Arial",
					"numoutlets" : 0,
					"fontsize" : 9.0
				}

			}
, 			{
				"box" : 				{
					"maxclass" : "comment",
					"text" : "Slot 42",
					"presentation_rect" : [ 9.0, 597.0, 0.0, 0.0 ],
					"numinlets" : 1,
					"patching_rect" : [ 9.0, 593.0, 40.0, 17.0 ],
					"id" : "obj-122",
					"fontname" : "Arial",
					"numoutlets" : 0,
					"fontsize" : 9.0
				}

			}
, 			{
				"box" : 				{
					"maxclass" : "comment",
					"text" : "Slot 41",
					"presentation_rect" : [ 9.0, 575.0, 0.0, 0.0 ],
					"numinlets" : 1,
					"patching_rect" : [ 9.0, 571.0, 40.0, 17.0 ],
					"id" : "obj-123",
					"fontname" : "Arial",
					"numoutlets" : 0,
					"fontsize" : 9.0
				}

			}
, 			{
				"box" : 				{
					"maxclass" : "comment",
					"text" : "Slot 40",
					"presentation_rect" : [ 9.0, 553.0, 0.0, 0.0 ],
					"numinlets" : 1,
					"patching_rect" : [ 9.0, 549.0, 40.0, 17.0 ],
					"id" : "obj-124",
					"fontname" : "Arial",
					"numoutlets" : 0,
					"fontsize" : 9.0
				}

			}
, 			{
				"box" : 				{
					"maxclass" : "comment",
					"text" : "Slot 39",
					"presentation_rect" : [ 9.0, 531.0, 0.0, 0.0 ],
					"numinlets" : 1,
					"patching_rect" : [ 9.0, 527.0, 40.0, 17.0 ],
					"id" : "obj-125",
					"fontname" : "Arial",
					"numoutlets" : 0,
					"fontsize" : 9.0
				}

			}
, 			{
				"box" : 				{
					"maxclass" : "comment",
					"text" : "Slot 38",
					"presentation_rect" : [ 9.0, 509.0, 0.0, 0.0 ],
					"numinlets" : 1,
					"patching_rect" : [ 9.0, 505.0, 40.0, 17.0 ],
					"id" : "obj-126",
					"fontname" : "Arial",
					"numoutlets" : 0,
					"fontsize" : 9.0
				}

			}
, 			{
				"box" : 				{
					"maxclass" : "comment",
					"text" : "Slot 37",
					"presentation_rect" : [ 9.0, 487.0, 0.0, 0.0 ],
					"numinlets" : 1,
					"patching_rect" : [ 9.0, 483.0, 40.0, 17.0 ],
					"id" : "obj-127",
					"fontname" : "Arial",
					"numoutlets" : 0,
					"fontsize" : 9.0
				}

			}
, 			{
				"box" : 				{
					"maxclass" : "comment",
					"text" : "Slot 36",
					"presentation_rect" : [ 9.0, 466.0, 0.0, 0.0 ],
					"numinlets" : 1,
					"patching_rect" : [ 9.0, 462.0, 40.0, 17.0 ],
					"id" : "obj-128",
					"fontname" : "Arial",
					"numoutlets" : 0,
					"fontsize" : 9.0
				}

			}
, 			{
				"box" : 				{
					"maxclass" : "comment",
					"text" : "Slot 35",
					"presentation_rect" : [ 9.0, 444.0, 0.0, 0.0 ],
					"numinlets" : 1,
					"patching_rect" : [ 9.0, 440.0, 40.0, 17.0 ],
					"id" : "obj-129",
					"fontname" : "Arial",
					"numoutlets" : 0,
					"fontsize" : 9.0
				}

			}
, 			{
				"box" : 				{
					"maxclass" : "comment",
					"text" : "Slot 34",
					"presentation_rect" : [ 9.0, 422.0, 0.0, 0.0 ],
					"numinlets" : 1,
					"patching_rect" : [ 9.0, 418.0, 40.0, 17.0 ],
					"id" : "obj-130",
					"fontname" : "Arial",
					"numoutlets" : 0,
					"fontsize" : 9.0
				}

			}
, 			{
				"box" : 				{
					"maxclass" : "comment",
					"text" : "Slot 33",
					"presentation_rect" : [ 9.0, 400.0, 0.0, 0.0 ],
					"numinlets" : 1,
					"patching_rect" : [ 9.0, 396.0, 40.0, 17.0 ],
					"id" : "obj-131",
					"fontname" : "Arial",
					"numoutlets" : 0,
					"fontsize" : 9.0
				}

			}
, 			{
				"box" : 				{
					"maxclass" : "panel",
					"presentation_rect" : [ 5.0, 393.0, 0.0, 0.0 ],
					"numinlets" : 1,
					"bgcolor" : [ 0.945098, 0.933333, 0.933333, 1.0 ],
					"patching_rect" : [ 5.0, 389.0, 621.0, 360.0 ],
					"border" : 1,
					"id" : "obj-132",
					"numoutlets" : 0,
					"rounded" : 16
				}

			}
, 			{
				"box" : 				{
					"maxclass" : "message",
					"text" : "\" \"",
					"hidden" : 1,
					"numinlets" : 2,
					"patching_rect" : [ 303.0, -9.0, 32.5, 18.0 ],
					"id" : "obj-31",
					"fontname" : "Arial",
					"numoutlets" : 1,
					"outlettype" : [ "" ],
					"fontsize" : 12.0
				}

			}
, 			{
				"box" : 				{
					"maxclass" : "newobj",
					"text" : "s orchis.resolution",
					"hidden" : 1,
					"numinlets" : 1,
					"patching_rect" : [ 673.0, 135.0, 107.0, 20.0 ],
					"id" : "obj-87",
					"fontname" : "Arial",
					"numoutlets" : 0,
					"fontsize" : 12.0
				}

			}
, 			{
				"box" : 				{
					"maxclass" : "umenu",
					"varname" : "resolution[2]",
					"items" : [ 1, ",", 2, ",", 4, ",", 8 ],
					"togcolor" : [ 0.552941, 0.552941, 0.552941, 1.0 ],
					"arrowlink" : 0,
					"hidden" : 1,
					"hltcolor" : [ 1.0, 1.0, 1.0, 1.0 ],
					"numinlets" : 1,
					"types" : [  ],
					"textcolor2" : [ 0.121569, 0.121569, 0.121569, 1.0 ],
					"patching_rect" : [ 644.0, 96.0, 73.0, 20.0 ],
					"id" : "obj-85",
					"fontname" : "Arial",
					"pattrmode" : 1,
					"numoutlets" : 3,
					"textcolor" : [ 0.121569, 0.121569, 0.121569, 1.0 ],
					"outlettype" : [ "int", "", "" ],
					"framecolor" : [ 0.647059, 0.647059, 0.647059, 1.0 ],
					"bgcolor2" : [ 0.917647, 0.917647, 0.917647, 1.0 ],
					"arrowframe" : 0,
					"fontsize" : 12.0,
					"discolor" : [ 0.439216, 0.439216, 0.439216, 1.0 ]
				}

			}
, 			{
				"box" : 				{
					"maxclass" : "newobj",
					"text" : "p help",
					"hidden" : 1,
					"numinlets" : 1,
					"patching_rect" : [ 161.0, -65.0, 43.0, 20.0 ],
					"id" : "obj-90",
					"fontname" : "Arial",
					"numoutlets" : 0,
					"fontsize" : 12.0,
					"patcher" : 					{
						"fileversion" : 1,
						"rect" : [ 25.0, 69.0, 640.0, 480.0 ],
						"bglocked" : 0,
						"defrect" : [ 25.0, 69.0, 640.0, 480.0 ],
						"openrect" : [ 0.0, 0.0, 0.0, 0.0 ],
						"openinpresentation" : 0,
						"default_fontsize" : 12.0,
						"default_fontface" : 0,
						"default_fontname" : "Arial",
						"gridonopen" : 0,
						"gridsize" : [ 15.0, 15.0 ],
						"gridsnaponopen" : 0,
						"toolbarvisible" : 1,
						"boxanimatetime" : 200,
						"imprint" : 0,
						"boxes" : [ 							{
								"box" : 								{
									"maxclass" : "newobj",
									"text" : "aka.shell",
									"hidden" : 1,
									"numinlets" : 1,
									"patching_rect" : [ 102.0, 185.0, 58.0, 20.0 ],
									"id" : "obj-2",
									"fontname" : "Arial",
									"numoutlets" : 1,
									"outlettype" : [ "" ],
									"fontsize" : 12.0
								}

							}
, 							{
								"box" : 								{
									"maxclass" : "message",
									"text" : "\"open /tmp/orchidee_instrument_symbols\"",
									"hidden" : 1,
									"numinlets" : 2,
									"patching_rect" : [ 102.0, 157.0, 235.0, 18.0 ],
									"id" : "obj-1",
									"fontname" : "Arial",
									"numoutlets" : 1,
									"outlettype" : [ "" ],
									"fontsize" : 12.0
								}

							}
, 							{
								"box" : 								{
									"maxclass" : "newobj",
									"text" : "readybang 604",
									"numinlets" : 1,
									"patching_rect" : [ 102.0, 129.0, 91.0, 20.0 ],
									"id" : "obj-88",
									"fontname" : "Arial",
									"numoutlets" : 1,
									"outlettype" : [ "bang" ],
									"fontsize" : 12.0
								}

							}
, 							{
								"box" : 								{
									"maxclass" : "newobj",
									"text" : "t b b",
									"numinlets" : 1,
									"patching_rect" : [ 59.0, 100.0, 62.0, 20.0 ],
									"id" : "obj-87",
									"fontname" : "Arial",
									"numoutlets" : 2,
									"outlettype" : [ "bang", "bang" ],
									"fontsize" : 12.0
								}

							}
, 							{
								"box" : 								{
									"maxclass" : "newobj",
									"text" : "s serversend",
									"hidden" : 1,
									"numinlets" : 1,
									"patching_rect" : [ 59.0, 239.0, 79.0, 20.0 ],
									"id" : "obj-31",
									"fontname" : "Arial",
									"numoutlets" : 0,
									"fontsize" : 12.0
								}

							}
, 							{
								"box" : 								{
									"maxclass" : "message",
									"text" : "/dbexportinstsymbols 604 /tmp/orchidee_instrument_symbols",
									"hidden" : 1,
									"numinlets" : 2,
									"patching_rect" : [ 59.0, 214.0, 336.0, 18.0 ],
									"id" : "obj-85",
									"fontname" : "Arial",
									"numoutlets" : 1,
									"outlettype" : [ "" ],
									"fontsize" : 12.0
								}

							}
, 							{
								"box" : 								{
									"maxclass" : "inlet",
									"numinlets" : 0,
									"patching_rect" : [ 59.0, 40.0, 25.0, 25.0 ],
									"id" : "obj-89",
									"numoutlets" : 1,
									"outlettype" : [ "" ],
									"comment" : ""
								}

							}
 ],
						"lines" : [ 							{
								"patchline" : 								{
									"source" : [ "obj-1", 0 ],
									"destination" : [ "obj-2", 0 ],
									"hidden" : 0,
									"midpoints" : [  ]
								}

							}
, 							{
								"patchline" : 								{
									"source" : [ "obj-88", 0 ],
									"destination" : [ "obj-1", 0 ],
									"hidden" : 0,
									"midpoints" : [  ]
								}

							}
, 							{
								"patchline" : 								{
									"source" : [ "obj-85", 0 ],
									"destination" : [ "obj-31", 0 ],
									"hidden" : 1,
									"midpoints" : [  ]
								}

							}
, 							{
								"patchline" : 								{
									"source" : [ "obj-87", 1 ],
									"destination" : [ "obj-88", 0 ],
									"hidden" : 0,
									"midpoints" : [  ]
								}

							}
, 							{
								"patchline" : 								{
									"source" : [ "obj-87", 0 ],
									"destination" : [ "obj-85", 0 ],
									"hidden" : 0,
									"midpoints" : [  ]
								}

							}
, 							{
								"patchline" : 								{
									"source" : [ "obj-89", 0 ],
									"destination" : [ "obj-87", 0 ],
									"hidden" : 0,
									"midpoints" : [  ]
								}

							}
 ]
					}
,
					"saved_object_attributes" : 					{
						"fontname" : "Arial",
						"default_fontface" : 0,
						"globalpatchername" : "",
						"default_fontname" : "Arial",
						"fontface" : 0,
						"fontsize" : 12.0,
						"default_fontsize" : 12.0
					}

				}

			}
, 			{
				"box" : 				{
					"maxclass" : "textbutton",
					"bgovercolor" : [ 0.533333, 0.74902, 0.533333, 1.0 ],
					"numinlets" : 1,
					"bgcolor" : [ 0.545098, 0.85098, 0.592157, 1.0 ],
					"patching_rect" : [ 190.0, 3.0, 54.0, 20.0 ],
					"id" : "obj-86",
					"fontname" : "Arial",
					"numoutlets" : 3,
					"text" : "Help",
					"outlettype" : [ "", "", "int" ],
					"fontsize" : 12.0
				}

			}
, 			{
				"box" : 				{
					"maxclass" : "newobj",
					"text" : "t b b b b l",
					"hidden" : 1,
					"numinlets" : 1,
					"patching_rect" : [ 921.0, 372.0, 73.0, 20.0 ],
					"id" : "obj-84",
					"fontname" : "Arial",
					"numoutlets" : 5,
					"outlettype" : [ "bang", "bang", "bang", "bang", "" ],
					"fontsize" : 12.0
				}

			}
, 			{
				"box" : 				{
					"maxclass" : "newobj",
					"text" : "prepend 0",
					"hidden" : 1,
					"numinlets" : 1,
					"patching_rect" : [ 1103.0, 139.0, 65.0, 20.0 ],
					"id" : "obj-80",
					"fontname" : "Arial",
					"numoutlets" : 1,
					"outlettype" : [ "" ],
					"fontsize" : 12.0
				}

			}
, 			{
				"box" : 				{
					"maxclass" : "newobj",
					"text" : "zl slice 17",
					"hidden" : 1,
					"numinlets" : 2,
					"patching_rect" : [ 1031.0, 187.0, 63.0, 20.0 ],
					"id" : "obj-79",
					"fontname" : "Arial",
					"numoutlets" : 2,
					"outlettype" : [ "", "" ],
					"fontsize" : 12.0
				}

			}
, 			{
				"box" : 				{
					"maxclass" : "button",
					"hidden" : 1,
					"numinlets" : 1,
					"patching_rect" : [ 1211.0, -73.0, 26.0, 26.0 ],
					"id" : "obj-83",
					"numoutlets" : 1,
					"outlettype" : [ "bang" ]
				}

			}
, 			{
				"box" : 				{
					"maxclass" : "newobj",
					"text" : "route <none>",
					"hidden" : 1,
					"numinlets" : 1,
					"patching_rect" : [ 1241.0, -72.0, 82.0, 20.0 ],
					"id" : "obj-82",
					"fontname" : "Arial",
					"numoutlets" : 2,
					"outlettype" : [ "", "" ],
					"fontsize" : 12.0
				}

			}
, 			{
				"box" : 				{
					"maxclass" : "newobj",
					"text" : "route read",
					"hidden" : 1,
					"numinlets" : 1,
					"patching_rect" : [ 1241.0, -102.0, 65.0, 20.0 ],
					"id" : "obj-81",
					"fontname" : "Arial",
					"numoutlets" : 2,
					"outlettype" : [ "", "" ],
					"fontsize" : 12.0
				}

			}
, 			{
				"box" : 				{
					"maxclass" : "newobj",
					"text" : "t b",
					"hidden" : 1,
					"numinlets" : 1,
					"patching_rect" : [ 1138.0, -111.0, 24.0, 20.0 ],
					"id" : "obj-78",
					"fontname" : "Arial",
					"numoutlets" : 1,
					"outlettype" : [ "bang" ],
					"fontsize" : 12.0
				}

			}
, 			{
				"box" : 				{
					"maxclass" : "newobj",
					"text" : "t b b",
					"hidden" : 1,
					"numinlets" : 1,
					"patching_rect" : [ 1050.0, -112.0, 62.0, 20.0 ],
					"id" : "obj-77",
					"fontname" : "Arial",
					"numoutlets" : 2,
					"outlettype" : [ "bang", "bang" ],
					"fontsize" : 12.0
				}

			}
, 			{
				"box" : 				{
					"maxclass" : "textbutton",
					"numinlets" : 1,
					"patching_rect" : [ 119.0, 3.0, 54.0, 20.0 ],
					"id" : "obj-76",
					"fontname" : "Arial",
					"numoutlets" : 3,
					"text" : "Load",
					"outlettype" : [ "", "", "int" ],
					"fontsize" : 12.0
				}

			}
, 			{
				"box" : 				{
					"maxclass" : "textbutton",
					"numinlets" : 1,
					"patching_rect" : [ 62.0, 3.0, 54.0, 20.0 ],
					"id" : "obj-22",
					"fontname" : "Arial",
					"numoutlets" : 3,
					"text" : "Save",
					"outlettype" : [ "", "", "int" ],
					"fontsize" : 12.0
				}

			}
, 			{
				"box" : 				{
					"maxclass" : "message",
					"text" : "write",
					"hidden" : 1,
					"numinlets" : 2,
					"patching_rect" : [ 1345.0, -167.0, 36.0, 18.0 ],
					"id" : "obj-72",
					"fontname" : "Arial",
					"numoutlets" : 1,
					"outlettype" : [ "" ],
					"fontsize" : 12.0
				}

			}
, 			{
				"box" : 				{
					"maxclass" : "newobj",
					"varname" : "resolution[1]",
					"text" : "autopattr resolution",
					"hidden" : 1,
					"numinlets" : 1,
					"patching_rect" : [ 1339.0, -70.0, 113.0, 20.0 ],
					"id" : "obj-23",
					"fontname" : "Arial",
					"numoutlets" : 4,
					"outlettype" : [ "", "", "", "" ],
					"fontsize" : 12.0,
					"restore" : 					{
						"resolution" : [ "1/4 tone" ],
						"resolution[2]" : [ "2" ]
					}

				}

			}
, 			{
				"box" : 				{
					"maxclass" : "message",
					"text" : "store 2",
					"hidden" : 1,
					"numinlets" : 2,
					"patching_rect" : [ 1047.0, -70.0, 47.0, 18.0 ],
					"id" : "obj-21",
					"fontname" : "Arial",
					"numoutlets" : 1,
					"outlettype" : [ "" ],
					"fontsize" : 12.0
				}

			}
, 			{
				"box" : 				{
					"maxclass" : "message",
					"text" : "2",
					"hidden" : 1,
					"numinlets" : 2,
					"patching_rect" : [ 1175.0, -69.0, 32.5, 18.0 ],
					"id" : "obj-20",
					"fontname" : "Arial",
					"numoutlets" : 1,
					"outlettype" : [ "" ],
					"fontsize" : 12.0
				}

			}
, 			{
				"box" : 				{
					"maxclass" : "message",
					"text" : "read",
					"hidden" : 1,
					"numinlets" : 2,
					"patching_rect" : [ 1138.0, -69.0, 35.0, 18.0 ],
					"id" : "obj-18",
					"fontname" : "Arial",
					"numoutlets" : 1,
					"outlettype" : [ "" ],
					"fontsize" : 12.0
				}

			}
, 			{
				"box" : 				{
					"maxclass" : "message",
					"text" : "write",
					"hidden" : 1,
					"numinlets" : 2,
					"patching_rect" : [ 1095.0, -70.0, 36.0, 18.0 ],
					"id" : "obj-15",
					"fontname" : "Arial",
					"numoutlets" : 1,
					"outlettype" : [ "" ],
					"fontsize" : 12.0
				}

			}
, 			{
				"box" : 				{
					"maxclass" : "newobj",
					"text" : "t clear b",
					"hidden" : 1,
					"numinlets" : 1,
					"patching_rect" : [ 276.0, -47.0, 53.0, 20.0 ],
					"id" : "obj-19",
					"fontname" : "Arial",
					"numoutlets" : 2,
					"outlettype" : [ "clear", "bang" ],
					"fontsize" : 12.0
				}

			}
, 			{
				"box" : 				{
					"maxclass" : "textbutton",
					"numinlets" : 1,
					"patching_rect" : [ 5.0, 3.0, 54.0, 20.0 ],
					"id" : "obj-5",
					"fontname" : "Arial",
					"numoutlets" : 3,
					"text" : "Clear",
					"outlettype" : [ "", "", "int" ],
					"fontsize" : 12.0
				}

			}
, 			{
				"box" : 				{
					"maxclass" : "message",
					"text" : "1",
					"hidden" : 1,
					"numinlets" : 2,
					"patching_rect" : [ 1241.0, -167.0, 32.5, 18.0 ],
					"id" : "obj-4",
					"fontname" : "Arial",
					"numoutlets" : 1,
					"outlettype" : [ "" ],
					"fontsize" : 12.0
				}

			}
, 			{
				"box" : 				{
					"maxclass" : "newobj",
					"text" : "t b",
					"hidden" : 1,
					"numinlets" : 1,
					"patching_rect" : [ 1278.0, -197.0, 24.0, 20.0 ],
					"id" : "obj-2",
					"fontname" : "Arial",
					"numoutlets" : 1,
					"outlettype" : [ "bang" ],
					"fontsize" : 12.0
				}

			}
, 			{
				"box" : 				{
					"maxclass" : "message",
					"text" : "store 1",
					"hidden" : 1,
					"numinlets" : 2,
					"patching_rect" : [ 1278.0, -167.0, 47.0, 18.0 ],
					"id" : "obj-1",
					"fontname" : "Arial",
					"numoutlets" : 1,
					"outlettype" : [ "" ],
					"fontsize" : 12.0
				}

			}
, 			{
				"box" : 				{
					"maxclass" : "newobj",
					"text" : "t 1",
					"hidden" : 1,
					"numinlets" : 1,
					"patching_rect" : [ 895.0, 317.0, 30.0, 20.0 ],
					"id" : "obj-17",
					"fontname" : "Arial",
					"numoutlets" : 1,
					"outlettype" : [ "int" ],
					"fontsize" : 12.0
				}

			}
, 			{
				"box" : 				{
					"maxclass" : "newobj",
					"varname" : "orchestra",
					"text" : "pattrstorage orchestra @savemode 0",
					"hidden" : 1,
					"numinlets" : 1,
					"patching_rect" : [ 1241.0, -131.0, 209.0, 20.0 ],
					"id" : "obj-16",
					"fontname" : "Arial",
					"numoutlets" : 1,
					"outlettype" : [ "" ],
					"fontsize" : 12.0,
					"saved_object_attributes" : 					{
						"client_rect" : [ 4, 44, 358, 172 ],
						"storage_rect" : [ 365, 44, 816, 172 ]
					}

				}

			}
, 			{
				"box" : 				{
					"maxclass" : "newobj",
					"text" : "readybang 601",
					"hidden" : 1,
					"numinlets" : 1,
					"patching_rect" : [ 895.0, 291.0, 91.0, 20.0 ],
					"id" : "obj-14",
					"fontname" : "Arial",
					"numoutlets" : 1,
					"outlettype" : [ "bang" ],
					"fontsize" : 12.0
				}

			}
, 			{
				"box" : 				{
					"maxclass" : "newobj",
					"text" : "b",
					"hidden" : 1,
					"numinlets" : 1,
					"patching_rect" : [ 857.0, 263.0, 56.5, 20.0 ],
					"id" : "obj-13",
					"fontname" : "Arial",
					"numoutlets" : 2,
					"outlettype" : [ "bang", "bang" ],
					"fontsize" : 12.0
				}

			}
, 			{
				"box" : 				{
					"maxclass" : "newobj",
					"text" : "route refresh",
					"hidden" : 1,
					"numinlets" : 1,
					"patching_rect" : [ 855.0, -57.0, 79.0, 20.0 ],
					"id" : "obj-12",
					"fontname" : "Arial",
					"numoutlets" : 2,
					"outlettype" : [ "", "" ],
					"fontsize" : 12.0
				}

			}
, 			{
				"box" : 				{
					"maxclass" : "inlet",
					"hidden" : 1,
					"numinlets" : 0,
					"patching_rect" : [ 855.0, -98.0, 25.0, 25.0 ],
					"id" : "obj-9",
					"numoutlets" : 1,
					"outlettype" : [ "" ],
					"comment" : ""
				}

			}
, 			{
				"box" : 				{
					"maxclass" : "message",
					"text" : "0 26 27 29 30 31 32 33 34 35 36",
					"hidden" : 1,
					"numinlets" : 2,
					"patching_rect" : [ 808.0, 108.0, 284.0, 18.0 ],
					"id" : "obj-8",
					"fontname" : "Arial",
					"numoutlets" : 1,
					"outlettype" : [ "" ],
					"fontsize" : 12.0
				}

			}
, 			{
				"box" : 				{
					"maxclass" : "message",
					"text" : "0 2 3 4 5 7 8 10 11 12 13 15 17 19 21 23 24",
					"hidden" : 1,
					"numinlets" : 2,
					"patching_rect" : [ 811.0, 78.0, 244.0, 18.0 ],
					"id" : "obj-3",
					"fontname" : "Arial",
					"numoutlets" : 1,
					"outlettype" : [ "" ],
					"fontsize" : 12.0
				}

			}
, 			{
				"box" : 				{
					"maxclass" : "textbutton",
					"numinlets" : 1,
					"patching_rect" : [ 561.0, 755.0, 61.0, 22.0 ],
					"id" : "obj-11",
					"fontname" : "Arial",
					"numoutlets" : 3,
					"text" : "Ok",
					"outlettype" : [ "", "", "int" ],
					"fontsize" : 12.0
				}

			}
, 			{
				"box" : 				{
					"maxclass" : "textbutton",
					"numinlets" : 1,
					"patching_rect" : [ 497.0, 755.0, 61.0, 22.0 ],
					"id" : "obj-10",
					"fontname" : "Arial",
					"numoutlets" : 3,
					"text" : "Cancel",
					"outlettype" : [ "", "", "int" ],
					"fontsize" : 12.0
				}

			}
, 			{
				"box" : 				{
					"maxclass" : "newobj",
					"text" : "b",
					"hidden" : 1,
					"numinlets" : 1,
					"patching_rect" : [ 497.0, 784.0, 36.0, 20.0 ],
					"id" : "obj-6",
					"fontname" : "Arial",
					"numoutlets" : 2,
					"outlettype" : [ "bang", "bang" ],
					"fontsize" : 12.0
				}

			}
, 			{
				"box" : 				{
					"maxclass" : "newobj",
					"text" : "s orchidee.closeorchestra",
					"hidden" : 1,
					"numinlets" : 1,
					"patching_rect" : [ 498.0, 810.0, 165.0, 20.0 ],
					"id" : "obj-7",
					"fontname" : "Arial",
					"numoutlets" : 0,
					"fontsize" : 12.0
				}

			}
, 			{
				"box" : 				{
					"maxclass" : "newobj",
					"text" : "tosymbol",
					"hidden" : 1,
					"numinlets" : 1,
					"patching_rect" : [ 361.0, 354.0, 65.0, 20.0 ],
					"id" : "obj-24",
					"fontname" : "Arial",
					"numoutlets" : 1,
					"outlettype" : [ "" ],
					"fontsize" : 12.0
				}

			}
, 			{
				"box" : 				{
					"maxclass" : "newobj",
					"text" : "tosymbol",
					"hidden" : 1,
					"numinlets" : 1,
					"patching_rect" : [ 45.0, 355.0, 65.0, 20.0 ],
					"id" : "obj-25",
					"fontname" : "Arial",
					"numoutlets" : 1,
					"outlettype" : [ "" ],
					"fontsize" : 12.0
				}

			}
, 			{
				"box" : 				{
					"maxclass" : "newobj",
					"text" : "s serversend",
					"hidden" : 1,
					"numinlets" : 1,
					"patching_rect" : [ 8.0, 803.0, 89.0, 20.0 ],
					"id" : "obj-26",
					"fontname" : "Arial",
					"numoutlets" : 0,
					"fontsize" : 12.0
				}

			}
, 			{
				"box" : 				{
					"maxclass" : "newobj",
					"text" : "sprintf /setorchestra 603 %s %s %s %s",
					"hidden" : 1,
					"numinlets" : 4,
					"patching_rect" : [ 8.0, 778.0, 219.0, 20.0 ],
					"id" : "obj-27",
					"fontname" : "Arial",
					"numoutlets" : 1,
					"outlettype" : [ "" ],
					"fontsize" : 12.0
				}

			}
, 			{
				"box" : 				{
					"maxclass" : "newobj",
					"text" : "t b b b b",
					"hidden" : 1,
					"numinlets" : 1,
					"patching_rect" : [ 691.0, 314.0, 59.5, 17.0 ],
					"id" : "obj-28",
					"fontname" : "Arial",
					"numoutlets" : 4,
					"outlettype" : [ "bang", "bang", "bang", "bang" ],
					"fontsize" : 9.0
				}

			}
, 			{
				"box" : 				{
					"maxclass" : "jsui",
					"hidden" : 1,
					"numinlets" : 1,
					"patching_rect" : [ 857.0, 234.0, 66.0, 22.0 ],
					"id" : "obj-29",
					"numoutlets" : 1,
					"filename" : "jsui_textbutton.js",
					"outlettype" : [ "" ],
					"jsarguments" : [ "Refresh" ]
				}

			}
, 			{
				"box" : 				{
					"maxclass" : "bpatcher",
					"varname" : "orchestra.group.pat",
					"lockeddragscroll" : 1,
					"numinlets" : 2,
					"patching_rect" : [ 369.0, 33.0, 257.0, 358.0 ],
					"id" : "obj-32",
					"numoutlets" : 1,
					"name" : "orchestra.group.maxpat",
					"outlettype" : [ "" ],
					"args" : [  ]
				}

			}
, 			{
				"box" : 				{
					"maxclass" : "comment",
					"text" : "Slot 32",
					"numinlets" : 1,
					"patching_rect" : [ 325.0, 362.0, 40.0, 17.0 ],
					"id" : "obj-33",
					"fontname" : "Arial",
					"numoutlets" : 0,
					"fontsize" : 9.0
				}

			}
, 			{
				"box" : 				{
					"maxclass" : "comment",
					"text" : "Slot 31",
					"numinlets" : 1,
					"patching_rect" : [ 325.0, 340.0, 40.0, 17.0 ],
					"id" : "obj-34",
					"fontname" : "Arial",
					"numoutlets" : 0,
					"fontsize" : 9.0
				}

			}
, 			{
				"box" : 				{
					"maxclass" : "comment",
					"text" : "Slot 30",
					"numinlets" : 1,
					"patching_rect" : [ 325.0, 318.0, 40.0, 17.0 ],
					"id" : "obj-35",
					"fontname" : "Arial",
					"numoutlets" : 0,
					"fontsize" : 9.0
				}

			}
, 			{
				"box" : 				{
					"maxclass" : "comment",
					"text" : "Slot 29",
					"numinlets" : 1,
					"patching_rect" : [ 325.0, 296.0, 40.0, 17.0 ],
					"id" : "obj-36",
					"fontname" : "Arial",
					"numoutlets" : 0,
					"fontsize" : 9.0
				}

			}
, 			{
				"box" : 				{
					"maxclass" : "comment",
					"text" : "Slot 28",
					"numinlets" : 1,
					"patching_rect" : [ 325.0, 275.0, 40.0, 17.0 ],
					"id" : "obj-37",
					"fontname" : "Arial",
					"numoutlets" : 0,
					"fontsize" : 9.0
				}

			}
, 			{
				"box" : 				{
					"maxclass" : "comment",
					"text" : "Slot 27",
					"numinlets" : 1,
					"patching_rect" : [ 325.0, 253.0, 40.0, 17.0 ],
					"id" : "obj-38",
					"fontname" : "Arial",
					"numoutlets" : 0,
					"fontsize" : 9.0
				}

			}
, 			{
				"box" : 				{
					"maxclass" : "comment",
					"text" : "Slot 26",
					"numinlets" : 1,
					"patching_rect" : [ 325.0, 231.0, 40.0, 17.0 ],
					"id" : "obj-39",
					"fontname" : "Arial",
					"numoutlets" : 0,
					"fontsize" : 9.0
				}

			}
, 			{
				"box" : 				{
					"maxclass" : "comment",
					"text" : "Slot 25",
					"numinlets" : 1,
					"patching_rect" : [ 325.0, 209.0, 40.0, 17.0 ],
					"id" : "obj-40",
					"fontname" : "Arial",
					"numoutlets" : 0,
					"fontsize" : 9.0
				}

			}
, 			{
				"box" : 				{
					"maxclass" : "comment",
					"text" : "Slot 24",
					"numinlets" : 1,
					"patching_rect" : [ 325.0, 187.0, 40.0, 17.0 ],
					"id" : "obj-41",
					"fontname" : "Arial",
					"numoutlets" : 0,
					"fontsize" : 9.0
				}

			}
, 			{
				"box" : 				{
					"maxclass" : "comment",
					"text" : "Slot 23",
					"numinlets" : 1,
					"patching_rect" : [ 325.0, 165.0, 40.0, 17.0 ],
					"id" : "obj-42",
					"fontname" : "Arial",
					"numoutlets" : 0,
					"fontsize" : 9.0
				}

			}
, 			{
				"box" : 				{
					"maxclass" : "comment",
					"text" : "Slot 22",
					"numinlets" : 1,
					"patching_rect" : [ 325.0, 143.0, 40.0, 17.0 ],
					"id" : "obj-43",
					"fontname" : "Arial",
					"numoutlets" : 0,
					"fontsize" : 9.0
				}

			}
, 			{
				"box" : 				{
					"maxclass" : "comment",
					"text" : "Slot 21",
					"numinlets" : 1,
					"patching_rect" : [ 325.0, 121.0, 40.0, 17.0 ],
					"id" : "obj-44",
					"fontname" : "Arial",
					"numoutlets" : 0,
					"fontsize" : 9.0
				}

			}
, 			{
				"box" : 				{
					"maxclass" : "comment",
					"text" : "Slot 20",
					"numinlets" : 1,
					"patching_rect" : [ 325.0, 100.0, 40.0, 17.0 ],
					"id" : "obj-45",
					"fontname" : "Arial",
					"numoutlets" : 0,
					"fontsize" : 9.0
				}

			}
, 			{
				"box" : 				{
					"maxclass" : "comment",
					"text" : "Slot 19",
					"numinlets" : 1,
					"patching_rect" : [ 325.0, 78.0, 40.0, 17.0 ],
					"id" : "obj-46",
					"fontname" : "Arial",
					"numoutlets" : 0,
					"fontsize" : 9.0
				}

			}
, 			{
				"box" : 				{
					"maxclass" : "comment",
					"text" : "Slot 18",
					"numinlets" : 1,
					"patching_rect" : [ 325.0, 56.0, 40.0, 17.0 ],
					"id" : "obj-47",
					"fontname" : "Arial",
					"numoutlets" : 0,
					"fontsize" : 9.0
				}

			}
, 			{
				"box" : 				{
					"maxclass" : "comment",
					"text" : "Slot 17",
					"numinlets" : 1,
					"patching_rect" : [ 325.0, 34.0, 40.0, 17.0 ],
					"id" : "obj-48",
					"fontname" : "Arial",
					"numoutlets" : 0,
					"fontsize" : 9.0
				}

			}
, 			{
				"box" : 				{
					"maxclass" : "bpatcher",
					"varname" : "orchestra.group.pat[1]",
					"lockeddragscroll" : 1,
					"numinlets" : 2,
					"patching_rect" : [ 53.0, 33.0, 258.0, 359.0 ],
					"id" : "obj-49",
					"numoutlets" : 1,
					"name" : "orchestra.group.maxpat",
					"outlettype" : [ "" ],
					"args" : [  ]
				}

			}
, 			{
				"box" : 				{
					"maxclass" : "newobj",
					"text" : "s serversend",
					"hidden" : 1,
					"numinlets" : 1,
					"patching_rect" : [ 616.0, -21.0, 69.0, 17.0 ],
					"id" : "obj-50",
					"fontname" : "Arial",
					"numoutlets" : 0,
					"fontsize" : 9.0
				}

			}
, 			{
				"box" : 				{
					"maxclass" : "newobj",
					"text" : "expr pow(2\\, $i1)",
					"hidden" : 1,
					"numinlets" : 1,
					"patching_rect" : [ 616.0, -66.0, 94.0, 17.0 ],
					"id" : "obj-51",
					"fontname" : "Arial",
					"numoutlets" : 1,
					"outlettype" : [ "" ],
					"fontsize" : 9.0
				}

			}
, 			{
				"box" : 				{
					"maxclass" : "newobj",
					"text" : "loadmess set 1",
					"hidden" : 1,
					"numinlets" : 1,
					"patching_rect" : [ 528.0, -65.0, 80.0, 17.0 ],
					"id" : "obj-52",
					"fontname" : "Arial",
					"numoutlets" : 1,
					"outlettype" : [ "" ],
					"fontsize" : 9.0
				}

			}
, 			{
				"box" : 				{
					"maxclass" : "newobj",
					"text" : "prepend /setresolution 602",
					"hidden" : 1,
					"numinlets" : 1,
					"patching_rect" : [ 616.0, -43.0, 134.0, 17.0 ],
					"id" : "obj-53",
					"fontname" : "Arial",
					"numoutlets" : 1,
					"outlettype" : [ "" ],
					"fontsize" : 9.0
				}

			}
, 			{
				"box" : 				{
					"maxclass" : "umenu",
					"varname" : "resolution",
					"items" : [ "1/2", "tone", ",", "1/4", "tone", ",", "1/8", "tone", ",", "1/16", "tone" ],
					"togcolor" : [ 0.552941, 0.552941, 0.552941, 1.0 ],
					"arrowlink" : 0,
					"hltcolor" : [ 1.0, 1.0, 1.0, 1.0 ],
					"numinlets" : 1,
					"types" : [  ],
					"textcolor2" : [ 0.121569, 0.121569, 0.121569, 1.0 ],
					"patching_rect" : [ 528.0, 3.0, 85.0, 20.0 ],
					"id" : "obj-54",
					"fontname" : "Arial",
					"pattrmode" : 1,
					"numoutlets" : 3,
					"textcolor" : [ 0.121569, 0.121569, 0.121569, 1.0 ],
					"outlettype" : [ "int", "", "" ],
					"framecolor" : [ 0.647059, 0.647059, 0.647059, 1.0 ],
					"bgcolor2" : [ 0.917647, 0.917647, 0.917647, 1.0 ],
					"arrowframe" : 0,
					"fontsize" : 12.0,
					"discolor" : [ 0.439216, 0.439216, 0.439216, 1.0 ]
				}

			}
, 			{
				"box" : 				{
					"maxclass" : "comment",
					"text" : "Pitch resolution",
					"numinlets" : 1,
					"patching_rect" : [ 435.0, 3.0, 103.0, 20.0 ],
					"id" : "obj-55",
					"fontname" : "Arial",
					"numoutlets" : 0,
					"fontsize" : 12.0
				}

			}
, 			{
				"box" : 				{
					"maxclass" : "comment",
					"text" : "Slot 16",
					"numinlets" : 1,
					"patching_rect" : [ 9.0, 362.0, 40.0, 17.0 ],
					"id" : "obj-56",
					"fontname" : "Arial",
					"numoutlets" : 0,
					"fontsize" : 9.0
				}

			}
, 			{
				"box" : 				{
					"maxclass" : "comment",
					"text" : "Slot 15",
					"numinlets" : 1,
					"patching_rect" : [ 9.0, 340.0, 40.0, 17.0 ],
					"id" : "obj-57",
					"fontname" : "Arial",
					"numoutlets" : 0,
					"fontsize" : 9.0
				}

			}
, 			{
				"box" : 				{
					"maxclass" : "comment",
					"text" : "Slot 14",
					"numinlets" : 1,
					"patching_rect" : [ 9.0, 318.0, 40.0, 17.0 ],
					"id" : "obj-58",
					"fontname" : "Arial",
					"numoutlets" : 0,
					"fontsize" : 9.0
				}

			}
, 			{
				"box" : 				{
					"maxclass" : "comment",
					"text" : "Slot 13",
					"numinlets" : 1,
					"patching_rect" : [ 9.0, 296.0, 40.0, 17.0 ],
					"id" : "obj-59",
					"fontname" : "Arial",
					"numoutlets" : 0,
					"fontsize" : 9.0
				}

			}
, 			{
				"box" : 				{
					"maxclass" : "comment",
					"text" : "Slot 12",
					"numinlets" : 1,
					"patching_rect" : [ 9.0, 275.0, 40.0, 17.0 ],
					"id" : "obj-60",
					"fontname" : "Arial",
					"numoutlets" : 0,
					"fontsize" : 9.0
				}

			}
, 			{
				"box" : 				{
					"maxclass" : "comment",
					"text" : "Slot 11",
					"numinlets" : 1,
					"patching_rect" : [ 9.0, 253.0, 40.0, 17.0 ],
					"id" : "obj-61",
					"fontname" : "Arial",
					"numoutlets" : 0,
					"fontsize" : 9.0
				}

			}
, 			{
				"box" : 				{
					"maxclass" : "comment",
					"text" : "Slot 10",
					"numinlets" : 1,
					"patching_rect" : [ 9.0, 231.0, 40.0, 17.0 ],
					"id" : "obj-62",
					"fontname" : "Arial",
					"numoutlets" : 0,
					"fontsize" : 9.0
				}

			}
, 			{
				"box" : 				{
					"maxclass" : "comment",
					"text" : "Slot 9",
					"numinlets" : 1,
					"patching_rect" : [ 9.0, 209.0, 40.0, 17.0 ],
					"id" : "obj-63",
					"fontname" : "Arial",
					"numoutlets" : 0,
					"fontsize" : 9.0
				}

			}
, 			{
				"box" : 				{
					"maxclass" : "comment",
					"text" : "Slot 8",
					"numinlets" : 1,
					"patching_rect" : [ 9.0, 187.0, 40.0, 17.0 ],
					"id" : "obj-64",
					"fontname" : "Arial",
					"numoutlets" : 0,
					"fontsize" : 9.0
				}

			}
, 			{
				"box" : 				{
					"maxclass" : "comment",
					"text" : "Slot 7",
					"numinlets" : 1,
					"patching_rect" : [ 9.0, 165.0, 40.0, 17.0 ],
					"id" : "obj-65",
					"fontname" : "Arial",
					"numoutlets" : 0,
					"fontsize" : 9.0
				}

			}
, 			{
				"box" : 				{
					"maxclass" : "comment",
					"text" : "Slot 6",
					"numinlets" : 1,
					"patching_rect" : [ 9.0, 143.0, 40.0, 17.0 ],
					"id" : "obj-66",
					"fontname" : "Arial",
					"numoutlets" : 0,
					"fontsize" : 9.0
				}

			}
, 			{
				"box" : 				{
					"maxclass" : "comment",
					"text" : "Slot 5",
					"numinlets" : 1,
					"patching_rect" : [ 9.0, 121.0, 40.0, 17.0 ],
					"id" : "obj-67",
					"fontname" : "Arial",
					"numoutlets" : 0,
					"fontsize" : 9.0
				}

			}
, 			{
				"box" : 				{
					"maxclass" : "comment",
					"text" : "Slot 4",
					"numinlets" : 1,
					"patching_rect" : [ 9.0, 100.0, 40.0, 17.0 ],
					"id" : "obj-68",
					"fontname" : "Arial",
					"numoutlets" : 0,
					"fontsize" : 9.0
				}

			}
, 			{
				"box" : 				{
					"maxclass" : "comment",
					"text" : "Slot 3",
					"numinlets" : 1,
					"patching_rect" : [ 9.0, 78.0, 40.0, 17.0 ],
					"id" : "obj-69",
					"fontname" : "Arial",
					"numoutlets" : 0,
					"fontsize" : 9.0
				}

			}
, 			{
				"box" : 				{
					"maxclass" : "comment",
					"text" : "Slot 2",
					"numinlets" : 1,
					"patching_rect" : [ 9.0, 56.0, 40.0, 17.0 ],
					"id" : "obj-70",
					"fontname" : "Arial",
					"numoutlets" : 0,
					"fontsize" : 9.0
				}

			}
, 			{
				"box" : 				{
					"maxclass" : "newobj",
					"text" : "s orchestra.instlist",
					"hidden" : 1,
					"numinlets" : 1,
					"patching_rect" : [ 857.0, 396.0, 126.0, 20.0 ],
					"id" : "obj-71",
					"fontname" : "Arial",
					"numoutlets" : 0,
					"fontsize" : 12.0
				}

			}
, 			{
				"box" : 				{
					"maxclass" : "newobj",
					"text" : "p getinstlist",
					"hidden" : 1,
					"numinlets" : 1,
					"patching_rect" : [ 857.0, 345.0, 82.0, 20.0 ],
					"id" : "obj-73",
					"fontname" : "Arial",
					"numoutlets" : 2,
					"outlettype" : [ "int", "" ],
					"fontsize" : 12.0,
					"patcher" : 					{
						"fileversion" : 1,
						"rect" : [ 186.0, 268.0, 836.0, 752.0 ],
						"bglocked" : 0,
						"defrect" : [ 186.0, 268.0, 836.0, 752.0 ],
						"openrect" : [ 0.0, 0.0, 0.0, 0.0 ],
						"openinpresentation" : 0,
						"default_fontsize" : 12.0,
						"default_fontface" : 0,
						"default_fontname" : "Arial",
						"gridonopen" : 0,
						"gridsize" : [ 15.0, 15.0 ],
						"gridsnaponopen" : 0,
						"toolbarvisible" : 1,
						"boxanimatetime" : 200,
						"imprint" : 0,
						"boxes" : [ 							{
								"box" : 								{
									"maxclass" : "newobj",
									"text" : "t l l",
									"numinlets" : 1,
									"patching_rect" : [ 44.0, 334.0, 32.5, 20.0 ],
									"id" : "obj-51",
									"fontname" : "Arial",
									"numoutlets" : 2,
									"outlettype" : [ "", "" ],
									"fontsize" : 12.0
								}

							}
, 							{
								"box" : 								{
									"maxclass" : "outlet",
									"numinlets" : 1,
									"patching_rect" : [ 291.0, 633.0, 28.0, 28.0 ],
									"id" : "obj-50",
									"numoutlets" : 0,
									"comment" : ""
								}

							}
, 							{
								"box" : 								{
									"maxclass" : "newobj",
									"text" : "t 0",
									"numinlets" : 1,
									"patching_rect" : [ 58.0, 540.0, 25.0, 20.0 ],
									"id" : "obj-21",
									"fontname" : "Arial",
									"numoutlets" : 1,
									"outlettype" : [ "int" ],
									"fontsize" : 12.0
								}

							}
, 							{
								"box" : 								{
									"maxclass" : "message",
									"text" : "append <>",
									"numinlets" : 2,
									"patching_rect" : [ 213.0, 540.0, 69.0, 18.0 ],
									"id" : "obj-23",
									"fontname" : "Arial",
									"numoutlets" : 1,
									"outlettype" : [ "" ],
									"fontsize" : 12.0
								}

							}
, 							{
								"box" : 								{
									"maxclass" : "newobj",
									"text" : "prepend append",
									"numinlets" : 1,
									"patching_rect" : [ 109.0, 539.0, 102.0, 20.0 ],
									"id" : "obj-26",
									"fontname" : "Arial",
									"numoutlets" : 1,
									"outlettype" : [ "" ],
									"fontsize" : 12.0
								}

							}
, 							{
								"box" : 								{
									"maxclass" : "newobj",
									"text" : "route 1",
									"numinlets" : 1,
									"patching_rect" : [ 58.0, 509.0, 54.0, 20.0 ],
									"id" : "obj-29",
									"fontname" : "Arial",
									"numoutlets" : 2,
									"outlettype" : [ "", "" ],
									"fontsize" : 12.0
								}

							}
, 							{
								"box" : 								{
									"maxclass" : "newobj",
									"text" : "t l l b clear",
									"numinlets" : 1,
									"patching_rect" : [ 58.0, 391.0, 252.0, 20.0 ],
									"id" : "obj-30",
									"fontname" : "Arial",
									"numoutlets" : 4,
									"outlettype" : [ "", "", "bang", "clear" ],
									"fontsize" : 12.0
								}

							}
, 							{
								"box" : 								{
									"maxclass" : "newobj",
									"text" : "== 0",
									"numinlets" : 2,
									"patching_rect" : [ 58.0, 485.0, 97.0, 20.0 ],
									"id" : "obj-32",
									"fontname" : "Arial",
									"numoutlets" : 1,
									"outlettype" : [ "int" ],
									"fontsize" : 12.0
								}

							}
, 							{
								"box" : 								{
									"maxclass" : "newobj",
									"text" : "unpack i s",
									"numinlets" : 1,
									"patching_rect" : [ 58.0, 452.0, 70.0, 20.0 ],
									"id" : "obj-34",
									"fontname" : "Arial",
									"numoutlets" : 2,
									"outlettype" : [ "int", "" ],
									"fontsize" : 12.0
								}

							}
, 							{
								"box" : 								{
									"maxclass" : "newobj",
									"text" : "- 1",
									"numinlets" : 2,
									"patching_rect" : [ 136.0, 453.0, 42.0, 20.0 ],
									"id" : "obj-36",
									"fontname" : "Arial",
									"numoutlets" : 1,
									"outlettype" : [ "int" ],
									"fontsize" : 12.0
								}

							}
, 							{
								"box" : 								{
									"maxclass" : "newobj",
									"text" : "listfunnel",
									"numinlets" : 1,
									"patching_rect" : [ 58.0, 428.0, 67.0, 20.0 ],
									"id" : "obj-37",
									"fontname" : "Arial",
									"numoutlets" : 1,
									"outlettype" : [ "list" ],
									"fontsize" : 12.0
								}

							}
, 							{
								"box" : 								{
									"maxclass" : "newobj",
									"text" : "zl len",
									"numinlets" : 2,
									"patching_rect" : [ 136.0, 428.0, 42.0, 20.0 ],
									"id" : "obj-39",
									"fontname" : "Arial",
									"numoutlets" : 2,
									"outlettype" : [ "", "" ],
									"fontsize" : 12.0
								}

							}
, 							{
								"box" : 								{
									"maxclass" : "newobj",
									"text" : "prepend <separator>",
									"numinlets" : 1,
									"patching_rect" : [ 44.0, 300.0, 123.0, 20.0 ],
									"id" : "obj-41",
									"fontname" : "Arial",
									"numoutlets" : 1,
									"outlettype" : [ "" ],
									"fontsize" : 12.0
								}

							}
, 							{
								"box" : 								{
									"maxclass" : "newobj",
									"text" : "regexp - @substitute <separator>",
									"numinlets" : 1,
									"patching_rect" : [ 44.0, 273.0, 189.0, 20.0 ],
									"id" : "obj-42",
									"fontname" : "Arial",
									"numoutlets" : 5,
									"outlettype" : [ "", "", "", "", "" ],
									"fontsize" : 12.0
								}

							}
, 							{
								"box" : 								{
									"maxclass" : "newobj",
									"text" : "route 601",
									"numinlets" : 1,
									"patching_rect" : [ 44.0, 237.0, 61.0, 20.0 ],
									"id" : "obj-47",
									"fontname" : "Arial",
									"numoutlets" : 2,
									"outlettype" : [ "", "" ],
									"fontsize" : 12.0
								}

							}
, 							{
								"box" : 								{
									"maxclass" : "newobj",
									"text" : "route /dbscoreorder",
									"numinlets" : 1,
									"patching_rect" : [ 44.0, 209.0, 115.0, 20.0 ],
									"id" : "obj-48",
									"fontname" : "Arial",
									"numoutlets" : 2,
									"outlettype" : [ "", "" ],
									"fontsize" : 12.0
								}

							}
, 							{
								"box" : 								{
									"maxclass" : "newobj",
									"text" : "r serverreceive",
									"numinlets" : 0,
									"patching_rect" : [ 44.0, 183.0, 90.0, 20.0 ],
									"id" : "obj-49",
									"fontname" : "Arial",
									"numoutlets" : 1,
									"outlettype" : [ "" ],
									"fontsize" : 12.0
								}

							}
, 							{
								"box" : 								{
									"maxclass" : "outlet",
									"numinlets" : 1,
									"patching_rect" : [ 503.0, 653.0, 28.0, 28.0 ],
									"id" : "obj-45",
									"numoutlets" : 0,
									"comment" : ""
								}

							}
, 							{
								"box" : 								{
									"maxclass" : "newobj",
									"text" : "prepend <>",
									"numinlets" : 1,
									"patching_rect" : [ 441.0, 386.0, 72.0, 20.0 ],
									"id" : "obj-44",
									"fontname" : "Arial",
									"numoutlets" : 1,
									"outlettype" : [ "" ],
									"fontsize" : 12.0
								}

							}
, 							{
								"box" : 								{
									"maxclass" : "newobj",
									"text" : "unpack",
									"numinlets" : 1,
									"patching_rect" : [ 504.0, 556.0, 49.0, 20.0 ],
									"id" : "obj-40",
									"fontname" : "Arial",
									"numoutlets" : 2,
									"outlettype" : [ "int", "int" ],
									"fontsize" : 12.0
								}

							}
, 							{
								"box" : 								{
									"maxclass" : "newobj",
									"text" : "zl group 32",
									"numinlets" : 2,
									"patching_rect" : [ 503.0, 609.0, 70.0, 20.0 ],
									"id" : "obj-38",
									"fontname" : "Arial",
									"numoutlets" : 2,
									"outlettype" : [ "", "" ],
									"fontsize" : 12.0
								}

							}
, 							{
								"box" : 								{
									"maxclass" : "newobj",
									"text" : "- 0",
									"numinlets" : 2,
									"patching_rect" : [ 554.0, 498.0, 48.5, 20.0 ],
									"id" : "obj-35",
									"fontname" : "Arial",
									"numoutlets" : 1,
									"outlettype" : [ "int" ],
									"fontsize" : 12.0
								}

							}
, 							{
								"box" : 								{
									"maxclass" : "newobj",
									"text" : "zl len",
									"numinlets" : 2,
									"patching_rect" : [ 673.0, 471.0, 39.0, 20.0 ],
									"id" : "obj-33",
									"fontname" : "Arial",
									"numoutlets" : 2,
									"outlettype" : [ "", "" ],
									"fontsize" : 12.0
								}

							}
, 							{
								"box" : 								{
									"maxclass" : "newobj",
									"text" : "regexp <separator>",
									"numinlets" : 1,
									"patching_rect" : [ 625.0, 446.0, 115.0, 20.0 ],
									"id" : "obj-31",
									"fontname" : "Arial",
									"numoutlets" : 5,
									"outlettype" : [ "", "", "", "", "" ],
									"fontsize" : 12.0
								}

							}
, 							{
								"box" : 								{
									"maxclass" : "newobj",
									"text" : "zl len",
									"numinlets" : 2,
									"patching_rect" : [ 554.0, 470.0, 39.0, 20.0 ],
									"id" : "obj-28",
									"fontname" : "Arial",
									"numoutlets" : 2,
									"outlettype" : [ "", "" ],
									"fontsize" : 12.0
								}

							}
, 							{
								"box" : 								{
									"maxclass" : "newobj",
									"text" : "t l l l",
									"numinlets" : 1,
									"patching_rect" : [ 442.0, 420.0, 202.0, 20.0 ],
									"id" : "obj-27",
									"fontname" : "Arial",
									"numoutlets" : 3,
									"outlettype" : [ "", "", "" ],
									"fontsize" : 12.0
								}

							}
, 							{
								"box" : 								{
									"maxclass" : "newobj",
									"text" : "route <separator>",
									"linecount" : 2,
									"numinlets" : 1,
									"patching_rect" : [ 442.0, 512.0, 81.0, 34.0 ],
									"id" : "obj-25",
									"fontname" : "Arial",
									"numoutlets" : 2,
									"outlettype" : [ "", "" ],
									"fontsize" : 12.0
								}

							}
, 							{
								"box" : 								{
									"maxclass" : "newobj",
									"text" : "zl rev",
									"numinlets" : 2,
									"patching_rect" : [ 442.0, 483.0, 58.0, 20.0 ],
									"id" : "obj-24",
									"fontname" : "Arial",
									"numoutlets" : 2,
									"outlettype" : [ "", "" ],
									"fontsize" : 12.0
								}

							}
, 							{
								"box" : 								{
									"maxclass" : "newobj",
									"text" : "listfunnel",
									"numinlets" : 1,
									"patching_rect" : [ 442.0, 455.0, 58.0, 20.0 ],
									"id" : "obj-22",
									"fontname" : "Arial",
									"numoutlets" : 1,
									"outlettype" : [ "list" ],
									"fontsize" : 12.0
								}

							}
, 							{
								"box" : 								{
									"maxclass" : "inlet",
									"numinlets" : 0,
									"patching_rect" : [ 48.0, 49.0, 23.0, 23.0 ],
									"id" : "obj-1",
									"numoutlets" : 1,
									"outlettype" : [ "bang" ],
									"comment" : ""
								}

							}
, 							{
								"box" : 								{
									"maxclass" : "newobj",
									"text" : "s serversend",
									"numinlets" : 1,
									"patching_rect" : [ 48.0, 114.0, 89.0, 20.0 ],
									"id" : "obj-18",
									"fontname" : "Arial",
									"numoutlets" : 0,
									"fontsize" : 12.0
								}

							}
, 							{
								"box" : 								{
									"maxclass" : "message",
									"text" : "/dbgetscoreorder 601",
									"numinlets" : 2,
									"patching_rect" : [ 48.0, 88.0, 125.0, 18.0 ],
									"id" : "obj-19",
									"fontname" : "Arial",
									"numoutlets" : 1,
									"outlettype" : [ "" ],
									"fontsize" : 12.0
								}

							}
 ],
						"lines" : [ 							{
								"patchline" : 								{
									"source" : [ "obj-47", 0 ],
									"destination" : [ "obj-42", 0 ],
									"hidden" : 0,
									"midpoints" : [  ]
								}

							}
, 							{
								"patchline" : 								{
									"source" : [ "obj-48", 0 ],
									"destination" : [ "obj-47", 0 ],
									"hidden" : 0,
									"midpoints" : [  ]
								}

							}
, 							{
								"patchline" : 								{
									"source" : [ "obj-51", 0 ],
									"destination" : [ "obj-44", 0 ],
									"hidden" : 0,
									"midpoints" : [ 53.5, 369.5, 450.5, 369.5 ]
								}

							}
, 							{
								"patchline" : 								{
									"source" : [ "obj-44", 0 ],
									"destination" : [ "obj-27", 0 ],
									"hidden" : 0,
									"midpoints" : [  ]
								}

							}
, 							{
								"patchline" : 								{
									"source" : [ "obj-51", 1 ],
									"destination" : [ "obj-30", 0 ],
									"hidden" : 0,
									"midpoints" : [  ]
								}

							}
, 							{
								"patchline" : 								{
									"source" : [ "obj-41", 0 ],
									"destination" : [ "obj-51", 0 ],
									"hidden" : 0,
									"midpoints" : [  ]
								}

							}
, 							{
								"patchline" : 								{
									"source" : [ "obj-21", 0 ],
									"destination" : [ "obj-50", 0 ],
									"hidden" : 0,
									"midpoints" : [ 67.5, 595.0, 300.5, 595.0 ]
								}

							}
, 							{
								"patchline" : 								{
									"source" : [ "obj-26", 0 ],
									"destination" : [ "obj-50", 0 ],
									"hidden" : 0,
									"midpoints" : [ 118.5, 595.5, 300.5, 595.5 ]
								}

							}
, 							{
								"patchline" : 								{
									"source" : [ "obj-23", 0 ],
									"destination" : [ "obj-50", 0 ],
									"hidden" : 0,
									"midpoints" : [ 222.5, 595.0, 300.5, 595.0 ]
								}

							}
, 							{
								"patchline" : 								{
									"source" : [ "obj-30", 3 ],
									"destination" : [ "obj-50", 0 ],
									"hidden" : 0,
									"midpoints" : [ 300.5, 521.5, 300.5, 521.5 ]
								}

							}
, 							{
								"patchline" : 								{
									"source" : [ "obj-49", 0 ],
									"destination" : [ "obj-48", 0 ],
									"hidden" : 0,
									"midpoints" : [  ]
								}

							}
, 							{
								"patchline" : 								{
									"source" : [ "obj-42", 0 ],
									"destination" : [ "obj-41", 0 ],
									"hidden" : 0,
									"midpoints" : [  ]
								}

							}
, 							{
								"patchline" : 								{
									"source" : [ "obj-30", 2 ],
									"destination" : [ "obj-23", 0 ],
									"hidden" : 0,
									"midpoints" : [  ]
								}

							}
, 							{
								"patchline" : 								{
									"source" : [ "obj-34", 1 ],
									"destination" : [ "obj-26", 0 ],
									"hidden" : 0,
									"midpoints" : [  ]
								}

							}
, 							{
								"patchline" : 								{
									"source" : [ "obj-37", 0 ],
									"destination" : [ "obj-34", 0 ],
									"hidden" : 0,
									"midpoints" : [  ]
								}

							}
, 							{
								"patchline" : 								{
									"source" : [ "obj-30", 0 ],
									"destination" : [ "obj-37", 0 ],
									"hidden" : 0,
									"midpoints" : [  ]
								}

							}
, 							{
								"patchline" : 								{
									"source" : [ "obj-36", 0 ],
									"destination" : [ "obj-32", 1 ],
									"hidden" : 0,
									"midpoints" : [  ]
								}

							}
, 							{
								"patchline" : 								{
									"source" : [ "obj-32", 0 ],
									"destination" : [ "obj-29", 0 ],
									"hidden" : 0,
									"midpoints" : [  ]
								}

							}
, 							{
								"patchline" : 								{
									"source" : [ "obj-34", 0 ],
									"destination" : [ "obj-32", 0 ],
									"hidden" : 0,
									"midpoints" : [  ]
								}

							}
, 							{
								"patchline" : 								{
									"source" : [ "obj-39", 0 ],
									"destination" : [ "obj-36", 0 ],
									"hidden" : 0,
									"midpoints" : [  ]
								}

							}
, 							{
								"patchline" : 								{
									"source" : [ "obj-30", 1 ],
									"destination" : [ "obj-39", 0 ],
									"hidden" : 0,
									"midpoints" : [  ]
								}

							}
, 							{
								"patchline" : 								{
									"source" : [ "obj-29", 0 ],
									"destination" : [ "obj-21", 0 ],
									"hidden" : 0,
									"midpoints" : [  ]
								}

							}
, 							{
								"patchline" : 								{
									"source" : [ "obj-19", 0 ],
									"destination" : [ "obj-18", 0 ],
									"hidden" : 0,
									"midpoints" : [  ]
								}

							}
, 							{
								"patchline" : 								{
									"source" : [ "obj-1", 0 ],
									"destination" : [ "obj-19", 0 ],
									"hidden" : 0,
									"midpoints" : [  ]
								}

							}
, 							{
								"patchline" : 								{
									"source" : [ "obj-22", 0 ],
									"destination" : [ "obj-24", 0 ],
									"hidden" : 0,
									"midpoints" : [  ]
								}

							}
, 							{
								"patchline" : 								{
									"source" : [ "obj-24", 0 ],
									"destination" : [ "obj-25", 0 ],
									"hidden" : 0,
									"midpoints" : [  ]
								}

							}
, 							{
								"patchline" : 								{
									"source" : [ "obj-31", 2 ],
									"destination" : [ "obj-33", 0 ],
									"hidden" : 0,
									"midpoints" : [  ]
								}

							}
, 							{
								"patchline" : 								{
									"source" : [ "obj-27", 1 ],
									"destination" : [ "obj-28", 0 ],
									"hidden" : 0,
									"midpoints" : [  ]
								}

							}
, 							{
								"patchline" : 								{
									"source" : [ "obj-27", 0 ],
									"destination" : [ "obj-22", 0 ],
									"hidden" : 0,
									"midpoints" : [  ]
								}

							}
, 							{
								"patchline" : 								{
									"source" : [ "obj-28", 0 ],
									"destination" : [ "obj-35", 0 ],
									"hidden" : 0,
									"midpoints" : [  ]
								}

							}
, 							{
								"patchline" : 								{
									"source" : [ "obj-27", 2 ],
									"destination" : [ "obj-31", 0 ],
									"hidden" : 0,
									"midpoints" : [  ]
								}

							}
, 							{
								"patchline" : 								{
									"source" : [ "obj-33", 0 ],
									"destination" : [ "obj-35", 1 ],
									"hidden" : 0,
									"midpoints" : [ 682.5, 494.0, 593.0, 494.0 ]
								}

							}
, 							{
								"patchline" : 								{
									"source" : [ "obj-35", 0 ],
									"destination" : [ "obj-38", 1 ],
									"hidden" : 0,
									"midpoints" : [  ]
								}

							}
, 							{
								"patchline" : 								{
									"source" : [ "obj-25", 1 ],
									"destination" : [ "obj-40", 0 ],
									"hidden" : 0,
									"midpoints" : [  ]
								}

							}
, 							{
								"patchline" : 								{
									"source" : [ "obj-38", 0 ],
									"destination" : [ "obj-45", 0 ],
									"hidden" : 0,
									"midpoints" : [  ]
								}

							}
, 							{
								"patchline" : 								{
									"source" : [ "obj-40", 1 ],
									"destination" : [ "obj-38", 0 ],
									"hidden" : 0,
									"midpoints" : [ 543.5, 602.5, 512.5, 602.5 ]
								}

							}
 ]
					}
,
					"saved_object_attributes" : 					{
						"fontname" : "Arial",
						"default_fontface" : 0,
						"globalpatchername" : "",
						"default_fontname" : "Arial",
						"fontface" : 0,
						"fontsize" : 12.0,
						"default_fontsize" : 12.0
					}

				}

			}
, 			{
				"box" : 				{
					"maxclass" : "comment",
					"text" : "Slot 1",
					"numinlets" : 1,
					"patching_rect" : [ 9.0, 34.0, 40.0, 17.0 ],
					"id" : "obj-74",
					"fontname" : "Arial",
					"numoutlets" : 0,
					"fontsize" : 9.0
				}

			}
, 			{
				"box" : 				{
					"maxclass" : "panel",
					"numinlets" : 1,
					"bgcolor" : [ 0.945098, 0.933333, 0.933333, 1.0 ],
					"patching_rect" : [ 5.0, 27.0, 621.0, 360.0 ],
					"border" : 1,
					"id" : "obj-75",
					"numoutlets" : 0,
					"rounded" : 16
				}

			}
, 			{
				"box" : 				{
					"maxclass" : "panel",
					"hidden" : 1,
					"numinlets" : 1,
					"bgcolor" : [ 1.0, 1.0, 1.0, 1.0 ],
					"patching_rect" : [ 1013.0, -209.0, 475.0, 179.0 ],
					"border" : 3,
					"id" : "obj-30",
					"numoutlets" : 0,
					"rounded" : 17,
					"bordercolor" : [ 0.976471, 0.137255, 0.137255, 1.0 ]
				}

			}
 ],
		"lines" : [ 			{
				"patchline" : 				{
					"source" : [ "obj-84", 2 ],
					"destination" : [ "obj-140", 0 ],
					"hidden" : 1,
					"midpoints" : [  ]
				}

			}
, 			{
				"patchline" : 				{
					"source" : [ "obj-84", 3 ],
					"destination" : [ "obj-139", 0 ],
					"hidden" : 1,
					"midpoints" : [  ]
				}

			}
, 			{
				"patchline" : 				{
					"source" : [ "obj-84", 4 ],
					"destination" : [ "obj-79", 0 ],
					"hidden" : 1,
					"midpoints" : [  ]
				}

			}
, 			{
				"patchline" : 				{
					"source" : [ "obj-73", 1 ],
					"destination" : [ "obj-84", 0 ],
					"hidden" : 1,
					"midpoints" : [  ]
				}

			}
, 			{
				"patchline" : 				{
					"source" : [ "obj-84", 1 ],
					"destination" : [ "obj-8", 0 ],
					"hidden" : 1,
					"midpoints" : [  ]
				}

			}
, 			{
				"patchline" : 				{
					"source" : [ "obj-84", 0 ],
					"destination" : [ "obj-3", 0 ],
					"hidden" : 1,
					"midpoints" : [  ]
				}

			}
, 			{
				"patchline" : 				{
					"source" : [ "obj-140", 0 ],
					"destination" : [ "obj-98", 1 ],
					"hidden" : 1,
					"midpoints" : [  ]
				}

			}
, 			{
				"patchline" : 				{
					"source" : [ "obj-139", 0 ],
					"destination" : [ "obj-115", 1 ],
					"hidden" : 1,
					"midpoints" : [  ]
				}

			}
, 			{
				"patchline" : 				{
					"source" : [ "obj-138", 0 ],
					"destination" : [ "obj-140", 1 ],
					"hidden" : 1,
					"midpoints" : [  ]
				}

			}
, 			{
				"patchline" : 				{
					"source" : [ "obj-137", 0 ],
					"destination" : [ "obj-139", 1 ],
					"hidden" : 1,
					"midpoints" : [  ]
				}

			}
, 			{
				"patchline" : 				{
					"source" : [ "obj-136", 1 ],
					"destination" : [ "obj-138", 0 ],
					"hidden" : 1,
					"midpoints" : [  ]
				}

			}
, 			{
				"patchline" : 				{
					"source" : [ "obj-136", 0 ],
					"destination" : [ "obj-137", 0 ],
					"hidden" : 1,
					"midpoints" : [  ]
				}

			}
, 			{
				"patchline" : 				{
					"source" : [ "obj-135", 1 ],
					"destination" : [ "obj-136", 0 ],
					"hidden" : 1,
					"midpoints" : [  ]
				}

			}
, 			{
				"patchline" : 				{
					"source" : [ "obj-135", 0 ],
					"destination" : [ "obj-80", 0 ],
					"hidden" : 1,
					"midpoints" : [  ]
				}

			}
, 			{
				"patchline" : 				{
					"source" : [ "obj-79", 1 ],
					"destination" : [ "obj-135", 0 ],
					"hidden" : 1,
					"midpoints" : [  ]
				}

			}
, 			{
				"patchline" : 				{
					"source" : [ "obj-134", 0 ],
					"destination" : [ "obj-27", 2 ],
					"hidden" : 1,
					"midpoints" : [  ]
				}

			}
, 			{
				"patchline" : 				{
					"source" : [ "obj-133", 0 ],
					"destination" : [ "obj-27", 3 ],
					"hidden" : 1,
					"midpoints" : [  ]
				}

			}
, 			{
				"patchline" : 				{
					"source" : [ "obj-98", 0 ],
					"destination" : [ "obj-133", 0 ],
					"hidden" : 1,
					"midpoints" : [  ]
				}

			}
, 			{
				"patchline" : 				{
					"source" : [ "obj-115", 0 ],
					"destination" : [ "obj-134", 0 ],
					"hidden" : 1,
					"midpoints" : [  ]
				}

			}
, 			{
				"patchline" : 				{
					"source" : [ "obj-19", 0 ],
					"destination" : [ "obj-98", 1 ],
					"hidden" : 1,
					"midpoints" : [  ]
				}

			}
, 			{
				"patchline" : 				{
					"source" : [ "obj-19", 0 ],
					"destination" : [ "obj-115", 1 ],
					"hidden" : 1,
					"midpoints" : [  ]
				}

			}
, 			{
				"patchline" : 				{
					"source" : [ "obj-28", 3 ],
					"destination" : [ "obj-98", 0 ],
					"hidden" : 1,
					"midpoints" : [  ]
				}

			}
, 			{
				"patchline" : 				{
					"source" : [ "obj-28", 2 ],
					"destination" : [ "obj-115", 0 ],
					"hidden" : 1,
					"midpoints" : [  ]
				}

			}
, 			{
				"patchline" : 				{
					"source" : [ "obj-31", 0 ],
					"destination" : [ "obj-27", 3 ],
					"hidden" : 1,
					"midpoints" : [  ]
				}

			}
, 			{
				"patchline" : 				{
					"source" : [ "obj-31", 0 ],
					"destination" : [ "obj-27", 2 ],
					"hidden" : 1,
					"midpoints" : [  ]
				}

			}
, 			{
				"patchline" : 				{
					"source" : [ "obj-25", 0 ],
					"destination" : [ "obj-27", 0 ],
					"hidden" : 1,
					"midpoints" : [  ]
				}

			}
, 			{
				"patchline" : 				{
					"source" : [ "obj-27", 0 ],
					"destination" : [ "obj-26", 0 ],
					"hidden" : 1,
					"midpoints" : [  ]
				}

			}
, 			{
				"patchline" : 				{
					"source" : [ "obj-24", 0 ],
					"destination" : [ "obj-27", 1 ],
					"hidden" : 1,
					"midpoints" : [  ]
				}

			}
, 			{
				"patchline" : 				{
					"source" : [ "obj-31", 0 ],
					"destination" : [ "obj-27", 1 ],
					"hidden" : 1,
					"midpoints" : [  ]
				}

			}
, 			{
				"patchline" : 				{
					"source" : [ "obj-28", 1 ],
					"destination" : [ "obj-32", 0 ],
					"hidden" : 1,
					"midpoints" : [  ]
				}

			}
, 			{
				"patchline" : 				{
					"source" : [ "obj-28", 0 ],
					"destination" : [ "obj-49", 0 ],
					"hidden" : 1,
					"midpoints" : [  ]
				}

			}
, 			{
				"patchline" : 				{
					"source" : [ "obj-11", 0 ],
					"destination" : [ "obj-28", 0 ],
					"hidden" : 1,
					"midpoints" : [  ]
				}

			}
, 			{
				"patchline" : 				{
					"source" : [ "obj-19", 1 ],
					"destination" : [ "obj-31", 0 ],
					"hidden" : 1,
					"midpoints" : [  ]
				}

			}
, 			{
				"patchline" : 				{
					"source" : [ "obj-19", 0 ],
					"destination" : [ "obj-32", 1 ],
					"hidden" : 1,
					"midpoints" : [  ]
				}

			}
, 			{
				"patchline" : 				{
					"source" : [ "obj-19", 0 ],
					"destination" : [ "obj-49", 1 ],
					"hidden" : 1,
					"midpoints" : [  ]
				}

			}
, 			{
				"patchline" : 				{
					"source" : [ "obj-5", 0 ],
					"destination" : [ "obj-19", 0 ],
					"hidden" : 1,
					"midpoints" : [  ]
				}

			}
, 			{
				"patchline" : 				{
					"source" : [ "obj-86", 0 ],
					"destination" : [ "obj-90", 0 ],
					"hidden" : 1,
					"midpoints" : [  ]
				}

			}
, 			{
				"patchline" : 				{
					"source" : [ "obj-14", 0 ],
					"destination" : [ "obj-17", 0 ],
					"hidden" : 1,
					"midpoints" : [  ]
				}

			}
, 			{
				"patchline" : 				{
					"source" : [ "obj-17", 0 ],
					"destination" : [ "obj-54", 0 ],
					"hidden" : 1,
					"midpoints" : [  ]
				}

			}
, 			{
				"patchline" : 				{
					"source" : [ "obj-17", 0 ],
					"destination" : [ "obj-2", 0 ],
					"hidden" : 1,
					"midpoints" : [  ]
				}

			}
, 			{
				"patchline" : 				{
					"source" : [ "obj-73", 0 ],
					"destination" : [ "obj-71", 0 ],
					"hidden" : 1,
					"midpoints" : [  ]
				}

			}
, 			{
				"patchline" : 				{
					"source" : [ "obj-21", 0 ],
					"destination" : [ "obj-16", 0 ],
					"hidden" : 1,
					"midpoints" : [  ]
				}

			}
, 			{
				"patchline" : 				{
					"source" : [ "obj-15", 0 ],
					"destination" : [ "obj-16", 0 ],
					"hidden" : 1,
					"midpoints" : [  ]
				}

			}
, 			{
				"patchline" : 				{
					"source" : [ "obj-18", 0 ],
					"destination" : [ "obj-16", 0 ],
					"hidden" : 1,
					"midpoints" : [  ]
				}

			}
, 			{
				"patchline" : 				{
					"source" : [ "obj-20", 0 ],
					"destination" : [ "obj-16", 0 ],
					"hidden" : 1,
					"midpoints" : [  ]
				}

			}
, 			{
				"patchline" : 				{
					"source" : [ "obj-52", 0 ],
					"destination" : [ "obj-54", 0 ],
					"hidden" : 1,
					"midpoints" : [  ]
				}

			}
, 			{
				"patchline" : 				{
					"source" : [ "obj-6", 0 ],
					"destination" : [ "obj-4", 0 ],
					"hidden" : 1,
					"midpoints" : [  ]
				}

			}
, 			{
				"patchline" : 				{
					"source" : [ "obj-11", 0 ],
					"destination" : [ "obj-2", 0 ],
					"hidden" : 1,
					"midpoints" : [  ]
				}

			}
, 			{
				"patchline" : 				{
					"source" : [ "obj-2", 0 ],
					"destination" : [ "obj-1", 0 ],
					"hidden" : 1,
					"midpoints" : [  ]
				}

			}
, 			{
				"patchline" : 				{
					"source" : [ "obj-12", 0 ],
					"destination" : [ "obj-29", 0 ],
					"hidden" : 1,
					"midpoints" : [  ]
				}

			}
, 			{
				"patchline" : 				{
					"source" : [ "obj-13", 0 ],
					"destination" : [ "obj-73", 0 ],
					"hidden" : 1,
					"midpoints" : [  ]
				}

			}
, 			{
				"patchline" : 				{
					"source" : [ "obj-13", 1 ],
					"destination" : [ "obj-14", 0 ],
					"hidden" : 1,
					"midpoints" : [  ]
				}

			}
, 			{
				"patchline" : 				{
					"source" : [ "obj-29", 0 ],
					"destination" : [ "obj-13", 0 ],
					"hidden" : 1,
					"midpoints" : [  ]
				}

			}
, 			{
				"patchline" : 				{
					"source" : [ "obj-9", 0 ],
					"destination" : [ "obj-12", 0 ],
					"hidden" : 1,
					"midpoints" : [  ]
				}

			}
, 			{
				"patchline" : 				{
					"source" : [ "obj-10", 0 ],
					"destination" : [ "obj-6", 0 ],
					"hidden" : 1,
					"midpoints" : [  ]
				}

			}
, 			{
				"patchline" : 				{
					"source" : [ "obj-54", 0 ],
					"destination" : [ "obj-51", 0 ],
					"hidden" : 1,
					"midpoints" : [  ]
				}

			}
, 			{
				"patchline" : 				{
					"source" : [ "obj-53", 0 ],
					"destination" : [ "obj-50", 0 ],
					"hidden" : 1,
					"midpoints" : [  ]
				}

			}
, 			{
				"patchline" : 				{
					"source" : [ "obj-51", 0 ],
					"destination" : [ "obj-53", 0 ],
					"hidden" : 1,
					"midpoints" : [  ]
				}

			}
, 			{
				"patchline" : 				{
					"source" : [ "obj-6", 0 ],
					"destination" : [ "obj-7", 0 ],
					"hidden" : 1,
					"midpoints" : [  ]
				}

			}
, 			{
				"patchline" : 				{
					"source" : [ "obj-72", 0 ],
					"destination" : [ "obj-16", 0 ],
					"hidden" : 1,
					"midpoints" : [  ]
				}

			}
, 			{
				"patchline" : 				{
					"source" : [ "obj-4", 0 ],
					"destination" : [ "obj-16", 0 ],
					"hidden" : 1,
					"midpoints" : [  ]
				}

			}
, 			{
				"patchline" : 				{
					"source" : [ "obj-1", 0 ],
					"destination" : [ "obj-16", 0 ],
					"hidden" : 1,
					"midpoints" : [  ]
				}

			}
, 			{
				"patchline" : 				{
					"source" : [ "obj-77", 1 ],
					"destination" : [ "obj-21", 0 ],
					"hidden" : 1,
					"midpoints" : [  ]
				}

			}
, 			{
				"patchline" : 				{
					"source" : [ "obj-77", 0 ],
					"destination" : [ "obj-15", 0 ],
					"hidden" : 1,
					"midpoints" : [  ]
				}

			}
, 			{
				"patchline" : 				{
					"source" : [ "obj-16", 0 ],
					"destination" : [ "obj-81", 0 ],
					"hidden" : 1,
					"midpoints" : [  ]
				}

			}
, 			{
				"patchline" : 				{
					"source" : [ "obj-81", 0 ],
					"destination" : [ "obj-82", 0 ],
					"hidden" : 1,
					"midpoints" : [  ]
				}

			}
, 			{
				"patchline" : 				{
					"source" : [ "obj-82", 1 ],
					"destination" : [ "obj-83", 0 ],
					"hidden" : 1,
					"midpoints" : [  ]
				}

			}
, 			{
				"patchline" : 				{
					"source" : [ "obj-78", 0 ],
					"destination" : [ "obj-18", 0 ],
					"hidden" : 1,
					"midpoints" : [  ]
				}

			}
, 			{
				"patchline" : 				{
					"source" : [ "obj-83", 0 ],
					"destination" : [ "obj-20", 0 ],
					"hidden" : 1,
					"midpoints" : [  ]
				}

			}
, 			{
				"patchline" : 				{
					"source" : [ "obj-76", 0 ],
					"destination" : [ "obj-78", 0 ],
					"hidden" : 1,
					"midpoints" : [  ]
				}

			}
, 			{
				"patchline" : 				{
					"source" : [ "obj-22", 0 ],
					"destination" : [ "obj-77", 0 ],
					"hidden" : 1,
					"midpoints" : [  ]
				}

			}
, 			{
				"patchline" : 				{
					"source" : [ "obj-49", 0 ],
					"destination" : [ "obj-25", 0 ],
					"hidden" : 1,
					"midpoints" : [  ]
				}

			}
, 			{
				"patchline" : 				{
					"source" : [ "obj-3", 0 ],
					"destination" : [ "obj-49", 1 ],
					"hidden" : 1,
					"midpoints" : [  ]
				}

			}
, 			{
				"patchline" : 				{
					"source" : [ "obj-8", 0 ],
					"destination" : [ "obj-32", 1 ],
					"hidden" : 1,
					"midpoints" : [  ]
				}

			}
, 			{
				"patchline" : 				{
					"source" : [ "obj-32", 0 ],
					"destination" : [ "obj-24", 0 ],
					"hidden" : 1,
					"midpoints" : [  ]
				}

			}
, 			{
				"patchline" : 				{
					"source" : [ "obj-79", 0 ],
					"destination" : [ "obj-3", 1 ],
					"hidden" : 1,
					"midpoints" : [  ]
				}

			}
, 			{
				"patchline" : 				{
					"source" : [ "obj-80", 0 ],
					"destination" : [ "obj-8", 1 ],
					"hidden" : 1,
					"midpoints" : [  ]
				}

			}
, 			{
				"patchline" : 				{
					"source" : [ "obj-52", 0 ],
					"destination" : [ "obj-85", 0 ],
					"hidden" : 1,
					"midpoints" : [  ]
				}

			}
, 			{
				"patchline" : 				{
					"source" : [ "obj-54", 0 ],
					"destination" : [ "obj-85", 0 ],
					"hidden" : 1,
					"midpoints" : [  ]
				}

			}
, 			{
				"patchline" : 				{
					"source" : [ "obj-85", 1 ],
					"destination" : [ "obj-87", 0 ],
					"hidden" : 1,
					"midpoints" : [  ]
				}

			}
 ]
	}

}
