{
	"patcher" : 	{
		"fileversion" : 1,
		"rect" : [ 460.0, 197.0, 769.0, 429.0 ],
		"bglocked" : 0,
		"defrect" : [ 460.0, 197.0, 769.0, 429.0 ],
		"openrect" : [ 0.0, 0.0, 0.0, 0.0 ],
		"openinpresentation" : 0,
		"default_fontsize" : 12.0,
		"default_fontface" : 0,
		"default_fontname" : "Arial",
		"gridonopen" : 0,
		"gridsize" : [ 15.0, 15.0 ],
		"gridsnaponopen" : 0,
		"toolbarvisible" : 1,
		"boxanimatetime" : 200,
		"imprint" : 0,
		"boxes" : [ 			{
				"box" : 				{
					"maxclass" : "newobj",
					"text" : "t 1",
					"outlettype" : [ "int" ],
					"patching_rect" : [ 166.0, 72.0, 24.0, 20.0 ],
					"fontname" : "Arial",
					"id" : "obj-11",
					"numinlets" : 1,
					"fontsize" : 12.0,
					"numoutlets" : 1
				}

			}
, 			{
				"box" : 				{
					"maxclass" : "newobj",
					"text" : "gate 1 0",
					"outlettype" : [ "" ],
					"patching_rect" : [ 166.0, 117.0, 121.0, 20.0 ],
					"fontname" : "Arial",
					"id" : "obj-10",
					"numinlets" : 2,
					"fontsize" : 12.0,
					"numoutlets" : 1
				}

			}
, 			{
				"box" : 				{
					"maxclass" : "inlet",
					"outlettype" : [ "" ],
					"patching_rect" : [ 166.0, 36.0, 25.0, 25.0 ],
					"id" : "obj-9",
					"numinlets" : 0,
					"numoutlets" : 1,
					"comment" : ""
				}

			}
, 			{
				"box" : 				{
					"maxclass" : "outlet",
					"patching_rect" : [ 181.0, 388.0, 25.0, 25.0 ],
					"id" : "obj-8",
					"numinlets" : 1,
					"numoutlets" : 0,
					"comment" : ""
				}

			}
, 			{
				"box" : 				{
					"maxclass" : "newobj",
					"text" : "t 0",
					"outlettype" : [ "int" ],
					"patching_rect" : [ 212.0, 234.0, 24.0, 20.0 ],
					"fontname" : "Arial",
					"id" : "obj-7",
					"numinlets" : 1,
					"fontsize" : 12.0,
					"numoutlets" : 1
				}

			}
, 			{
				"box" : 				{
					"maxclass" : "newobj",
					"text" : "t 0 b",
					"outlettype" : [ "int", "bang" ],
					"patching_rect" : [ 166.0, 324.0, 34.0, 20.0 ],
					"fontname" : "Arial",
					"id" : "obj-6",
					"numinlets" : 1,
					"fontsize" : 12.0,
					"numoutlets" : 2
				}

			}
, 			{
				"box" : 				{
					"maxclass" : "newobj",
					"text" : "t 1",
					"outlettype" : [ "int" ],
					"patching_rect" : [ 166.0, 234.0, 24.0, 20.0 ],
					"fontname" : "Arial",
					"id" : "obj-5",
					"numinlets" : 1,
					"fontsize" : 12.0,
					"numoutlets" : 1
				}

			}
, 			{
				"box" : 				{
					"maxclass" : "newobj",
					"text" : "gate 1 0",
					"outlettype" : [ "" ],
					"patching_rect" : [ 166.0, 291.0, 121.0, 20.0 ],
					"fontname" : "Arial",
					"id" : "obj-4",
					"numinlets" : 2,
					"fontsize" : 12.0,
					"numoutlets" : 1
				}

			}
, 			{
				"box" : 				{
					"maxclass" : "newobj",
					"text" : "route #1",
					"outlettype" : [ "", "" ],
					"patching_rect" : [ 166.0, 200.0, 65.0, 20.0 ],
					"fontname" : "Arial",
					"id" : "obj-3",
					"numinlets" : 1,
					"fontsize" : 12.0,
					"numoutlets" : 2
				}

			}
, 			{
				"box" : 				{
					"maxclass" : "newobj",
					"text" : "route /acknowledge /error /ready",
					"outlettype" : [ "", "", "", "" ],
					"patching_rect" : [ 166.0, 158.0, 323.0, 20.0 ],
					"fontname" : "Arial",
					"id" : "obj-2",
					"numinlets" : 1,
					"fontsize" : 12.0,
					"numoutlets" : 4
				}

			}
, 			{
				"box" : 				{
					"maxclass" : "newobj",
					"text" : "r serverreceive",
					"outlettype" : [ "" ],
					"patching_rect" : [ 268.0, 86.0, 90.0, 20.0 ],
					"fontname" : "Arial",
					"id" : "obj-1",
					"numinlets" : 0,
					"fontsize" : 12.0,
					"numoutlets" : 1
				}

			}
 ],
		"lines" : [ 			{
				"patchline" : 				{
					"source" : [ "obj-6", 0 ],
					"destination" : [ "obj-10", 0 ],
					"hidden" : 0,
					"midpoints" : [ 175.5, 360.0, 81.0, 360.0, 81.0, 97.0, 175.5, 97.0 ]
				}

			}
, 			{
				"patchline" : 				{
					"source" : [ "obj-6", 0 ],
					"destination" : [ "obj-4", 0 ],
					"hidden" : 0,
					"midpoints" : [ 175.5, 355.0, 98.0, 355.0, 98.0, 283.0, 175.5, 283.0 ]
				}

			}
, 			{
				"patchline" : 				{
					"source" : [ "obj-6", 1 ],
					"destination" : [ "obj-8", 0 ],
					"hidden" : 0,
					"midpoints" : [  ]
				}

			}
, 			{
				"patchline" : 				{
					"source" : [ "obj-4", 0 ],
					"destination" : [ "obj-6", 0 ],
					"hidden" : 0,
					"midpoints" : [  ]
				}

			}
, 			{
				"patchline" : 				{
					"source" : [ "obj-1", 0 ],
					"destination" : [ "obj-10", 1 ],
					"hidden" : 0,
					"midpoints" : [  ]
				}

			}
, 			{
				"patchline" : 				{
					"source" : [ "obj-2", 0 ],
					"destination" : [ "obj-3", 0 ],
					"hidden" : 0,
					"midpoints" : [  ]
				}

			}
, 			{
				"patchline" : 				{
					"source" : [ "obj-3", 0 ],
					"destination" : [ "obj-5", 0 ],
					"hidden" : 0,
					"midpoints" : [  ]
				}

			}
, 			{
				"patchline" : 				{
					"source" : [ "obj-5", 0 ],
					"destination" : [ "obj-4", 0 ],
					"hidden" : 0,
					"midpoints" : [  ]
				}

			}
, 			{
				"patchline" : 				{
					"source" : [ "obj-2", 2 ],
					"destination" : [ "obj-4", 1 ],
					"hidden" : 0,
					"midpoints" : [ 378.166656, 272.0, 277.5, 272.0 ]
				}

			}
, 			{
				"patchline" : 				{
					"source" : [ "obj-3", 1 ],
					"destination" : [ "obj-7", 0 ],
					"hidden" : 0,
					"midpoints" : [  ]
				}

			}
, 			{
				"patchline" : 				{
					"source" : [ "obj-2", 1 ],
					"destination" : [ "obj-7", 0 ],
					"hidden" : 0,
					"midpoints" : [ 276.833344, 224.0, 221.5, 224.0 ]
				}

			}
, 			{
				"patchline" : 				{
					"source" : [ "obj-7", 0 ],
					"destination" : [ "obj-4", 0 ],
					"hidden" : 0,
					"midpoints" : [ 221.5, 275.0, 175.5, 275.0 ]
				}

			}
, 			{
				"patchline" : 				{
					"source" : [ "obj-10", 0 ],
					"destination" : [ "obj-2", 0 ],
					"hidden" : 0,
					"midpoints" : [  ]
				}

			}
, 			{
				"patchline" : 				{
					"source" : [ "obj-11", 0 ],
					"destination" : [ "obj-10", 0 ],
					"hidden" : 0,
					"midpoints" : [  ]
				}

			}
, 			{
				"patchline" : 				{
					"source" : [ "obj-9", 0 ],
					"destination" : [ "obj-11", 0 ],
					"hidden" : 0,
					"midpoints" : [  ]
				}

			}
, 			{
				"patchline" : 				{
					"source" : [ "obj-7", 0 ],
					"destination" : [ "obj-10", 0 ],
					"hidden" : 0,
					"midpoints" : [ 221.5, 275.0, 134.0, 275.0, 134.0, 107.0, 175.5, 107.0 ]
				}

			}
 ]
	}

}
