{
	"patcher" : 	{
		"fileversion" : 1,
		"rect" : [ 840.0, 120.0, 694.0, 753.0 ],
		"bglocked" : 0,
		"defrect" : [ 840.0, 120.0, 694.0, 753.0 ],
		"openrect" : [ 0.0, 0.0, 0.0, 0.0 ],
		"openinpresentation" : 0,
		"default_fontsize" : 12.0,
		"default_fontface" : 0,
		"default_fontname" : "Arial",
		"gridonopen" : 0,
		"gridsize" : [ 15.0, 15.0 ],
		"gridsnaponopen" : 0,
		"toolbarvisible" : 1,
		"boxanimatetime" : 200,
		"imprint" : 0,
		"boxes" : [ 			{
				"box" : 				{
					"maxclass" : "bpatcher",
					"presentation_rect" : [ 13.0, 718.0, 0.0, 0.0 ],
					"numinlets" : 0,
					"patching_rect" : [ 13.0, 458.0, 332.0, 21.0 ],
					"id" : "obj-8",
					"numoutlets" : 0,
					"name" : "player.displayslot.maxpat",
					"args" : [ 35 ]
				}

			}
, 			{
				"box" : 				{
					"maxclass" : "bpatcher",
					"presentation_rect" : [ 13.0, 698.0, 0.0, 0.0 ],
					"numinlets" : 0,
					"patching_rect" : [ 13.0, 718.0, 332.0, 21.0 ],
					"id" : "obj-9",
					"numoutlets" : 0,
					"name" : "player.displayslot.maxpat",
					"args" : [ 48 ]
				}

			}
, 			{
				"box" : 				{
					"maxclass" : "bpatcher",
					"presentation_rect" : [ 13.0, 678.0, 0.0, 0.0 ],
					"numinlets" : 0,
					"patching_rect" : [ 13.0, 698.0, 332.0, 21.0 ],
					"id" : "obj-10",
					"numoutlets" : 0,
					"name" : "player.displayslot.maxpat",
					"args" : [ 47 ]
				}

			}
, 			{
				"box" : 				{
					"maxclass" : "bpatcher",
					"presentation_rect" : [ 13.0, 658.0, 0.0, 0.0 ],
					"numinlets" : 0,
					"patching_rect" : [ 13.0, 678.0, 332.0, 21.0 ],
					"id" : "obj-11",
					"numoutlets" : 0,
					"name" : "player.displayslot.maxpat",
					"args" : [ 46 ]
				}

			}
, 			{
				"box" : 				{
					"maxclass" : "bpatcher",
					"presentation_rect" : [ 13.0, 638.0, 0.0, 0.0 ],
					"numinlets" : 0,
					"patching_rect" : [ 13.0, 658.0, 332.0, 21.0 ],
					"id" : "obj-12",
					"numoutlets" : 0,
					"name" : "player.displayslot.maxpat",
					"args" : [ 45 ]
				}

			}
, 			{
				"box" : 				{
					"maxclass" : "bpatcher",
					"presentation_rect" : [ 13.0, 618.0, 0.0, 0.0 ],
					"numinlets" : 0,
					"patching_rect" : [ 13.0, 638.0, 332.0, 21.0 ],
					"id" : "obj-16",
					"numoutlets" : 0,
					"name" : "player.displayslot.maxpat",
					"args" : [ 44 ]
				}

			}
, 			{
				"box" : 				{
					"maxclass" : "bpatcher",
					"presentation_rect" : [ 13.0, 598.0, 0.0, 0.0 ],
					"numinlets" : 0,
					"patching_rect" : [ 13.0, 618.0, 332.0, 21.0 ],
					"id" : "obj-17",
					"numoutlets" : 0,
					"name" : "player.displayslot.maxpat",
					"args" : [ 43 ]
				}

			}
, 			{
				"box" : 				{
					"maxclass" : "bpatcher",
					"presentation_rect" : [ 13.0, 578.0, 0.0, 0.0 ],
					"numinlets" : 0,
					"patching_rect" : [ 13.0, 598.0, 332.0, 21.0 ],
					"id" : "obj-18",
					"numoutlets" : 0,
					"name" : "player.displayslot.maxpat",
					"args" : [ 42 ]
				}

			}
, 			{
				"box" : 				{
					"maxclass" : "bpatcher",
					"presentation_rect" : [ 13.0, 558.0, 0.0, 0.0 ],
					"numinlets" : 0,
					"patching_rect" : [ 13.0, 578.0, 332.0, 21.0 ],
					"id" : "obj-19",
					"numoutlets" : 0,
					"name" : "player.displayslot.maxpat",
					"args" : [ 41 ]
				}

			}
, 			{
				"box" : 				{
					"maxclass" : "bpatcher",
					"presentation_rect" : [ 13.0, 538.0, 0.0, 0.0 ],
					"numinlets" : 0,
					"patching_rect" : [ 13.0, 558.0, 332.0, 21.0 ],
					"id" : "obj-20",
					"numoutlets" : 0,
					"name" : "player.displayslot.maxpat",
					"args" : [ 40 ]
				}

			}
, 			{
				"box" : 				{
					"maxclass" : "bpatcher",
					"presentation_rect" : [ 13.0, 518.0, 0.0, 0.0 ],
					"numinlets" : 0,
					"patching_rect" : [ 13.0, 538.0, 332.0, 21.0 ],
					"id" : "obj-21",
					"numoutlets" : 0,
					"name" : "player.displayslot.maxpat",
					"args" : [ 39 ]
				}

			}
, 			{
				"box" : 				{
					"maxclass" : "bpatcher",
					"presentation_rect" : [ 13.0, 498.0, 0.0, 0.0 ],
					"numinlets" : 0,
					"patching_rect" : [ 13.0, 518.0, 332.0, 21.0 ],
					"id" : "obj-22",
					"numoutlets" : 0,
					"name" : "player.displayslot.maxpat",
					"args" : [ 38 ]
				}

			}
, 			{
				"box" : 				{
					"maxclass" : "bpatcher",
					"presentation_rect" : [ 13.0, 478.0, 0.0, 0.0 ],
					"numinlets" : 0,
					"patching_rect" : [ 13.0, 498.0, 332.0, 21.0 ],
					"id" : "obj-23",
					"numoutlets" : 0,
					"name" : "player.displayslot.maxpat",
					"args" : [ 37 ]
				}

			}
, 			{
				"box" : 				{
					"maxclass" : "bpatcher",
					"presentation_rect" : [ 13.0, 458.0, 0.0, 0.0 ],
					"numinlets" : 0,
					"patching_rect" : [ 13.0, 478.0, 332.0, 21.0 ],
					"id" : "obj-25",
					"numoutlets" : 0,
					"name" : "player.displayslot.maxpat",
					"args" : [ 36 ]
				}

			}
, 			{
				"box" : 				{
					"maxclass" : "bpatcher",
					"presentation_rect" : [ 13.0, 438.0, 0.0, 0.0 ],
					"numinlets" : 0,
					"patching_rect" : [ 13.0, 438.0, 332.0, 21.0 ],
					"id" : "obj-26",
					"numoutlets" : 0,
					"name" : "player.displayslot.maxpat",
					"args" : [ 34 ]
				}

			}
, 			{
				"box" : 				{
					"maxclass" : "bpatcher",
					"presentation_rect" : [ 13.0, 418.0, 0.0, 0.0 ],
					"numinlets" : 0,
					"patching_rect" : [ 13.0, 418.0, 332.0, 21.0 ],
					"id" : "obj-32",
					"numoutlets" : 0,
					"name" : "player.displayslot.maxpat",
					"args" : [ 33 ]
				}

			}
, 			{
				"box" : 				{
					"maxclass" : "bpatcher",
					"presentation_rect" : [ 348.0, 718.0, 0.0, 0.0 ],
					"numinlets" : 0,
					"patching_rect" : [ 348.0, 718.0, 332.0, 21.0 ],
					"id" : "obj-33",
					"numoutlets" : 0,
					"name" : "player.displayslot.maxpat",
					"args" : [ 64 ]
				}

			}
, 			{
				"box" : 				{
					"maxclass" : "bpatcher",
					"presentation_rect" : [ 348.0, 698.0, 0.0, 0.0 ],
					"numinlets" : 0,
					"patching_rect" : [ 348.0, 698.0, 332.0, 21.0 ],
					"id" : "obj-34",
					"numoutlets" : 0,
					"name" : "player.displayslot.maxpat",
					"args" : [ 63 ]
				}

			}
, 			{
				"box" : 				{
					"maxclass" : "bpatcher",
					"presentation_rect" : [ 348.0, 678.0, 0.0, 0.0 ],
					"numinlets" : 0,
					"patching_rect" : [ 348.0, 678.0, 332.0, 21.0 ],
					"id" : "obj-35",
					"numoutlets" : 0,
					"name" : "player.displayslot.maxpat",
					"args" : [ 62 ]
				}

			}
, 			{
				"box" : 				{
					"maxclass" : "bpatcher",
					"presentation_rect" : [ 348.0, 658.0, 0.0, 0.0 ],
					"numinlets" : 0,
					"patching_rect" : [ 348.0, 658.0, 332.0, 21.0 ],
					"id" : "obj-36",
					"numoutlets" : 0,
					"name" : "player.displayslot.maxpat",
					"args" : [ 61 ]
				}

			}
, 			{
				"box" : 				{
					"maxclass" : "bpatcher",
					"presentation_rect" : [ 348.0, 638.0, 0.0, 0.0 ],
					"numinlets" : 0,
					"patching_rect" : [ 348.0, 638.0, 332.0, 21.0 ],
					"id" : "obj-37",
					"numoutlets" : 0,
					"name" : "player.displayslot.maxpat",
					"args" : [ 60 ]
				}

			}
, 			{
				"box" : 				{
					"maxclass" : "bpatcher",
					"presentation_rect" : [ 348.0, 618.0, 0.0, 0.0 ],
					"numinlets" : 0,
					"patching_rect" : [ 348.0, 618.0, 332.0, 21.0 ],
					"id" : "obj-38",
					"numoutlets" : 0,
					"name" : "player.displayslot.maxpat",
					"args" : [ 59 ]
				}

			}
, 			{
				"box" : 				{
					"maxclass" : "bpatcher",
					"presentation_rect" : [ 348.0, 598.0, 0.0, 0.0 ],
					"numinlets" : 0,
					"patching_rect" : [ 348.0, 598.0, 332.0, 21.0 ],
					"id" : "obj-39",
					"numoutlets" : 0,
					"name" : "player.displayslot.maxpat",
					"args" : [ 58 ]
				}

			}
, 			{
				"box" : 				{
					"maxclass" : "bpatcher",
					"presentation_rect" : [ 348.0, 578.0, 0.0, 0.0 ],
					"numinlets" : 0,
					"patching_rect" : [ 348.0, 578.0, 332.0, 21.0 ],
					"id" : "obj-40",
					"numoutlets" : 0,
					"name" : "player.displayslot.maxpat",
					"args" : [ 57 ]
				}

			}
, 			{
				"box" : 				{
					"maxclass" : "bpatcher",
					"presentation_rect" : [ 348.0, 558.0, 0.0, 0.0 ],
					"numinlets" : 0,
					"patching_rect" : [ 348.0, 558.0, 332.0, 21.0 ],
					"id" : "obj-41",
					"numoutlets" : 0,
					"name" : "player.displayslot.maxpat",
					"args" : [ 56 ]
				}

			}
, 			{
				"box" : 				{
					"maxclass" : "bpatcher",
					"presentation_rect" : [ 348.0, 538.0, 0.0, 0.0 ],
					"numinlets" : 0,
					"patching_rect" : [ 348.0, 538.0, 332.0, 21.0 ],
					"id" : "obj-42",
					"numoutlets" : 0,
					"name" : "player.displayslot.maxpat",
					"args" : [ 55 ]
				}

			}
, 			{
				"box" : 				{
					"maxclass" : "bpatcher",
					"presentation_rect" : [ 348.0, 518.0, 0.0, 0.0 ],
					"numinlets" : 0,
					"patching_rect" : [ 348.0, 518.0, 332.0, 21.0 ],
					"id" : "obj-47",
					"numoutlets" : 0,
					"name" : "player.displayslot.maxpat",
					"args" : [ 54 ]
				}

			}
, 			{
				"box" : 				{
					"maxclass" : "bpatcher",
					"presentation_rect" : [ 348.0, 498.0, 0.0, 0.0 ],
					"numinlets" : 0,
					"patching_rect" : [ 348.0, 498.0, 332.0, 21.0 ],
					"id" : "obj-48",
					"numoutlets" : 0,
					"name" : "player.displayslot.maxpat",
					"args" : [ 53 ]
				}

			}
, 			{
				"box" : 				{
					"maxclass" : "bpatcher",
					"presentation_rect" : [ 348.0, 478.0, 0.0, 0.0 ],
					"numinlets" : 0,
					"patching_rect" : [ 348.0, 478.0, 332.0, 21.0 ],
					"id" : "obj-49",
					"numoutlets" : 0,
					"name" : "player.displayslot.maxpat",
					"args" : [ 52 ]
				}

			}
, 			{
				"box" : 				{
					"maxclass" : "bpatcher",
					"presentation_rect" : [ 348.0, 458.0, 0.0, 0.0 ],
					"numinlets" : 0,
					"patching_rect" : [ 348.0, 458.0, 332.0, 21.0 ],
					"id" : "obj-50",
					"numoutlets" : 0,
					"name" : "player.displayslot.maxpat",
					"args" : [ 51 ]
				}

			}
, 			{
				"box" : 				{
					"maxclass" : "bpatcher",
					"presentation_rect" : [ 348.0, 438.0, 0.0, 0.0 ],
					"numinlets" : 0,
					"patching_rect" : [ 348.0, 438.0, 332.0, 21.0 ],
					"id" : "obj-51",
					"numoutlets" : 0,
					"name" : "player.displayslot.maxpat",
					"args" : [ 50 ]
				}

			}
, 			{
				"box" : 				{
					"maxclass" : "bpatcher",
					"presentation_rect" : [ 348.0, 418.0, 0.0, 0.0 ],
					"numinlets" : 0,
					"patching_rect" : [ 348.0, 418.0, 332.0, 21.0 ],
					"id" : "obj-52",
					"numoutlets" : 0,
					"name" : "player.displayslot.maxpat",
					"args" : [ 49 ]
				}

			}
, 			{
				"box" : 				{
					"maxclass" : "newobj",
					"text" : "t init",
					"hidden" : 1,
					"numinlets" : 1,
					"patching_rect" : [ 6.0, -29.0, 33.0, 20.0 ],
					"id" : "obj-7",
					"fontname" : "Arial",
					"numoutlets" : 1,
					"outlettype" : [ "init" ],
					"fontsize" : 12.0
				}

			}
, 			{
				"box" : 				{
					"maxclass" : "newobj",
					"text" : "route init",
					"hidden" : 1,
					"numinlets" : 1,
					"patching_rect" : [ 6.0, -56.0, 57.0, 20.0 ],
					"id" : "obj-6",
					"fontname" : "Arial",
					"numoutlets" : 2,
					"outlettype" : [ "", "" ],
					"fontsize" : 12.0
				}

			}
, 			{
				"box" : 				{
					"maxclass" : "inlet",
					"hidden" : 1,
					"numinlets" : 0,
					"patching_rect" : [ 6.0, -88.0, 25.0, 25.0 ],
					"id" : "obj-2",
					"numoutlets" : 1,
					"outlettype" : [ "" ],
					"comment" : ""
				}

			}
, 			{
				"box" : 				{
					"maxclass" : "newobj",
					"text" : "t open",
					"hidden" : 1,
					"numinlets" : 1,
					"patching_rect" : [ 741.0, -23.0, 44.0, 20.0 ],
					"id" : "obj-3",
					"fontname" : "Arial",
					"numoutlets" : 1,
					"outlettype" : [ "open" ],
					"fontsize" : 12.0
				}

			}
, 			{
				"box" : 				{
					"maxclass" : "newobj",
					"text" : "pcontrol",
					"hidden" : 1,
					"numinlets" : 1,
					"patching_rect" : [ 739.0, 7.0, 53.0, 20.0 ],
					"id" : "obj-4",
					"fontname" : "Arial",
					"numoutlets" : 1,
					"outlettype" : [ "" ],
					"fontsize" : 12.0
				}

			}
, 			{
				"box" : 				{
					"maxclass" : "newobj",
					"text" : "solutions-map",
					"hidden" : 1,
					"numinlets" : 1,
					"patching_rect" : [ 739.0, 36.0, 85.0, 20.0 ],
					"id" : "obj-5",
					"fontname" : "Arial",
					"numoutlets" : 0,
					"fontsize" : 12.0
				}

			}
, 			{
				"box" : 				{
					"maxclass" : "textbutton",
					"numinlets" : 1,
					"patching_rect" : [ 616.0, 28.0, 71.0, 22.0 ],
					"id" : "obj-1",
					"fontname" : "Arial",
					"numoutlets" : 3,
					"text" : "Map",
					"outlettype" : [ "", "", "int" ],
					"fontsize" : 12.0
				}

			}
, 			{
				"box" : 				{
					"maxclass" : "newobj",
					"text" : "player",
					"hidden" : 1,
					"numinlets" : 0,
					"patching_rect" : [ 706.0, 80.0, 64.0, 20.0 ],
					"id" : "obj-31",
					"fontname" : "Arial",
					"numoutlets" : 0,
					"fontsize" : 12.0
				}

			}
, 			{
				"box" : 				{
					"maxclass" : "textbutton",
					"numinlets" : 1,
					"patching_rect" : [ 616.0, 53.0, 71.0, 22.0 ],
					"id" : "obj-89",
					"fontname" : "Arial",
					"numoutlets" : 3,
					"text" : "Mixboard",
					"outlettype" : [ "", "", "int" ],
					"fontsize" : 12.0
				}

			}
, 			{
				"box" : 				{
					"maxclass" : "newobj",
					"text" : "dac~",
					"hidden" : 1,
					"numinlets" : 2,
					"patching_rect" : [ 847.0, 56.0, 65.0, 20.0 ],
					"id" : "obj-24",
					"fontname" : "Arial",
					"numoutlets" : 0,
					"fontsize" : 12.0
				}

			}
, 			{
				"box" : 				{
					"maxclass" : "newobj",
					"text" : "t open",
					"hidden" : 1,
					"numinlets" : 1,
					"patching_rect" : [ 849.0, -29.0, 44.0, 20.0 ],
					"id" : "obj-92",
					"fontname" : "Arial",
					"numoutlets" : 1,
					"outlettype" : [ "open" ],
					"fontsize" : 12.0
				}

			}
, 			{
				"box" : 				{
					"maxclass" : "newobj",
					"text" : "pcontrol",
					"hidden" : 1,
					"numinlets" : 1,
					"patching_rect" : [ 847.0, 7.0, 53.0, 20.0 ],
					"id" : "obj-29",
					"fontname" : "Arial",
					"numoutlets" : 1,
					"outlettype" : [ "" ],
					"fontsize" : 12.0
				}

			}
, 			{
				"box" : 				{
					"maxclass" : "newobj",
					"text" : "mixboard",
					"hidden" : 1,
					"numinlets" : 1,
					"patching_rect" : [ 847.0, 30.0, 65.0, 20.0 ],
					"id" : "obj-86",
					"fontname" : "Arial",
					"numoutlets" : 2,
					"outlettype" : [ "signal", "signal" ],
					"fontsize" : 12.0
				}

			}
, 			{
				"box" : 				{
					"maxclass" : "bpatcher",
					"numinlets" : 0,
					"patching_rect" : [ 13.0, 390.0, 332.0, 21.0 ],
					"id" : "obj-43",
					"numoutlets" : 0,
					"name" : "player.displayslot.maxpat",
					"args" : [ 16 ]
				}

			}
, 			{
				"box" : 				{
					"maxclass" : "bpatcher",
					"numinlets" : 0,
					"patching_rect" : [ 13.0, 370.0, 332.0, 21.0 ],
					"id" : "obj-44",
					"numoutlets" : 0,
					"name" : "player.displayslot.maxpat",
					"args" : [ 15 ]
				}

			}
, 			{
				"box" : 				{
					"maxclass" : "bpatcher",
					"numinlets" : 0,
					"patching_rect" : [ 13.0, 350.0, 332.0, 21.0 ],
					"id" : "obj-45",
					"numoutlets" : 0,
					"name" : "player.displayslot.maxpat",
					"args" : [ 14 ]
				}

			}
, 			{
				"box" : 				{
					"maxclass" : "bpatcher",
					"numinlets" : 0,
					"patching_rect" : [ 13.0, 330.0, 332.0, 21.0 ],
					"id" : "obj-46",
					"numoutlets" : 0,
					"name" : "player.displayslot.maxpat",
					"args" : [ 13 ]
				}

			}
, 			{
				"box" : 				{
					"maxclass" : "bpatcher",
					"numinlets" : 0,
					"patching_rect" : [ 13.0, 310.0, 332.0, 21.0 ],
					"id" : "obj-13",
					"numoutlets" : 0,
					"name" : "player.displayslot.maxpat",
					"args" : [ 12 ]
				}

			}
, 			{
				"box" : 				{
					"maxclass" : "bpatcher",
					"numinlets" : 0,
					"patching_rect" : [ 13.0, 290.0, 332.0, 21.0 ],
					"id" : "obj-14",
					"numoutlets" : 0,
					"name" : "player.displayslot.maxpat",
					"args" : [ 11 ]
				}

			}
, 			{
				"box" : 				{
					"maxclass" : "bpatcher",
					"numinlets" : 0,
					"patching_rect" : [ 13.0, 270.0, 332.0, 21.0 ],
					"id" : "obj-15",
					"numoutlets" : 0,
					"name" : "player.displayslot.maxpat",
					"args" : [ 10 ]
				}

			}
, 			{
				"box" : 				{
					"maxclass" : "bpatcher",
					"numinlets" : 0,
					"patching_rect" : [ 13.0, 250.0, 332.0, 21.0 ],
					"id" : "obj-27",
					"numoutlets" : 0,
					"name" : "player.displayslot.maxpat",
					"args" : [ 9 ]
				}

			}
, 			{
				"box" : 				{
					"maxclass" : "bpatcher",
					"numinlets" : 0,
					"patching_rect" : [ 13.0, 230.0, 332.0, 21.0 ],
					"id" : "obj-28",
					"numoutlets" : 0,
					"name" : "player.displayslot.maxpat",
					"args" : [ 8 ]
				}

			}
, 			{
				"box" : 				{
					"maxclass" : "bpatcher",
					"numinlets" : 0,
					"patching_rect" : [ 13.0, 210.0, 332.0, 21.0 ],
					"id" : "obj-57",
					"numoutlets" : 0,
					"name" : "player.displayslot.maxpat",
					"args" : [ 7 ]
				}

			}
, 			{
				"box" : 				{
					"maxclass" : "bpatcher",
					"numinlets" : 0,
					"patching_rect" : [ 13.0, 190.0, 332.0, 21.0 ],
					"id" : "obj-58",
					"numoutlets" : 0,
					"name" : "player.displayslot.maxpat",
					"args" : [ 6 ]
				}

			}
, 			{
				"box" : 				{
					"maxclass" : "bpatcher",
					"numinlets" : 0,
					"patching_rect" : [ 13.0, 170.0, 332.0, 21.0 ],
					"id" : "obj-59",
					"numoutlets" : 0,
					"name" : "player.displayslot.maxpat",
					"args" : [ 5 ]
				}

			}
, 			{
				"box" : 				{
					"maxclass" : "bpatcher",
					"numinlets" : 0,
					"patching_rect" : [ 13.0, 150.0, 332.0, 21.0 ],
					"id" : "obj-60",
					"numoutlets" : 0,
					"name" : "player.displayslot.maxpat",
					"args" : [ 4 ]
				}

			}
, 			{
				"box" : 				{
					"maxclass" : "bpatcher",
					"numinlets" : 0,
					"patching_rect" : [ 13.0, 130.0, 332.0, 21.0 ],
					"id" : "obj-61",
					"numoutlets" : 0,
					"name" : "player.displayslot.maxpat",
					"args" : [ 3 ]
				}

			}
, 			{
				"box" : 				{
					"maxclass" : "bpatcher",
					"numinlets" : 0,
					"patching_rect" : [ 13.0, 110.0, 332.0, 21.0 ],
					"id" : "obj-62",
					"numoutlets" : 0,
					"name" : "player.displayslot.maxpat",
					"args" : [ 2 ]
				}

			}
, 			{
				"box" : 				{
					"maxclass" : "bpatcher",
					"numinlets" : 0,
					"patching_rect" : [ 13.0, 90.0, 332.0, 21.0 ],
					"id" : "obj-64",
					"numoutlets" : 0,
					"name" : "player.displayslot.maxpat",
					"args" : [ 1 ]
				}

			}
, 			{
				"box" : 				{
					"maxclass" : "bpatcher",
					"numinlets" : 0,
					"patching_rect" : [ 348.0, 390.0, 332.0, 21.0 ],
					"id" : "obj-65",
					"numoutlets" : 0,
					"name" : "player.displayslot.maxpat",
					"args" : [ 32 ]
				}

			}
, 			{
				"box" : 				{
					"maxclass" : "bpatcher",
					"numinlets" : 0,
					"patching_rect" : [ 348.0, 370.0, 332.0, 21.0 ],
					"id" : "obj-66",
					"numoutlets" : 0,
					"name" : "player.displayslot.maxpat",
					"args" : [ 31 ]
				}

			}
, 			{
				"box" : 				{
					"maxclass" : "bpatcher",
					"numinlets" : 0,
					"patching_rect" : [ 348.0, 350.0, 332.0, 21.0 ],
					"id" : "obj-68",
					"numoutlets" : 0,
					"name" : "player.displayslot.maxpat",
					"args" : [ 30 ]
				}

			}
, 			{
				"box" : 				{
					"maxclass" : "bpatcher",
					"numinlets" : 0,
					"patching_rect" : [ 348.0, 330.0, 332.0, 21.0 ],
					"id" : "obj-70",
					"numoutlets" : 0,
					"name" : "player.displayslot.maxpat",
					"args" : [ 29 ]
				}

			}
, 			{
				"box" : 				{
					"maxclass" : "bpatcher",
					"numinlets" : 0,
					"patching_rect" : [ 348.0, 310.0, 332.0, 21.0 ],
					"id" : "obj-72",
					"numoutlets" : 0,
					"name" : "player.displayslot.maxpat",
					"args" : [ 28 ]
				}

			}
, 			{
				"box" : 				{
					"maxclass" : "bpatcher",
					"numinlets" : 0,
					"patching_rect" : [ 348.0, 290.0, 332.0, 21.0 ],
					"id" : "obj-73",
					"numoutlets" : 0,
					"name" : "player.displayslot.maxpat",
					"args" : [ 27 ]
				}

			}
, 			{
				"box" : 				{
					"maxclass" : "bpatcher",
					"numinlets" : 0,
					"patching_rect" : [ 348.0, 270.0, 332.0, 21.0 ],
					"id" : "obj-74",
					"numoutlets" : 0,
					"name" : "player.displayslot.maxpat",
					"args" : [ 26 ]
				}

			}
, 			{
				"box" : 				{
					"maxclass" : "bpatcher",
					"numinlets" : 0,
					"patching_rect" : [ 348.0, 250.0, 332.0, 21.0 ],
					"id" : "obj-75",
					"numoutlets" : 0,
					"name" : "player.displayslot.maxpat",
					"args" : [ 25 ]
				}

			}
, 			{
				"box" : 				{
					"maxclass" : "bpatcher",
					"numinlets" : 0,
					"patching_rect" : [ 348.0, 230.0, 332.0, 21.0 ],
					"id" : "obj-76",
					"numoutlets" : 0,
					"name" : "player.displayslot.maxpat",
					"args" : [ 24 ]
				}

			}
, 			{
				"box" : 				{
					"maxclass" : "bpatcher",
					"numinlets" : 0,
					"patching_rect" : [ 348.0, 210.0, 332.0, 21.0 ],
					"id" : "obj-77",
					"numoutlets" : 0,
					"name" : "player.displayslot.maxpat",
					"args" : [ 23 ]
				}

			}
, 			{
				"box" : 				{
					"maxclass" : "bpatcher",
					"numinlets" : 0,
					"patching_rect" : [ 348.0, 190.0, 332.0, 21.0 ],
					"id" : "obj-78",
					"numoutlets" : 0,
					"name" : "player.displayslot.maxpat",
					"args" : [ 22 ]
				}

			}
, 			{
				"box" : 				{
					"maxclass" : "bpatcher",
					"numinlets" : 0,
					"patching_rect" : [ 348.0, 170.0, 332.0, 21.0 ],
					"id" : "obj-79",
					"numoutlets" : 0,
					"name" : "player.displayslot.maxpat",
					"args" : [ 21 ]
				}

			}
, 			{
				"box" : 				{
					"maxclass" : "bpatcher",
					"numinlets" : 0,
					"patching_rect" : [ 348.0, 150.0, 332.0, 21.0 ],
					"id" : "obj-80",
					"numoutlets" : 0,
					"name" : "player.displayslot.maxpat",
					"args" : [ 20 ]
				}

			}
, 			{
				"box" : 				{
					"maxclass" : "bpatcher",
					"numinlets" : 0,
					"patching_rect" : [ 348.0, 130.0, 332.0, 21.0 ],
					"id" : "obj-81",
					"numoutlets" : 0,
					"name" : "player.displayslot.maxpat",
					"args" : [ 19 ]
				}

			}
, 			{
				"box" : 				{
					"maxclass" : "bpatcher",
					"numinlets" : 0,
					"patching_rect" : [ 348.0, 110.0, 332.0, 21.0 ],
					"id" : "obj-82",
					"numoutlets" : 0,
					"name" : "player.displayslot.maxpat",
					"args" : [ 18 ]
				}

			}
, 			{
				"box" : 				{
					"maxclass" : "bpatcher",
					"numinlets" : 0,
					"patching_rect" : [ 348.0, 90.0, 332.0, 21.0 ],
					"id" : "obj-83",
					"numoutlets" : 0,
					"name" : "player.displayslot.maxpat",
					"args" : [ 17 ]
				}

			}
, 			{
				"box" : 				{
					"maxclass" : "panel",
					"numinlets" : 1,
					"bgcolor" : [ 1.0, 1.0, 1.0, 1.0 ],
					"patching_rect" : [ 5.0, 82.0, 684.0, 666.0 ],
					"border" : 2,
					"id" : "obj-84",
					"numoutlets" : 0,
					"bordercolor" : [ 0.258824, 0.258824, 0.258824, 1.0 ]
				}

			}
, 			{
				"box" : 				{
					"maxclass" : "bpatcher",
					"numinlets" : 1,
					"patching_rect" : [ 5.0, 4.0, 684.0, 77.0 ],
					"id" : "obj-30",
					"numoutlets" : 0,
					"name" : "browsing-controls.maxpat",
					"args" : [  ]
				}

			}
 ],
		"lines" : [ 			{
				"patchline" : 				{
					"source" : [ "obj-6", 0 ],
					"destination" : [ "obj-7", 0 ],
					"hidden" : 1,
					"midpoints" : [  ]
				}

			}
, 			{
				"patchline" : 				{
					"source" : [ "obj-2", 0 ],
					"destination" : [ "obj-6", 0 ],
					"hidden" : 1,
					"midpoints" : [  ]
				}

			}
, 			{
				"patchline" : 				{
					"source" : [ "obj-86", 1 ],
					"destination" : [ "obj-24", 1 ],
					"hidden" : 1,
					"midpoints" : [  ]
				}

			}
, 			{
				"patchline" : 				{
					"source" : [ "obj-86", 0 ],
					"destination" : [ "obj-24", 0 ],
					"hidden" : 1,
					"midpoints" : [  ]
				}

			}
, 			{
				"patchline" : 				{
					"source" : [ "obj-29", 0 ],
					"destination" : [ "obj-86", 0 ],
					"hidden" : 1,
					"midpoints" : [  ]
				}

			}
, 			{
				"patchline" : 				{
					"source" : [ "obj-92", 0 ],
					"destination" : [ "obj-29", 0 ],
					"hidden" : 1,
					"midpoints" : [  ]
				}

			}
, 			{
				"patchline" : 				{
					"source" : [ "obj-89", 0 ],
					"destination" : [ "obj-92", 0 ],
					"hidden" : 1,
					"midpoints" : [  ]
				}

			}
, 			{
				"patchline" : 				{
					"source" : [ "obj-3", 0 ],
					"destination" : [ "obj-4", 0 ],
					"hidden" : 1,
					"midpoints" : [  ]
				}

			}
, 			{
				"patchline" : 				{
					"source" : [ "obj-4", 0 ],
					"destination" : [ "obj-5", 0 ],
					"hidden" : 1,
					"midpoints" : [  ]
				}

			}
, 			{
				"patchline" : 				{
					"source" : [ "obj-1", 0 ],
					"destination" : [ "obj-3", 0 ],
					"hidden" : 1,
					"midpoints" : [  ]
				}

			}
, 			{
				"patchline" : 				{
					"source" : [ "obj-7", 0 ],
					"destination" : [ "obj-30", 0 ],
					"hidden" : 1,
					"midpoints" : [  ]
				}

			}
 ]
	}

}
